<svg xmlns="http://www.w3.org/2000/svg" width="3291.481" height="453.082" viewBox="0 0 3291.481 453.082">
  <g>
    <path d="M96.036,287.8l-.886-.457a1.626,1.626,0,0,1-.792-1.661c.343-4.45.393-15.6-6.508-23.034-6.952-7.485-7.246-18.5-7.5-28.222-.053-1.97-.1-3.83-.2-5.614-.425-7.372-1.8-8.292-6.352-11.342-1.375-.921-3.086-2.068-5.056-3.605-9.8-7.646-8.9-41.936-7.471-53.562,2.5-20.268,6.222-33.7,11.069-39.935,7.2-9.259,10.534-16.868,9.667-18.042h0a.891.891,0,0,0-.272-.055c-5.975-.459-5.61-5.955-5.434-8.595.028-.431.056-.825.056-1.159,0-2.553,4.552-13.128,5.948-16.309,10.522-23.878,40.819-61.068,41.124-61.441l1.564-1.914.976,2.271c19.448,45.291,33.341,52.221,44.505,57.789,1.041.52,2.061,1.028,3.061,1.554l1.435.754L174.1,76.6c-12.309,19.573-45.006,43.144-50.723,44.336l-.511.106.1.08.516.392c2.684,2.026,6.359,4.8,6.568,12.74.184,7-10.757,21.7-21.338,35.926-1.874,2.519-3.689,4.959-5.351,7.24-8.745,12-6.667,14.269-3.224,18.022.362.4.735.8,1.109,1.23,4.8,5.481,4.793,6.638-.087,24.733-3.7,13.726-2.762,17.623-.891,25.387.535,2.221,1.141,4.739,1.729,7.862,2.4,12.737-3.453,31.352-5.187,32.6ZM124.192,18.594C117.88,26.5,94.037,57.005,85.041,77.417c-2.738,6.241-5.694,13.791-5.694,15.1,0,.39-.03.853-.063,1.358-.243,3.648.075,5.206,2.672,5.406a3.15,3.15,0,0,1,2.8,1.855c2.232,5.047-8.791,19.448-10.055,21.074-4.446,5.716-8.063,19.016-10.46,38.46a150.421,150.421,0,0,0-.35,28.905c1.018,11.567,3.394,19.353,6.69,21.925,1.884,1.471,3.475,2.537,4.88,3.478,5.1,3.415,7.186,5.14,7.677,13.662.106,1.829.156,3.713.209,5.707.245,9.188.523,19.6,6.7,26.26,4.785,5.153,6.586,11.792,7.176,17.246,1.636-6.2,3.224-15.238,1.827-22.65-.574-3.049-1.171-5.527-1.7-7.715-1.927-8-2.989-12.4.912-26.87,4.7-17.433,4.552-17.6.725-21.976-.358-.411-.715-.8-1.062-1.178-4.452-4.854-6.689-8.5,3.01-21.816,1.668-2.29,3.489-4.737,5.369-7.264,9.313-12.519,20.9-28.1,20.746-34.058-.171-6.493-2.936-8.582-5.376-10.424l-.538-.408c-.48-.369-.91-.66-1.259-.9-.9-.612-1.839-1.245-1.606-2.431.255-1.292,1.237-1.5,4.489-2.175,4.369-.91,35.1-22.54,47.9-41.623q-.762-.385-1.541-.771C157.716,69.909,143.566,62.852,124.192,18.594Z" fill="#020203"/>
    <path d="M143.243,51.494s5.958,10.424-1.353,54.7c-12.187,9.478-14.082,10.832-14.082,10.832s4.6-22.476,4.062-42.244-8.53-57.95-8.53-57.95l1.24-1.114Z" fill="#020203"/>
    <path d="M110.883,33.756s11.374,34.527,8.53,86.113a46.849,46.849,0,0,1,6.906,7.718,11.622,11.622,0,0,0-9.749-3.25c-6.093.813-10.967,3.656-11.78-8.124s5.281-41.025-8.936-60.928C106.009,39.443,110.883,33.756,110.883,33.756Z" fill="#020203"/>
    <path d="M84.481,74.376s9.342,8.936,11.373,24.777.813,33.308,13.405,34.933,19.294.2,19.294.2l-7.109,16.857s-17.06,3.249-23.559-12.186-2.843-35.745-16.044-38.182c-5.89-2.031-3.995-8.259-3.995-8.259Z" fill="#020203"/>
    <path d="M80.013,112.151s7.311,4.875,8.936,25.184,21.934,27.215,21.934,27.215L99.51,180.392s-10.155-9.749-12.592-18.685-1.625-28.027-19.5-26.4C69.045,127.587,77.169,116.213,80.013,112.151Z" fill="#020203"/>
    <path d="M64.577,145.459s10.155,13,14.623,23.153,18.279,27.215,18.279,27.215l5.28,5.281.407,6.905s-6.093-3.656-11.78-7.312-8.53-8.53-12.186-13.4-8.53-9.342-17.466-13.81A231.534,231.534,0,0,1,64.577,145.459Z" fill="#020203"/>
    <path d="M62.14,185.266s9.749,13.4,13.405,15.435,15.841,5.687,19.091,11.78,5.28,10.155,5.28,10.155l-2.843,14.623s-3.656-11.78-9.343-15.436-19.5-8.53-21.122-12.185S62.14,185.266,62.14,185.266Z" fill="#020203"/>
    <path d="M80.825,227.51s6.905,11.374,10.561,16.248,9.749,14.623,9.749,14.623l-1.219,13.81s-.812-10.155-5.687-13.4-11.779-6.5-11.779-8.124S80.825,227.51,80.825,227.51Z" fill="#020203"/>
    <path d="M293.264,318.113A108.069,108.069,0,1,1,401.333,210.044,108.191,108.191,0,0,1,293.264,318.113Zm0-210.137A102.069,102.069,0,1,0,395.333,210.044,102.184,102.184,0,0,0,293.264,107.976Z" fill="#020203"/>
    <path d="M293.536,307.933a97.616,97.616,0,1,1,97.616-97.616A97.726,97.726,0,0,1,293.536,307.933Zm0-193.232a95.616,95.616,0,1,0,95.616,95.616A95.724,95.724,0,0,0,293.536,114.7Z" fill="#020203"/>
    <path d="M513.116,303.638l-2.8-.935c.07-.462,6.832-46.428-4.151-65.648-4.483-7.844-10.454-15.478-16.229-22.861-8.908-11.386-16.6-21.22-16.6-29.063a76.224,76.224,0,0,1,2.1-15.975c1.056-5.05,1.968-9.411,1.183-12.946a60.22,60.22,0,0,0-1.713-6.016c-1.231-3.784-2.627-8.073-4-18.485-2.162-16.437-3.475-23.122-14.4-23.475-13.193-.425-21.471-3.445-45.352-30.565l-1.319-1.5,1.805-.851c.206-.1,20.756-9.917,31.758-26.157,17.292-25.527,18.152-33.442,18.159-33.519l.386-4.464,2.381,3.771c5.759,9.191,22.6,33.109,31.278,33.418l.135.005c12.2.436,14.6,1.111,17.943,19.916.7,3.924,1.475,8.89,2.376,14.641,3.3,21.082,7.825,49.955,13.887,62.837,4.209,8.945.346,21.941-2.926,30.938l-.11.3c-7.67,20.636-1.439,34.158,1.6,39.015,7.13,11.409,6.68,29.669-1.338,54.276A230.15,230.15,0,0,1,513.116,303.638ZM414.693,77.145c22.2,25,29.582,27.694,41.909,28.091,13.907.449,15.249,10.646,17.28,26.082,1.334,10.138,2.684,14.287,3.875,17.948a62.541,62.541,0,0,1,1.788,6.294c.926,4.166-.047,8.821-1.175,14.211a73.886,73.886,0,0,0-2.038,15.36c0,6.808,7.753,16.721,15.962,27.215,5.841,7.467,11.881,15.188,16.471,23.22,8.577,15.009,7.033,44.15,5.573,58.795,7.882-16.919,24.052-56.86,11.62-76.753-3.27-5.232-10-19.765-1.864-41.649l.1-.277c1.78-4.894,7.2-19.786,3.032-28.636-6.245-13.271-10.807-42.389-14.137-63.65-.9-5.735-1.674-10.687-2.366-14.58-3.025-17.012-4.167-17.053-15.1-17.443l-.135,0c-5.177-.184-12.456-6.167-21.636-17.781-4.331-5.48-8.1-10.986-10.233-14.2-1.6,4.559-5.938,14.032-17.745,31.461C436.219,65.108,420.071,74.34,414.693,77.145Z" fill="#020203"/>
    <path d="M496.3,102.888c-.457-2.1-.966-4.2-1.627-6.243a8.62,8.62,0,0,0-1.706-3.4,5.782,5.782,0,0,0-3.106-1.754c-4.371-.73-6.505,4.325-6.372,7.95a16.847,16.847,0,0,0,1.138,5.46,10.852,10.852,0,0,0,2.742,4.418,5.15,5.15,0,0,0,6.086.566c2.128-1.4,2.8-4,2.925-6.4a2.265,2.265,0,0,0-2.25-2.25,2.3,2.3,0,0,0-2.25,2.25c-.011.21-.027.419-.045.628,0,.039-.055.367-.009.1.048-.289-.025.106-.039.174-.074.376-.216.728-.3,1.1.079-.332.1-.2-.027.04-.077.15-.189.289-.26.44-.1.2.112-.171.145-.177-.03,0-.107.127-.132.151-.046.044-.1.092-.137.14-.223.259.113-.144.163-.108,0,0-.288.178-.313.2-.287.2.5-.167.03-.026-.012,0-.177.047-.178.042-.014-.046.526-.008.291-.04-.033,0-.449,0-.448,0,.017-.053.565.116.061-.014-.119-.03-.659-.224-.238-.06.385.15.057,0-.04-.051-.376-.211.291.3.065.055-.181-.192-.364-.391-.548-.579-.155-.158.149.181.148.192,0-.034-.1-.14-.12-.17-.091-.14-.185-.278-.272-.421-.173-.283-.33-.575-.475-.873-.071-.144-.131-.294-.2-.436-.115-.223.061.149.065.16-.04-.1-.083-.206-.123-.309a16.166,16.166,0,0,1-.653-2.127c-.085-.362-.154-.727-.216-1.094a2.142,2.142,0,0,1-.038-.251c0,.007.04.443.028.182-.008-.191-.039-.383-.051-.574-.022-.342-.03-.685-.019-1.028,0-.151.017-.3.027-.451.033-.524-.077.315,0-.046a8.847,8.847,0,0,1,.266-.982c.033-.095.241-.6.152-.414s.157-.3.21-.393c.091-.163.206-.311.3-.473.121-.211-.11.176-.132.172.014,0,.119-.134.135-.148.071-.065.4-.347.092-.112s.066-.012.145-.067c.278-.192-.545.193-.114.063.372-.112-.327,0-.223.017a1.043,1.043,0,0,0,.279,0c.16-.031-.359-.051-.37-.056a1.433,1.433,0,0,0,.18.035,2.683,2.683,0,0,0,.307.091c.116.019-.531-.272-.2-.084.169.1.336.19.5.294.361.228-.222-.2-.15-.12.054.057.123.105.182.159.115.1.212.229.326.335.217.2-.333-.554-.182-.234.03.064.076.126.111.188s.076.151.114.227c.165.325.015.11-.051-.135.135.5.367.994.524,1.493.616,1.965,1.107,3.977,1.545,5.989a2.267,2.267,0,0,0,2.768,1.572A2.3,2.3,0,0,0,496.3,102.888Z" fill="#020203"/>
    <path d="M503.687,128.129c-.262-2.318-.577-4.635-.968-6.934-.407-2.386-.739-5.957-3.522-6.769-4.216-1.23-5.423,4.5-5.7,7.418a33.668,33.668,0,0,0-.085,4.889,19.078,19.078,0,0,0,.979,5.8,4.971,4.971,0,0,0,2.09,2.861,3.675,3.675,0,0,0,3.67-.2c2.334-1.452,3.38-4.45,3.536-7.06a2.25,2.25,0,1,0-4.5,0c0-.006-.089.772-.023.36a6.826,6.826,0,0,1-.151.692c-.059.223-.134.44-.2.659-.2.63.189-.286-.12.276-.166.3-.33.6-.523.886.271-.4-.057.058-.118.123q-.119.125-.246.24c.247-.178.274-.2.079-.062l-.127.077c-.173.088-.168.089.017,0l.143-.063c-.24.059-.164.055.228-.014-.339.022.454.107.556.17l.243.2c-.161-.163-.141-.122.06.125a6.811,6.811,0,0,1-.371-.7c.246.542.019.01-.016-.094-.077-.228-.145-.46-.206-.693-.09-.34-.163-.684-.227-1.03-.031-.163-.055-.327-.084-.491-.117-.656.041.463-.03-.208-.087-.821-.152-1.642-.179-2.467a34.634,34.634,0,0,1,.087-4.024c.019-.227.069-.463.07-.69,0,.936-.008.084.031-.146.043-.255.091-.51.146-.763.077-.36.166-.718.276-1.07.056-.179.122-.353.183-.53-.191.551.032-.051.1-.172a3.2,3.2,0,0,0,.172-.278c.112-.261-.373.429-.1.142.147-.157.4-.268-.167.1.2-.13.369-.121-.249.073.462-.145-.628-.009-.172.014-.736-.037-.54-.1-.326-.032.312.093-.609-.322-.218-.08.289.179-.481-.406-.223-.179a1.463,1.463,0,0,1,.132.129c.272.307-.375-.576-.1-.111.219.373-.2-.619,0,.016.067.214.134.428.192.644.3,1.114.5,2.257.693,3.393.12.711.229,1.423.333,2.136.053.361.1.722.153,1.083.021.145.125.655,0-.023.025.133.035.27.053.4.086.657.169,1.315.243,1.974a2.318,2.318,0,0,0,2.25,2.25A2.264,2.264,0,0,0,503.687,128.129Z" fill="#020203"/>
    <path d="M490.707,107.65c.067.072.132.147.195.222s.141.167.209.252c.047.058.091.118.139.175.211.254-.379-.512-.173-.223a29.148,29.148,0,0,1,1.614,2.469q.483.85.9,1.735.142.3.279.6c.05.113.258.6.048.1q.246.59.466,1.19a30.333,30.333,0,0,1,1.427,5.484,2.259,2.259,0,0,0,2.768,1.571,2.314,2.314,0,0,0,1.571-2.767,30.784,30.784,0,0,0-3.578-10.185,20.094,20.094,0,0,0-2.687-3.806,2.269,2.269,0,0,0-3.182,0,2.3,2.3,0,0,0,0,3.182Z" fill="#020203"/>
    <g>
      <path d="M485.292,121.294s-.9-2.323-2.21-2.229c.351,3.336.389,3.687.611,5.792s.241,6.016,1.1,12.907,3.869,24.134.857,40.481c-1.985,2.424-3.432,3.659-3.327-1.567s1.272-30.3-.15-33.809-4.1-5.21-5.568-5.334a19.109,19.109,0,0,1,3.609,10.479c.069,1.887-.258,26.217-.035,28.323s.538,8.822,3.872,5.472c.544,3.907.7,4.124,2.209,5.963s.239,6.015-.826,8.391,3.308,10.57,4.02,12.324,5.179,5.382,7.717.609c1.562-3.914-3.567-.754-3.859-1.015s-2.944-.2-6.068-7.273c2.892-5.017,4-10.775,3.365-13.011s-3.543-4.859-3.543-4.859,3.506-2.958,4.417-1.82,1.914,3.155.824,6.54c1.571,1.179,4.879,2.57,5.51,4.807s2.705.692,2.739-1.5a6.154,6.154,0,0,0-3.581-5.21c-1.635-.52-1.182-1.225-.7-4.125s-.644-11.061-7.977-3.215c.564-3.384,6.357-22.071,3.622-35.5,1.809-2.818,3.743-7.9,3.93-9.878S494.837,124,494.837,124s-1.248,13.507-3.528,16.854c-.859-3.159-2.4-6.532-2.476-7.235s-.457-5.575-.457-5.575,3.277-3.877,3.791-5.241,1.55-5.278.589-4.4-2.709,3.044-3.408,2.651S487.7,119.177,485.292,121.294Z" fill="#020203"/>
      <path d="M506.251,94.974a24.438,24.438,0,0,1,1.32-6.2c.352,3.336.391,3.687.613,5.794s.946,5.221,1.571,12.375,1.513,26.78,6.976,33.607c2.019-2.074,3.393-4.009,2.322-7.914s-5.851-21.311-6.269-26.936a30.964,30.964,0,0,1,1.855-13.455c-.541,8.53.357,11.952.66,13.577s5.156,20.132,5.379,22.239,1.243,8.031-2.016,12.086c.309,4.17.229,4.653-.614,9.135s.948,5.221,2.236,4.952,1.038,13.565.808,16.377-1.29,11.465-5.748,14.119c-1.97.054,1.276-5.36,1.456-6.154a47.148,47.148,0,0,0,2.937-17.049c-3.227,1.857-5.184-.46-5.108-3.491S516.5,147.1,516.5,147.1s-3.321,4.712-3.824,7.437-.91,6.329.589,6.805c-1.017,4.088-3.36,11.826-3.433,14.856s-2,5.979-2.442,4.313.645-7.6,1.836-11.294.7-3.338-.231-4.651-1.581-10.008,5.677-18.556c-1.084-1.531-9.176-4.616-9.559-20.686-1.958,1.415-4.15,3.091-4.672,1.909a27.91,27.91,0,0,1-1.008-4.562s3.344,1.741,5.772-.2c.081-4.216.658-9.972.584-10.673s-.692-5.311-.692-5.311-3.315,3.526-3.977,3.485-2.219-1.043-1.295-2.277,2.708-3.043,3.185-4.757A21.128,21.128,0,0,1,506.251,94.974Z" fill="#020203"/>
    </g>
    <path d="M495.548,145.426s8.394-4.841,10.425-6.736.406,3.655.406,3.655a46.739,46.739,0,0,1,1.659,10.087c.1,14.42-2.336,18.076-6.939,19.972,0,0-6.1,2.166-6.634-8.937-.441-9.207,1.489-13.98,1.489-13.98S493.517,146.238,495.548,145.426Z" fill="#020203"/>
    <path d="M491.689,144.512s2.945,1.624,4.874,1.624-.609,2.336-.609,2.336a39.648,39.648,0,0,1-4.468-2.539l-.813-.711L491.79,144Z" fill="#020203"/>
    <polygon points="261.957 127.696 261.957 127.696 256.087 129.013 251.034 130.864 246.501 132.974 242.501 135.36 239.301 138.267 236.37 141.435 233.975 144.602 231.845 148.305 230.244 152.266 228.91 156.239 228.117 160.465 227.585 164.688 227.312 169.447 227.048 173.943 227.312 178.7 227.585 183.455 228.377 193.234 229.714 202.747 231.04 212 231.845 220.982 232.106 225.208 232.374 229.441 232.106 233.141 231.845 236.841 231.309 240.272 230.508 243.441 229.182 246.086 227.585 248.729 227.585 248.729 226.247 247.934 224.646 246.878 223.051 244.77 221.178 242.385 220.385 240.534 219.584 238.684 219.048 236.571 218.519 234.457 217.982 231.813 217.722 228.907 217.722 225.739 217.722 222.298 217.722 222.298 214.515 222.833 212.921 223.353 211.592 223.889 210.526 224.423 209.461 225.208 208.656 226.271 208.124 227.056 207.059 229.441 206.522 231.813 206.265 234.457 206.795 237.366 207.327 240.272 208.396 243.18 209.722 246.086 211.059 249.253 212.921 251.899 214.787 254.808 216.657 257.188 218.787 259.301 218.787 259.301 225.975 256.658 232.106 253.748 234.768 252.432 236.903 250.844 239.041 249.253 240.903 247.674 242.501 246.086 244.098 244.235 245.163 242.655 246.229 240.805 247.033 238.956 247.566 237.106 248.631 233.141 248.903 229.177 248.631 224.683 248.367 220.187 247.566 215.168 245.968 204.597 245.163 198.783 244.627 192.709 244.627 192.709 244.37 190.858 243.834 185.57 243.562 177.642 243.834 173.147 244.098 168.127 244.627 162.837 245.692 157.559 247.033 152.006 248.903 146.727 251.298 141.435 252.631 139.062 254.229 136.677 255.831 134.304 257.689 131.919 259.827 129.808 261.957 127.696 261.957 127.696 261.957 127.696" fill="#020203"/>
    <polygon points="304.867 263.797 304.867 263.797 304.867 260.096 305.131 256.658 306.192 250.049 307.522 243.71 309.392 238.161 313.132 227.587 314.982 222.568 316.587 217.814 317.653 212.786 317.913 210.411 317.913 208.035 317.913 205.652 317.653 203.007 317.392 200.373 316.587 197.728 315.523 195.082 314.458 192.175 312.851 189.269 310.997 186.365 308.847 183.195 306.453 180.017 303.522 176.585 300.062 172.887 300.062 172.887 292.866 178.7 285.134 184.51 276.08 190.858 276.08 190.858 275.812 181.604 276.08 172.092 276.613 160.997 276.873 155.444 277.678 150.155 278.744 145.136 279.808 140.643 281.406 136.677 282.212 135.099 283.276 133.769 284.341 132.714 285.407 131.658 286.736 131.124 288.074 131.124 288.074 131.124 289.138 132.193 290.472 133.248 292.062 134.304 293.931 135.36 295.801 136.153 297.932 136.677 300.327 136.938 302.457 137.208 304.867 136.938 307.258 136.417 309.653 135.36 312.327 134.033 314.718 132.193 317.108 129.808 319.523 126.64 321.654 123.2 321.654 123.2 319.783 123.995 317.913 124.789 316.043 125.05 314.198 125.584 310.457 125.584 306.997 125.31 303.262 124.255 299.802 122.939 296.322 121.351 292.866 119.501 292.866 119.501 288.866 121.087 285.407 122.939 281.939 125.05 278.744 127.435 276.08 130.068 273.417 132.974 271.288 136.417 269.157 139.857 267.547 143.816 265.949 148.042 264.885 152.8 264.088 157.559 263.287 162.837 263.023 168.661 263.023 174.735 263.287 181.072 263.287 181.072 265.153 208.3 265.689 222.568 266.218 236.571 266.218 243.18 266.218 249.524 265.689 255.603 265.153 260.891 264.352 265.91 263.287 270.135 261.957 273.574 261.157 274.89 260.363 276.219 260.363 276.219 256.896 274.095 253.957 272.246 251.034 270.93 248.631 269.871 246.501 269.076 244.37 268.555 242.501 268.284 240.903 268.284 239.041 268.555 237.703 269.076 234.768 270.135 228.65 273.039 228.65 273.039 231.845 274.095 234.768 275.154 237.171 276.744 239.301 278.33 242.769 281.498 244.37 282.818 245.968 284.143 247.566 285.201 249.16 285.722 251.298 285.994 253.692 285.461 256.36 284.668 259.298 282.818 263.023 280.443 267.283 277.005 267.283 277.005 268.884 275.424 270.482 273.834 271.82 272.246 273.145 270.406 275.276 266.432 276.873 262.207 277.939 257.713 278.744 253.227 279.28 248.469 279.28 243.71 279.28 239.216 279.015 234.72 278.471 226.271 277.406 218.87 276.873 213.579 276.873 213.579 276.34 197.988 276.34 197.988 277.678 196.672 279.015 195.082 280.874 194.027 282.475 192.969 284.341 192.175 286.203 191.914 288.074 192.175 289.939 192.709 291.541 194.027 293.41 195.877 294.737 198.523 296.322 201.951 297.411 206.187 298.453 211.466 299.261 217.814 299.802 225.208 299.802 225.208 300.062 230.237 300.062 235.251 299.541 243.441 298.996 250.319 297.932 256.393 297.411 261.412 296.866 266.432 296.866 269.076 297.132 271.461 297.411 274.095 297.932 277.005 297.932 277.005 299.541 283.088 300.327 285.994 301.392 288.368 302.457 290.482 303.802 292.331 304.867 293.921 306.453 295.237 307.783 296.296 309.392 296.827 310.997 297.091 312.587 297.091 314.458 296.566 316.323 295.771 318.457 294.451 320.588 292.601 320.588 292.601 322.983 290.482 324.049 288.902 324.588 288.368 324.588 287.572 324.588 287.051 324.309 286.517 323.523 285.722 322.178 285.201 318.177 283.613 316.043 282.554 313.653 281.498 311.522 279.908 309.392 277.799 307.522 275.424 306.717 273.834 305.932 272.246 305.392 270.406 305.131 268.555 304.867 266.17 304.867 263.797 304.867 263.797 304.867 263.797" fill="#020203"/>
    <polygon points="362.16 203.542 361.616 203.542 361.616 203.542 356.834 199.841 354.16 197.467 351.765 194.822 349.095 192.175 346.699 189.269 344.569 186.1 342.699 182.925 341.113 179.756 340.029 176.585 339.244 173.408 339.244 170.242 339.504 168.661 339.768 167.073 340.309 165.744 341.113 164.164 342.179 162.576 343.24 161.258 344.569 159.93 346.159 158.614 346.159 158.614 349.9 160.465 353.635 163.108 357.356 166.278 361.095 169.977 364.551 174.203 366.16 176.585 367.489 178.961 368.816 181.604 369.881 184.25 370.946 186.885 371.747 189.803 371.747 189.803 372.551 188.213 373.356 186.625 374.141 183.455 374.421 180.017 374.421 176.585 373.62 173.408 372.551 169.977 370.946 166.538 368.816 163.368 366.42 160.204 364.031 157.024 361.095 154.12 357.9 151.481 354.7 148.837 351.225 146.453 347.768 144.341 344.309 142.491 344.309 142.491 341.113 146.987 338.438 151.211 336.044 155.174 334.175 158.874 332.308 162.576 330.982 166.018 329.634 169.447 328.848 172.623 328.308 175.791 327.784 178.7 327.504 181.344 327.504 183.98 327.784 186.365 328.048 188.734 328.568 191.119 329.374 193.234 330.982 196.933 333.113 200.373 335.244 203.542 337.635 206.187 340.309 208.3 342.439 210.411 346.159 213.318 346.159 213.318 349.639 216.485 352.569 219.662 354.964 223.093 357.095 226.271 358.684 229.701 360.293 233.141 361.356 236.571 362.16 240.01 362.681 243.18 362.681 246.348 362.681 249.253 362.42 252.161 361.896 254.808 361.095 257.188 360.293 259.301 359.225 261.151 357.9 262.741 356.554 264.057 354.964 264.852 353.355 265.115 351.765 265.115 349.9 264.582 348.029 263.797 346.159 262.207 344.309 260.356 342.439 257.713 340.572 254.543 338.703 250.583 336.829 246.086 334.979 241.065 333.374 234.991 331.787 228.382 331.787 228.382 330.718 232.087 329.918 236.047 329.634 240.272 329.634 244.77 330.179 249.253 330.982 253.748 332.048 258.245 333.374 262.471 334.979 266.432 336.829 269.871 338.964 273.039 341.113 275.685 342.179 276.479 343.505 277.535 344.569 278.07 345.899 278.592 347.225 278.853 348.569 278.853 349.9 278.592 351.225 278.07 351.225 278.07 353.635 276.744 356.29 274.89 359.49 272.519 362.681 269.611 365.881 266.17 369.08 262.207 372.011 257.713 374.685 252.955 375.751 250.319 376.555 247.674 377.34 245.03 377.881 242.124 378.145 239.216 378.145 236.311 377.881 233.401 377.62 230.237 376.816 227.056 375.751 223.889 374.421 220.448 372.816 217.28 370.681 213.849 368.294 210.411 365.356 206.972 362.16 203.542 362.16 203.542 362.16 203.542" fill="#020203"/>
    <g>
      <g>
        <path d="M258.425,382.726v-.675a9.832,9.832,0,0,0,2.975-.538,3.525,3.525,0,0,0,1.734-1.282,5.388,5.388,0,0,0,.511-2.193q.146-1.629.146-5.305v-7.862a33.366,33.366,0,0,0-.192-4.384,3.689,3.689,0,0,0-.666-1.8,3.541,3.541,0,0,0-1.661-.928,12.14,12.14,0,0,0-2.847-.491v-.713q.712.019,1.57.028t2.537.009q2.061,0,3.075-.009t1.852-.046q-.127,1.924-.191,3.38t-.064,2.354V374.9a27.513,27.513,0,0,0,.21,4.24,3.272,3.272,0,0,0,.721,1.656,3.8,3.8,0,0,0,1.7.891,12.168,12.168,0,0,0,2.811.365v.675q-2.9-.055-4.362-.065t-2.72-.008q-1.258,0-2.719.008T258.425,382.726Z" fill="#020203"/>
        <path d="M276.876,383.656l-.365-.784a27.584,27.584,0,0,0,7.438-5.138,16.373,16.373,0,0,0,3.987-6.452A12.344,12.344,0,0,1,285.2,372.5a9.445,9.445,0,0,1-2.683.393,7.386,7.386,0,0,1-7.738-7.775,8.563,8.563,0,0,1,2.545-6.4,8.965,8.965,0,0,1,6.544-2.491,8.87,8.87,0,0,1,6.661,2.491,9.4,9.4,0,0,1,2.427,6.854,15.839,15.839,0,0,1-4.225,10.8A26.547,26.547,0,0,1,276.876,383.656Zm11.444-13.633a21.59,21.59,0,0,0,.447-2.318,16.86,16.86,0,0,0,.155-2.245,11.161,11.161,0,0,0-1.405-6.014,4.307,4.307,0,0,0-3.8-2.217,4.5,4.5,0,0,0-3.751,1.834,9.058,9.058,0,0,0,.374,10.266,5.83,5.83,0,0,0,4.617,2.063,4.754,4.754,0,0,0,1.825-.338A4.837,4.837,0,0,0,288.32,370.023Z" fill="#020203"/>
        <path d="M294.616,382.8l-.256-.53a60.343,60.343,0,0,0,9.618-9.782q3.048-4.2,3.048-7.593a6.047,6.047,0,0,0-1.259-4.061,4.349,4.349,0,0,0-3.486-1.469,6.327,6.327,0,0,0-3.149.885,11.775,11.775,0,0,0-3.057,2.637l-.565-.456a13.466,13.466,0,0,1,3.668-4.645,7.528,7.528,0,0,1,4.6-1.487,6.494,6.494,0,0,1,4.936,2.108,7.392,7.392,0,0,1,1.98,5.265q0,3.378-2.874,7.255a50.518,50.518,0,0,1-9.007,8.77l6.644-.073a16.645,16.645,0,0,0,2.81-.164,2.975,2.975,0,0,0,1.314-.548,8.541,8.541,0,0,0,1.232-1.4,25.7,25.7,0,0,0,1.451-2.272l.639.31-2.811,7.173q-2.518-.037-3.924-.055t-2.609-.018q-2.465,0-4.673.036T294.616,382.8Z" fill="#020203"/>
        <path d="M316.165,383.656l-.365-.784a27.562,27.562,0,0,0,7.437-5.138,16.364,16.364,0,0,0,3.988-6.452,12.33,12.33,0,0,1-2.738,1.213,9.428,9.428,0,0,1-2.682.393,7.388,7.388,0,0,1-7.739-7.775,8.561,8.561,0,0,1,2.547-6.4,9.994,9.994,0,0,1,13.2,0,9.4,9.4,0,0,1,2.427,6.854,15.839,15.839,0,0,1-4.225,10.8A26.547,26.547,0,0,1,316.165,383.656Zm11.443-13.633a21.353,21.353,0,0,0,.448-2.318,16.86,16.86,0,0,0,.155-2.245,11.161,11.161,0,0,0-1.405-6.014,4.307,4.307,0,0,0-3.8-2.217,4.5,4.5,0,0,0-3.751,1.834,9.06,9.06,0,0,0,.375,10.266,5.828,5.828,0,0,0,4.617,2.063,4.766,4.766,0,0,0,1.826-.338A4.829,4.829,0,0,0,327.608,370.023Z" fill="#020203"/>
      </g>
      <rect x="219.002" y="370.251" width="26.996" height="1" fill="#020203"/>
      <rect x="346.337" y="370.251" width="26.997" height="1" fill="#020203"/>
      <g>
        <path d="M219.412,348.563l-.014-.526a4.542,4.542,0,0,0,2.91-.89q.725-.748.724-3.5V333.331q0-2.786-.7-3.564a4.275,4.275,0,0,0-2.769-.978v-.526q1.377,0,3.819.029t3.506.028q1.832,0,3.755-.014t4.45-.043l-.44,4.741h-.426a3.855,3.855,0,0,0-1.214-3.094q-1.128-.852-4.379-.852h-2.867v8.829h3.335a5.336,5.336,0,0,0,3.095-.709,2.834,2.834,0,0,0,1.065-2.286l.468.015q-.071,1.391-.106,2.619t-.036,2.377q0,.966.008,1.462c0,.332.006.639.006.923h-.425a2.87,2.87,0,0,0-.923-2.4,5.038,5.038,0,0,0-3.066-.724h-3.421V343.5q0,2.655.852,3.475t3.534,1.059v.526h-.17q-3.606-.057-5.352-.057-.966,0-2.065.014Z" fill="#020203"/>
        <path d="M236.722,338.328a9.878,9.878,0,0,1,3-7.552,11.217,11.217,0,0,1,8.014-2.825,10.744,10.744,0,0,1,7.885,2.917,10.4,10.4,0,0,1,2.96,7.758,9.789,9.789,0,0,1-3.017,7.488,11.212,11.212,0,0,1-8,2.832,10.79,10.79,0,0,1-7.885-2.9A10.313,10.313,0,0,1,236.722,338.328Zm3.464-.412a11.745,11.745,0,0,0,2.157,7.318,6.641,6.641,0,0,0,5.508,2.832,6.437,6.437,0,0,0,5.295-2.513,10.447,10.447,0,0,0,2-6.7,13.549,13.549,0,0,0-.468-3.577,10.37,10.37,0,0,0-1.334-3.024,8.132,8.132,0,0,0-2.619-2.611,6.763,6.763,0,0,0-8.546,1.66A10.326,10.326,0,0,0,240.186,337.916Z" fill="#020203"/>
        <path d="M262.339,340.774v-7.46a13.057,13.057,0,0,0-.163-2.568,1.785,1.785,0,0,0-.589-1.007,3.844,3.844,0,0,0-1.221-.632,6.906,6.906,0,0,0-1.633-.276v-.525q.923.029,1.973.042t3.18.015q2.157,0,3.229-.015t2-.042l.014.525a4.616,4.616,0,0,0-3.215.951q-.831.879-.831,3.5v7.206a12.909,12.909,0,0,0,.32,3.277,4.545,4.545,0,0,0,1.072,1.943,5.664,5.664,0,0,0,2.214,1.418,8.7,8.7,0,0,0,3.024.5,6.935,6.935,0,0,0,3.442-.759,5.29,5.29,0,0,0,2.137-2.433,7.718,7.718,0,0,0,.56-2.418q.164-1.581.163-5.043a41.367,41.367,0,0,0-.177-4.695,4.768,4.768,0,0,0-.6-1.958,3.051,3.051,0,0,0-1.4-1.1,6.543,6.543,0,0,0-2.285-.39v-.525q.78.029,1.661.042t2.668.015q1.8,0,2.69-.015t1.64-.042v.525h-.057a2.376,2.376,0,0,0-2.356,1.32q-.639,1.318-.639,6.653,0,.453-.014,1.361-.057,4.936-.824,6.709a6.16,6.16,0,0,1-2.91,3.1,10.881,10.881,0,0,1-5.053,1.056,11.721,11.721,0,0,1-4.145-.652,5.746,5.746,0,0,1-2.669-1.944,5.65,5.65,0,0,1-.915-2.029A17.03,17.03,0,0,1,262.339,340.774Z" fill="#020203"/>
        <path d="M283.585,348.563l-.014-.526a3.5,3.5,0,0,0,3.059-1.464q.816-1.351.816-5.584v-5.577c0-.255,0-.594.014-1.018s.014-.722.014-.892a6.238,6.238,0,0,0-.284-2.123,3.6,3.6,0,0,0-.937-1.359,4.205,4.205,0,0,0-1.327-.814,5.91,5.91,0,0,0-1.725-.375v-.525q.469,0,1.363.028t1.306.029q.426,0,1.235-.029t1.178-.028l14.537,15.542v-6.694a40.011,40.011,0,0,0-.207-5.082,4.051,4.051,0,0,0-.731-1.953,2.8,2.8,0,0,0-1.249-.877,7.293,7.293,0,0,0-2-.411v-.525c.512.019,1.06.033,1.647.042s1.444.015,2.57.015,1.942,0,2.477-.015,1.024-.023,1.469-.042v.525h-.227a2.194,2.194,0,0,0-2.166,1.557,18.114,18.114,0,0,0-.617,5.789v6.2q0,2.166.036,3.84t.093,3.1h-.172q-.879-1.018-1.908-2.195t-1.143-1.305L288.4,332.808v5.732q0,4.231.163,5.7a5.286,5.286,0,0,0,.561,2.1,2.712,2.712,0,0,0,1.192,1,9.721,9.721,0,0,0,2.328.679v.54h-.085q-3-.057-4.471-.057-.823,0-1.775.014T283.585,348.563Z" fill="#020203"/>
        <path d="M308.219,348.563v-.526a4.94,4.94,0,0,0,3.031-.958,4.338,4.338,0,0,0,.774-3.016V332.578a3.987,3.987,0,0,0-.724-2.757,4.657,4.657,0,0,0-2.768-.99v-.525q2.442-.029,5.194-.078t3.124-.05q6.358,0,9.965,2.768a9.038,9.038,0,0,1,3.606,7.581,8.917,8.917,0,0,1-3.443,7.417q-3.443,2.7-9.49,2.7-1.162,0-4.293-.035T308.219,348.563Zm6.6-5.324q0,2.826.909,3.755t3.392.93a7.125,7.125,0,0,0,5.593-2.456,10.549,10.549,0,0,0-.958-13.911q-3.13-2.712-8.68-2.711h-.256Z" fill="#020203"/>
        <path d="M330.756,348.563v-.526a5.78,5.78,0,0,0,3.08-.986q.751-.7.752-3.017V332.891q0-2.445-.745-3.231a4.039,4.039,0,0,0-2.775-.871v-.526q1.419.035,3.024.046t4.656.011q3.563,0,5.216-.011t2.974-.031q-.127.964-.22,2.072t-.177,2.541H346.1a3.919,3.919,0,0,0-1.206-2.974,6.326,6.326,0,0,0-3.761-.83h-3.805v8.375h2.924a6.387,6.387,0,0,0,3.314-.611,3.082,3.082,0,0,0,1.171-2.214h.469q0,.795-.064,2.5t-.063,2.655v1.675h-.426a2.647,2.647,0,0,0-1.079-2.123,6.488,6.488,0,0,0-3.294-.6h-2.952v5.167q0,2.372.965,3.124t3.762.752a5.953,5.953,0,0,0,4.038-1.264,6.6,6.6,0,0,0,1.952-3.917l.469.056a24.314,24.314,0,0,1-.362,3.145,18.453,18.453,0,0,1-.746,2.818q-2.056-.057-4.5-.086t-5.323-.028q-2.682,0-4.117.014T330.756,348.563Z" fill="#020203"/>
        <path d="M349.789,348.563v-.526a4.934,4.934,0,0,0,3.03-.958,4.332,4.332,0,0,0,.775-3.016V332.578a3.986,3.986,0,0,0-.725-2.757,4.651,4.651,0,0,0-2.768-.99v-.525q2.441-.029,5.2-.078t3.122-.05q6.36,0,9.966,2.768a9.038,9.038,0,0,1,3.605,7.581,8.919,8.919,0,0,1-3.442,7.417q-3.442,2.7-9.49,2.7-1.164,0-4.293-.035T349.789,348.563Zm6.6-5.324q0,2.826.909,3.755t3.393.93a7.125,7.125,0,0,0,5.593-2.456,10.552,10.552,0,0,0-.958-13.911q-3.131-2.712-8.68-2.711h-.257Z" fill="#020203"/>
      </g>
    </g>
    <path d="M228.33,290.311c-.42-.389-.652-.615-.778-.747-.117-.087-.256-.191-.425-.319-1.119-.85-2.193-1.683-3.229-2.6L118.6,415.577l.08.08a5.784,5.784,0,1,0,9.123,6.728L233.867,293.032A10.667,10.667,0,0,1,228.33,290.311Z" fill="#020203"/>
    <path d="M223.456,129.777a10.347,10.347,0,0,1,5.354-2.746L129.636,5.594,120.7,13.311l99.973,121.927A9.62,9.62,0,0,1,223.456,129.777Z" fill="#020203"/>
    <path d="M362.055,130.59a9.448,9.448,0,0,1,2.761,5.244L464.945,13.718,456.009,6l-99.49,121.825A10.616,10.616,0,0,1,362.055,130.59Z" fill="#020203"/>
    <path d="M466.018,415.657l.081-.08L361.218,287.152a9.24,9.24,0,0,1-.831,1.924,9.372,9.372,0,0,1-7.341,4.764,9.212,9.212,0,0,1-1.146.492l105,128.053a5.784,5.784,0,1,0,9.122-6.728Z" fill="#020203"/>
    <g>
      <path d="M784.112,284.583q0,31.933,2.6,45t8.83,19.075q6.647,6.225,17.867,10.476t28.672,6.945l-.208,7.687q-31.374-.411-47.786-.623t-30.333-.208q-25.972,0-77.5.831h-1.247v-7.687q17.658-2.693,28.983-6.945t17.764-10.476q6.44-6.007,9.038-19.075t2.6-45V91.623h-29.5q-39.891,0-58.174,12.258t-26.386,43.007l-7.272-1.247,8.1-82.066h4.986l12.881,13.712q19.946,0,58.8.208T765,77.7q19.113,0,57.343-.208t57.135-.208L893.6,63.575h3.324l7.272,82.9-6.856,1.45q-7.479-30.323-26.074-43.312T816.107,91.623h-32Z" fill="#020203"/>
      <path d="M906.264,373.766l-.208-7.687q19.322-.829,25.659-7.878t6.337-36.681L937.636,125.7q0-13.089-2.389-19.839A30.383,30.383,0,0,0,927.04,93.7l-11.012-9.349v-3.74L968.177,59.42,972.54,61.5l-2.493,143.34q21.816-14.74,40.306-22.218t32.827-7.475q29.709,0,43.423,16.8t14.751,54.757l1.87,80q.828,25.7,6.856,31.607t24.516,7.771v7.687q-7.9-.411-17.764-.623t-30.229-.208q-20.364,0-30.957.208t-19.53.623l-.208-7.687q19.737-2.069,26.282-8.7t6.545-27.354q0-1.658-.208-6.22t-.208-7.254l-.831-49.328q-.833-36.271-13.4-52.533t-39.372-16.273a68.964,68.964,0,0,0-21.088,3.422,108.967,108.967,0,0,0-22.75,10.671v108.6q0,27.358,6.752,35.753t26.906,9.221l-.208,7.687q-8.726-.411-19.114-.623t-30.957-.208q-19.945,0-29.918.208T906.264,373.766Z" fill="#020203"/>
      <path d="M1299.424,322.656l6.025,5.195q-16.414,23.9-37.19,36.15a87.143,87.143,0,0,1-45.085,12.258q-37.815,0-63.576-27.734t-25.762-69.291q0-43.63,27.529-73.862t67-30.228q31.788,0,51.214,17.868t21.088,48.824q-35.528-1.247-67.419-1.87t-60.564-.623a85.431,85.431,0,0,0-2.077,11.635,115.354,115.354,0,0,0-.623,12.258q0,37.191,21.607,61.706t53.811,24.516a66.356,66.356,0,0,0,29.71-6.75A71.384,71.384,0,0,0,1299.424,322.656Zm-41.761-93.909q-4.158-21.192-13.92-32.517t-23.893-11.321q-16.206,0-28.568,12.364t-16.932,33.552Z" fill="#020203"/>
      <path d="M1743.83,340.568v7.674q-35.321,15.981-67.107,23.765a257.516,257.516,0,0,1-61.291,7.784q-76.663,0-123.2-41.451t-46.539-109.177q0-34.281,12.674-62.851t38.021-50.8a168.5,168.5,0,0,1,56.2-32.725q31.681-11.108,68.874-11.113a311.825,311.825,0,0,1,51.317,4.363,357.807,357.807,0,0,1,52.772,13.089q-1.041,17.04-1.766,35.841t-1.142,40.2H1716.2q-9.558-40.3-35.216-61.6t-65.134-21.294q-54.435,0-87.884,36.465t-33.45,96.3a154.448,154.448,0,0,0,10.492,56.617,152.774,152.774,0,0,0,30.437,48.511q19.946,21.609,49.032,33.348a165.528,165.528,0,0,0,62.538,11.737q20.774,0,27.736-6.427t6.96-27.589V290.581q0-25.3-12.05-35.779t-44.877-13.174v-7.687q17.034.332,33.346.579t32.515.252q16.62,0,32.723-.207t31.476-.624l.208,7.687q-19.321,2.493-25.867,11.1t-6.544,36.4v51.441Z" fill="#020203"/>
      <path d="M1805.481,259.779v-109.2q0-27.816-2.389-37.574t-8.622-14.743a56.107,56.107,0,0,0-17.868-9.238,99.94,99.94,0,0,0-23.893-4.05V77.287q13.5.418,28.879.623t46.539.208q31.58,0,47.267-.208t29.19-.623l.208,7.687q-34.9,1.041-47.058,13.912t-12.154,51.278V255.628q0,31.145,4.674,47.958a66.423,66.423,0,0,0,15.686,28.437q12.672,13.5,32.412,20.764t44.253,7.267q30.747,0,50.383-11.1t31.271-35.607q5.808-12.246,8.2-35.4t2.387-73.8q0-49.406-2.6-68.712t-8.823-28.654a44.73,44.73,0,0,0-20.573-16.086q-13.089-5.292-33.446-5.712V77.287q11.418.418,24.3.623t39.06.208q26.39,0,39.368-.208t24-.623v7.687h-.831q-25.143,0-34.489,19.309t-9.354,97.375q0,6.638-.2,19.928-.836,72.255-12.05,98.206-12.891,29.9-42.6,45.363t-73.961,15.468q-35.528,0-60.667-9.553t-39.06-28.446a82.993,82.993,0,0,1-13.4-29.689Q1805.482,296.114,1805.481,259.779Z" fill="#020203"/>
      <path d="M2112.063,373.766v-7.687q32.412-1.863,43.838-13.372t11.428-51.1V149.24q0-39.387-11.22-50.792t-44.046-13.474V77.287q12.878,0,38.543.416t38.33.415q12.67,0,37.711-.415t37.291-.416v7.687q-32.828,2.076-44.045,13.682t-11.22,50.584V301.606q0,39.393,11.326,51.1t43.939,13.372l-.207,7.687q-31.583-.623-47.057-.725t-28.985-.106q-13.507,0-28.985.106T2112.063,373.766Z" fill="#020203"/>
      <path d="M2280.8,373.766v-7.687q33.035-2.679,44.36-14.027t11.321-44.147V139.824q0-29.394-10.6-40.359t-40.514-14.491V77.287q35.733-.411,76.041-1.145t45.708-.725q93.076,0,145.851,40.514t52.772,110.946q0,68.98-50.381,108.555t-138.892,39.581q-17.041,0-62.851-.522T2280.8,373.766Zm96.61-77.911q0,41.349,13.3,54.951t49.655,13.611q50.07,0,81.859-35.943t31.788-93.909q0-70.015-45.814-109.7T2381.153,85.182h-3.74Z" fill="#020203"/>
      <path d="M2632.816,223.969q0-69.186,43.941-110.531t117.284-41.345q72.09,0,115.411,42.693t43.321,113.545q0,68.151-44.152,109.594t-117.073,41.451q-72.1,0-115.41-42.384T2632.816,223.969Zm50.7-6.026q0,65.658,31.58,107.1T2795.7,366.5q48.2,0,77.5-36.775t29.3-98.064a198.132,198.132,0,0,0-6.856-52.357q-6.856-25.137-19.53-44.254-17.042-25.759-38.33-38.228-21.3-12.465-48.307-12.466-47.583,0-76.767,36.774T2683.511,217.943Z" fill="#020203"/>
      <path d="M2951.787,373.766l-.207-7.687q32.822-1.658,44.77-21.439t11.949-81.723V181.3q0-5.589.208-14.91t.207-13.054q0-20.091-4.155-31.072a52.638,52.638,0,0,0-13.712-19.888,61.736,61.736,0,0,0-19.428-11.908,86.222,86.222,0,0,0-25.241-5.491V77.287q6.856,0,19.945.416t19.114.415q6.234,0,18.076-.415t17.244-.416l212.75,227.475V206.777q0-55.1-3.015-74.366t-10.7-28.583q-6.446-8.289-18.283-12.846t-29.3-6.008V77.287q11.22.418,24.1.623t37.606.208q24.513,0,36.257-.208t21.5-.623v7.687h-3.324q-22.65,0-31.686,22.788t-9.036,84.724v90.73q0,31.7.522,56.2t1.348,45.359h-2.493q-12.883-14.907-27.942-32.115t-16.727-19.106L3022.219,143.184v83.9q0,61.944,2.387,83.379t8.209,30.763q5.4,8.9,17.452,14.706t34.074,9.942v7.9h-1.247q-43.844-.828-65.445-.831-12.055,0-25.971.208T2951.787,373.766Z" fill="#020203"/>
    </g>
  </g>
</svg>
