<svg xmlns="http://www.w3.org/2000/svg" width="3294.984" height="504.346" viewBox="0 0 3294.984 504.346">
  <g>
    <path d="M136.074,46.327c.908,1.22-1.6,4.622-5.6,7.6s-7.98,4.4-8.889,3.182,1.6-4.622,5.6-7.6S135.165,45.107,136.074,46.327Z" fill="#194681"/>
    <path d="M131.446,46.833a5.822,5.822,0,1,1-5.822-5.822A5.821,5.821,0,0,1,131.446,46.833Z" fill="#194681"/>
    <path d="M461.205,47.239a5.822,5.822,0,1,0,5.822-5.822A5.823,5.823,0,0,0,461.205,47.239Z" fill="#194681"/>
    <path d="M99.539,329.583l-.886-.457a1.626,1.626,0,0,1-.792-1.661c.343-4.449.393-15.6-6.508-23.033-6.952-7.486-7.246-18.5-7.5-28.223-.053-1.97-.1-3.83-.2-5.613-.425-7.372-1.8-8.293-6.353-11.344-1.375-.921-3.086-2.067-5.055-3.605-9.8-7.645-8.9-41.935-7.471-53.561,2.5-20.268,6.222-33.7,11.068-39.935,7.2-9.258,10.535-16.868,9.668-18.042h0a.877.877,0,0,0-.272-.054c-5.975-.459-5.61-5.955-5.435-8.6.029-.431.057-.825.057-1.159,0-2.553,4.552-13.128,5.948-16.309C96.32,94.113,126.617,56.923,126.922,56.55l1.564-1.914.976,2.271C148.91,102.2,162.8,109.128,173.967,114.7c1.041.52,2.061,1.029,3.061,1.554l1.435.754-.862,1.373c-12.31,19.574-45.007,43.144-50.723,44.336l-.511.106.1.08.516.392c2.684,2.026,6.359,4.8,6.568,12.74.184,7-10.757,21.7-21.338,35.926-1.874,2.52-3.689,4.959-5.351,7.24-8.745,12-6.667,14.269-3.224,18.023.362.394.734.8,1.109,1.229,4.8,5.482,4.793,6.638-.087,24.734-3.7,13.725-2.762,17.623-.892,25.386.536,2.221,1.142,4.74,1.73,7.863,2.4,12.736-3.453,31.351-5.187,32.594ZM127.7,60.375C121.383,68.284,97.54,98.786,88.544,119.2c-2.738,6.241-5.694,13.791-5.694,15.1,0,.39-.03.853-.063,1.358-.243,3.649.075,5.206,2.671,5.406a3.152,3.152,0,0,1,2.8,1.855c2.232,5.047-8.791,19.448-10.055,21.074-4.446,5.716-8.063,19.016-10.46,38.46a150.421,150.421,0,0,0-.35,28.905c1.018,11.566,3.394,19.352,6.69,21.924,1.883,1.471,3.475,2.536,4.878,3.478,5.1,3.415,7.187,5.141,7.679,13.663.106,1.829.156,3.713.209,5.707.245,9.188.523,19.6,6.7,26.261,4.784,5.152,6.586,11.792,7.176,17.245,1.636-6.2,3.224-15.238,1.827-22.65-.574-3.049-1.171-5.527-1.7-7.715-1.927-8-2.989-12.4.912-26.87,4.7-17.433,4.552-17.6.725-21.976-.358-.41-.715-.8-1.062-1.178-4.453-4.853-6.689-8.5,3.01-21.815,1.668-2.29,3.489-4.738,5.369-7.265,9.313-12.519,20.9-28.1,20.746-34.058-.171-6.493-2.936-8.582-5.376-10.423l-.538-.409c-.48-.369-.91-.66-1.259-.9-.905-.612-1.84-1.244-1.606-2.431.255-1.292,1.237-1.5,4.489-2.175,4.369-.91,35.1-22.54,47.9-41.623-.508-.257-1.022-.512-1.541-.771C161.219,111.69,147.069,104.633,127.7,60.375Z" fill="#1a4580"/>
    <path d="M146.746,93.275s5.958,10.425-1.353,54.7c-12.187,9.478-14.082,10.832-14.082,10.832s4.6-22.476,4.062-42.244-8.53-57.95-8.53-57.95l1.24-1.114Z" fill="#194681"/>
    <path d="M114.386,75.537s11.374,34.527,8.53,86.113a46.849,46.849,0,0,1,6.906,7.718,11.622,11.622,0,0,0-9.749-3.25c-6.093.813-10.967,3.656-11.78-8.123s5.281-41.026-8.936-60.929C109.512,81.224,114.386,75.537,114.386,75.537Z" fill="#194681"/>
    <path d="M87.984,116.157s9.342,8.936,11.373,24.777.812,33.308,13.4,34.933,19.3.2,19.3.2l-7.109,16.857s-17.06,3.25-23.559-12.186S98.545,145,85.343,142.559c-5.889-2.031-3.994-8.259-3.994-8.259Z" fill="#194681"/>
    <path d="M83.516,153.933s7.311,4.874,8.936,25.184,21.934,27.214,21.934,27.214l-11.373,15.842s-10.155-9.749-12.592-18.685-1.625-28.027-19.5-26.4C72.548,169.368,80.672,158,83.516,153.933Z" fill="#194681"/>
    <path d="M68.08,187.24s10.155,13,14.623,23.153,18.279,27.215,18.279,27.215l5.28,5.281.407,6.905s-6.093-3.656-11.78-7.311-8.53-8.53-12.186-13.4-8.53-9.342-17.466-13.81A231.534,231.534,0,0,1,68.08,187.24Z" fill="#194681"/>
    <path d="M65.643,227.047s9.749,13.405,13.4,15.436,15.842,5.686,19.092,11.779,5.28,10.155,5.28,10.155l-2.843,14.623s-3.656-11.78-9.343-15.435-19.5-8.53-21.122-12.186S65.643,227.047,65.643,227.047Z" fill="#194681"/>
    <path d="M84.328,269.291s6.905,11.374,10.561,16.248,9.749,14.623,9.749,14.623l-1.219,13.81s-.812-10.154-5.687-13.4-11.779-6.5-11.779-8.124S84.328,269.291,84.328,269.291Z" fill="#194681"/>
    <path d="M296.767,359.894A108.069,108.069,0,1,1,404.835,251.825,108.192,108.192,0,0,1,296.767,359.894Zm0-210.137A102.069,102.069,0,1,0,398.835,251.825,102.184,102.184,0,0,0,296.767,149.757Z" fill="#1a4580"/>
    <path d="M297.039,349.714A97.616,97.616,0,1,1,394.655,252.1,97.726,97.726,0,0,1,297.039,349.714Zm0-193.232A95.616,95.616,0,1,0,392.655,252.1,95.724,95.724,0,0,0,297.039,156.482Z" fill="#1a4580"/>
    <path d="M516.619,345.419l-2.8-.935c.07-.462,6.832-46.427-4.151-65.648-4.483-7.844-10.455-15.478-16.229-22.86-8.908-11.387-16.6-21.221-16.6-29.064a76.29,76.29,0,0,1,2.1-15.975c1.057-5.049,1.969-9.411,1.184-12.946a60.22,60.22,0,0,0-1.713-6.016c-1.231-3.785-2.627-8.073-4-18.485-2.162-16.437-3.475-23.122-14.4-23.474-13.194-.426-21.471-3.446-45.352-30.566l-1.319-1.5,1.805-.85c.206-.1,20.755-9.917,31.758-26.158,17.292-25.527,18.152-33.443,18.159-33.52l.386-4.464,2.381,3.771c5.759,9.191,22.6,33.11,31.278,33.419l.135.005c12.2.435,14.6,1.111,17.943,19.916.7,3.924,1.475,8.89,2.376,14.641,3.3,21.082,7.825,49.955,13.887,62.837,4.209,8.945.346,21.941-2.926,30.938l-.11.3c-7.67,20.636-1.439,34.158,1.6,39.015,7.13,11.409,6.68,29.67-1.339,54.276A230.023,230.023,0,0,1,516.619,345.419ZM418.2,118.926c22.2,25.005,29.582,27.694,41.908,28.092,13.908.448,15.25,10.645,17.281,26.082,1.334,10.136,2.684,14.286,3.875,17.947a62.541,62.541,0,0,1,1.788,6.294c.926,4.166-.048,8.821-1.175,14.211a73.816,73.816,0,0,0-2.039,15.36c0,6.809,7.754,16.721,15.963,27.215,5.841,7.467,11.881,15.187,16.471,23.221,8.577,15.008,7.033,44.149,5.573,58.795,7.882-16.919,24.052-56.861,11.62-76.753-3.27-5.233-10-19.766-1.864-41.65l.1-.277c1.78-4.894,7.2-19.786,3.031-28.636-6.244-13.27-10.806-42.389-14.136-63.65-.9-5.735-1.674-10.687-2.366-14.579-3.025-17.014-4.167-17.055-15.1-17.444l-.135,0c-5.177-.184-12.456-6.168-21.636-17.782-4.331-5.478-8.1-10.986-10.233-14.2-1.6,4.559-5.938,14.032-17.745,31.461C439.722,106.89,423.574,116.121,418.2,118.926Z" fill="#1a4580"/>
    <path d="M443.084,98.675c2.05,3.317,6.237,8.018,10.631,6.387a7.433,7.433,0,0,0,4.717-7.22,13.821,13.821,0,0,0-2.751-7.036,25.413,25.413,0,0,0-3.173-3.794,2.25,2.25,0,0,0-3.182,3.182,25.111,25.111,0,0,1,2.043,2.293c.284.347-.326-.445-.058-.074.073.1.15.2.223.3q.191.26.373.525c.305.443.594.9.86,1.364a5.532,5.532,0,0,1,.683,1.35c-.007-.033-.2-.519-.068-.158.047.128.1.254.145.383.091.254.172.512.241.773.043.161.23.622.167.778.039-.1-.042-.523-.028-.21,0,.13.023.259.028.388.011.237,0,.47-.011.706-.014.432.068-.1.027-.154.044.057-.09.43-.109.5-.029.1-.067.2-.1.308-.089.305.07.179.056-.112.009.181-.274.5-.363.65-.229.4.038-.084.06-.055a3.118,3.118,0,0,1-.292.333q-.159.168-.33.324c-.1.09-.5.377-.05.064-.119.083-.237.163-.36.241l-.121.068q-.325.16.173-.057a1.85,1.85,0,0,1-.612.172c-.04-.06.644,0,.107-.034a1.827,1.827,0,0,0-.246-.005c-.43.043.524.15.109.019-.156-.05-.327-.085-.486-.126-.575-.148.355.224-.18-.066-.216-.117-.431-.229-.639-.361a4.148,4.148,0,0,1-.617-.43c.522.487-.169-.16-.29-.27a15.459,15.459,0,0,1-1.227-1.255c-.165-.187-.325-.378-.482-.571a2.123,2.123,0,0,0-.218-.272c.059-.01.353.469.088.111-.3-.4-.594-.806-.856-1.231a2.25,2.25,0,0,0-3.886,2.271Z" fill="#1a4580"/>
    <path d="M472.763,109.605a31.232,31.232,0,0,0-4.854-5.516,5.136,5.136,0,0,0-3.241-1.494,9.865,9.865,0,0,0-2.786.387,6.65,6.65,0,0,0-3.657,2.549,6.934,6.934,0,0,0-.745,5.4,11.933,11.933,0,0,0,3.281,5.685,10.713,10.713,0,0,0,5.248,3.152,6.5,6.5,0,0,0,6.274-2.2c1.9-2.374,1.753-5.326.48-7.963a2.264,2.264,0,0,0-3.079-.807,2.31,2.31,0,0,0-.807,3.079c.029.059.182.4.039.053.039.095.073.192.106.289a6.282,6.282,0,0,1,.191.659c.052.229.031.516.034.123,0,.226.01.457.014.684,0,.4.121-.41-.018.123a4.474,4.474,0,0,0-.126.449c-.041.285.206-.359.055-.115-.039.062-.066.136-.1.2s-.077.127-.113.192c-.229.413.062,0,.052-.033.015.043-.26.29-.3.327.015-.015-.208.205-.217.2-.026-.018.391-.242.165-.125-.151.079-.288.194-.439.277-.063.035-.139.062-.2.1-.212.141.5-.155.05-.024-.147.043-.291.093-.44.13-.038.009-.3.06-.3.063.006-.038.473-.01.258-.036a3.708,3.708,0,0,0-.447,0c-.348,0,.485.118,0,0-.163-.041-.325-.078-.485-.128-.086-.027-.609-.243-.3-.1s-.158-.083-.232-.121q-.292-.151-.573-.324c-.17-.1-.336-.214-.5-.329s-.393-.322-.1-.07c-.341-.3-.685-.587-1-.911-.281-.285-.541-.587-.8-.894.28.337-.055-.081-.144-.209q-.209-.3-.395-.616a10.078,10.078,0,0,1-.536-1.038c.182.4.006-.015-.054-.2s-.116-.383-.162-.578c-.017-.072-.159-.7-.082-.363.071.311-.015-.2-.02-.32-.007-.142-.008-.285,0-.428,0-.09.012-.179.016-.269.012-.34.012.182-.032.218.058-.047.069-.323.094-.41.084-.294.255-.318-.056.062a2.612,2.612,0,0,0,.369-.631c-.031.2-.382.414-.061.114.071-.066.144-.133.213-.2.315-.316-.39.238-.112.086.11-.061.213-.14.323-.2.083-.047.168-.087.252-.132.4-.213-.225.079-.153.058.218-.063.427-.152.647-.21.18-.048.362-.089.544-.122.091-.017.191-.022.279-.047-.145.041-.65.071-.262.038.272-.023.543-.046.816-.047.521,0,.1.009-.191-.046.35.067-.428-.252-.2-.085.074.053.165.091.243.139.1.063.2.141.3.2.184.112-.247-.2-.233-.183a1.588,1.588,0,0,0,.228.187,23.822,23.822,0,0,1,2.9,3.056c.366.44.722.889,1.077,1.339.19.241-.388-.509-.121-.155.045.059.09.117.134.176s.076.1.113.151a2.308,2.308,0,0,0,3.079.807A2.276,2.276,0,0,0,472.763,109.605Z" fill="#1a4580"/>
    <path d="M489.685,124.308a45.856,45.856,0,0,0-4.273-5.554,6.038,6.038,0,0,0-2.943-1.923,7.526,7.526,0,0,0-3.659.012,5.6,5.6,0,0,0-3.487,2.666,8.277,8.277,0,0,0-.553,5.766,12.425,12.425,0,0,0,3.083,5.448,9.764,9.764,0,0,0,4.772,3.018,6.57,6.57,0,0,0,6.148-1.876,6.8,6.8,0,0,0,1.139-7.019,2.3,2.3,0,0,0-2.768-1.572,2.277,2.277,0,0,0-1.571,2.768,11.354,11.354,0,0,1,.349,1.223c.064.255-.018-.128-.019-.156,0,.086.014.172.018.258.009.218-.028.441-.016.657.014.27-.007-.224.025-.21a1.961,1.961,0,0,1-.05.223,3.6,3.6,0,0,1-.158.5c-.045-.012.229-.406.077-.208a3.252,3.252,0,0,1-.215.369c-.093.217.354-.375.054-.063-.1.1-.189.206-.292.3-.051.047-.11.089-.159.138-.166.167.162-.151.177-.139-.011-.009-.369.223-.422.256-.421.253.29-.07-.052.031-.163.049-.322.1-.488.142-.072.017-.145.029-.216.046-.249.056-.02.043,0,0,.051-.084.246-.01,0-.011-.071,0-.142.007-.213.007a2.045,2.045,0,0,0-.247-.008c-.236.028.455.1.219.031-.1-.028-.825-.269-.85-.249.019-.015.41.206.2.083-.062-.038-.135-.065-.2-.1-.183-.093-.362-.2-.536-.3-.135-.085-.265-.178-.4-.266-.351-.232.259.227-.069-.049a11.921,11.921,0,0,1-.884-.813q-.215-.22-.417-.452c-.054-.062-.391-.456-.22-.252s-.015-.019-.041-.055c-.07-.1-.14-.193-.208-.291q-.177-.256-.339-.524c-.2-.327-.375-.665-.543-1.009-.191-.391.1.3-.042-.1-.075-.214-.151-.427-.213-.645q-.067-.24-.119-.485c-.017-.079-.025-.164-.046-.242-.069-.254.048.188.025.2.009,0-.047-1.085-.042-1.2,0-.081.012-.687.015-.3,0,.347.021-.06.048-.173.035-.145.085-.284.125-.427.1-.334-.251.444-.017.053.065-.108.136-.22.2-.331.164-.3-.341.352-.1.125.073-.068.142-.145.212-.217.339-.349-.3.163-.072.047.085-.043.162-.1.246-.151s.483-.223.073-.052c-.395.166-.056.024.041,0,.12-.033.238-.071.36-.1a2.44,2.44,0,0,0,.273-.054c.124-.044-.626.05-.234.034.208-.008.413-.024.622-.018.1,0,.2.012.3.017.375.018-.16,0-.274-.043.16.056.349.059.515.1a2.192,2.192,0,0,0,.4.127c.069,0-.531-.3-.34-.139a1.321,1.321,0,0,0,.237.145c.086.039-.456-.4-.182-.141.083.08.174.152.258.231.18.169.351.346.519.526.456.489.882,1,1.3,1.527.073.091.421.549.214.269s.1.138.161.213q.3.4.593.8c.444.606.881,1.217,1.3,1.839a2.251,2.251,0,1,0,3.886-2.272Z" fill="#1a4580"/>
    <path d="M499.8,144.669c-.456-2.1-.965-4.2-1.626-6.243a8.62,8.62,0,0,0-1.706-3.4,5.782,5.782,0,0,0-3.106-1.754c-4.372-.73-6.5,4.325-6.372,7.95a16.816,16.816,0,0,0,1.138,5.46,10.852,10.852,0,0,0,2.742,4.418,5.15,5.15,0,0,0,6.086.566c2.127-1.4,2.8-4,2.925-6.4a2.265,2.265,0,0,0-2.25-2.25,2.3,2.3,0,0,0-2.25,2.25c-.011.21-.027.419-.045.628,0,.039-.055.367-.01.1.049-.289-.024.106-.038.174-.074.376-.216.728-.3,1.1.079-.332.1-.2-.027.04-.077.15-.189.289-.26.44-.1.2.111-.171.145-.177-.03,0-.107.127-.132.151-.046.044-.1.092-.137.14-.223.259.113-.144.163-.108,0,0-.288.178-.313.2-.287.2.5-.167.03-.026a1.785,1.785,0,0,1-.178.042c-.014-.046.526-.008.291-.04-.033,0-.449,0-.448,0,.017-.053.565.116.061-.013-.119-.031-.659-.225-.238-.061.385.15.057,0-.04-.051-.376-.211.291.3.065.055-.181-.192-.364-.391-.548-.579-.155-.158.149.181.148.192,0-.034-.1-.14-.12-.169-.091-.141-.185-.278-.272-.421-.173-.284-.33-.576-.476-.874-.07-.144-.13-.294-.2-.436-.115-.223.061.149.065.16-.04-.1-.083-.206-.123-.309a16.166,16.166,0,0,1-.653-2.127c-.085-.362-.154-.727-.216-1.094a2.111,2.111,0,0,1-.038-.251c0,.007.04.443.028.182-.008-.191-.039-.383-.051-.574-.022-.342-.03-.685-.019-1.028,0-.151.017-.3.027-.451.033-.524-.077.315,0-.045a8.864,8.864,0,0,1,.266-.983c.033-.095.24-.6.152-.414s.157-.3.21-.393c.091-.163.206-.311.3-.472.122-.212-.109.175-.131.171.014,0,.119-.134.135-.148.071-.065.4-.347.092-.112s.066-.012.145-.067c.278-.192-.545.193-.114.063.372-.112-.327,0-.223.017a1.035,1.035,0,0,0,.278,0c.161-.031-.358-.051-.369-.056a1.274,1.274,0,0,0,.18.035,2.625,2.625,0,0,0,.307.091c.116.019-.531-.272-.2-.084.169.1.336.19.5.294.361.228-.222-.195-.15-.12.054.057.123.105.182.159.115.1.212.229.326.335.217.2-.333-.554-.182-.234.03.064.076.126.111.188s.075.151.114.227c.165.325.015.11-.051-.135.135.5.367.995.524,1.493.616,1.966,1.107,3.977,1.545,5.989a2.267,2.267,0,0,0,2.768,1.572A2.3,2.3,0,0,0,499.8,144.669Z" fill="#1a4580"/>
    <path d="M507.19,169.91c-.262-2.318-.577-4.635-.968-6.934-.407-2.386-.739-5.957-3.523-6.769-4.215-1.23-5.422,4.5-5.7,7.418a33.538,33.538,0,0,0-.085,4.89,19.077,19.077,0,0,0,.979,5.8,4.971,4.971,0,0,0,2.09,2.861,3.675,3.675,0,0,0,3.67-.2c2.334-1.452,3.38-4.45,3.536-7.06a2.25,2.25,0,0,0-4.5,0c0-.006-.089.772-.023.36a6.826,6.826,0,0,1-.151.692c-.059.224-.134.44-.205.659-.2.63.189-.286-.12.277-.166.3-.33.6-.523.885.271-.4-.057.059-.118.123-.079.084-.161.163-.246.24.247-.177.274-.2.079-.062l-.127.077q-.261.132.017,0l.143-.063c-.24.059-.164.055.228-.014-.339.022.454.107.556.17l.243.2c-.161-.163-.141-.122.06.125a6.9,6.9,0,0,1-.371-.7c.246.541.019.009-.016-.095-.077-.228-.145-.46-.206-.693-.09-.34-.163-.684-.228-1.03-.03-.163-.054-.327-.084-.49-.116-.657.042.462-.029-.208-.088-.822-.152-1.642-.179-2.468a34.634,34.634,0,0,1,.087-4.024c.019-.226.069-.463.07-.69,0,.937-.008.084.031-.146q.065-.382.145-.763c.078-.36.167-.718.277-1.07.056-.179.122-.353.183-.53-.191.551.032-.05.1-.172a3.2,3.2,0,0,0,.172-.278c.112-.261-.373.429-.105.142.147-.157.4-.268-.167.1.2-.13.369-.121-.249.073.462-.145-.628-.009-.172.014-.736-.037-.54-.1-.326-.032.311.093-.609-.322-.218-.08.289.18-.481-.406-.223-.178a1.33,1.33,0,0,1,.132.128c.272.307-.375-.576-.1-.111.22.373-.2-.619,0,.016.067.214.134.428.192.644.3,1.114.5,2.257.693,3.393q.178,1.066.333,2.136c.053.361.1.722.153,1.083.02.145.124.655,0-.023.024.133.035.27.053.4.086.657.169,1.315.243,1.974a2.318,2.318,0,0,0,2.25,2.25A2.264,2.264,0,0,0,507.19,169.91Z" fill="#1a4580"/>
    <path d="M451.479,100.774a37.276,37.276,0,0,0,6.748,6.957,15.464,15.464,0,0,0,3.131,1.974,2.448,2.448,0,0,0,1.734.227,2.25,2.25,0,0,0,.538-4.112,11.991,11.991,0,0,1-1.609-.878c-.272-.175-.539-.359-.8-.549-.134-.1-.262-.2-.4-.3.587.414.091.067-.034-.034a31.958,31.958,0,0,1-2.867-2.664q-1.08-1.123-2.079-2.32-.3-.364-.6-.736c-.056-.069-.11-.14-.166-.209-.174-.222.445.578.286.369a2.469,2.469,0,0,0-1.345-1.034,2.3,2.3,0,0,0-1.734.227,2.272,2.272,0,0,0-.807,3.078Z" fill="#1a4580"/>
    <path d="M468.264,117.017c3.616,2.215,7.219,4.475,10.695,6.905a2.262,2.262,0,0,0,3.079-.807,2.31,2.31,0,0,0-.807-3.079c-3.477-2.429-7.08-4.69-10.7-6.905a2.25,2.25,0,1,0-2.271,3.886Z" fill="#1a4580"/>
    <path d="M483.65,129.8c.827.856,1.6,1.771,2.347,2.695q.261.321.517.646c.083.1.164.212.247.317-.414-.524-.06-.077.028.041q.582.768,1.135,1.558a42.078,42.078,0,0,1,2.278,3.631,2.25,2.25,0,1,0,3.885-2.272,49.5,49.5,0,0,0-4.83-7.008c-.774-.957-1.57-1.9-2.425-2.79a2.25,2.25,0,1,0-3.182,3.182Z" fill="#1a4580"/>
    <path d="M494.21,149.431c.067.072.131.147.195.222s.141.167.209.252c.047.058.091.118.139.175.211.254-.379-.512-.173-.223a29.25,29.25,0,0,1,1.614,2.47q.483.849.9,1.734.142.3.278.6c.051.113.259.6.049.1q.246.59.466,1.189a30.333,30.333,0,0,1,1.427,5.484,2.258,2.258,0,0,0,2.768,1.571,2.314,2.314,0,0,0,1.571-2.767,30.815,30.815,0,0,0-3.578-10.185,20.094,20.094,0,0,0-2.687-3.806,2.269,2.269,0,0,0-3.182,0,2.3,2.3,0,0,0,0,3.182Z" fill="#1a4580"/>
    <g>
      <path d="M488.8,163.076s-.9-2.324-2.21-2.23c.351,3.336.389,3.687.611,5.792s.241,6.016,1.1,12.907,3.869,24.134.856,40.481c-1.984,2.425-3.432,3.659-3.326-1.567s1.272-30.3-.15-33.809-4.105-5.209-5.568-5.334a19.109,19.109,0,0,1,3.609,10.479c.069,1.887-.258,26.217-.035,28.323s.538,8.822,3.872,5.472c.544,3.907.7,4.124,2.209,5.963s.239,6.015-.826,8.391,3.308,10.57,4.02,12.324,5.179,5.382,7.717.609c1.562-3.914-3.567-.754-3.859-1.015s-2.944-.2-6.068-7.273c2.892-5.016,4-10.775,3.365-13.011s-3.543-4.859-3.543-4.859,3.506-2.958,4.417-1.82,1.914,3.155.823,6.541c1.572,1.178,4.88,2.569,5.511,4.806s2.7.692,2.739-1.5a6.155,6.155,0,0,0-3.582-5.21c-1.634-.52-1.181-1.225-.7-4.125s-.644-11.061-7.977-3.215c.564-3.384,6.357-22.071,3.622-35.5,1.809-2.818,3.743-7.9,3.93-9.878s-1.015-9.038-1.015-9.038-1.248,13.507-3.528,16.854c-.86-3.159-2.4-6.532-2.476-7.235s-.457-5.575-.457-5.575,3.277-3.877,3.791-5.241,1.549-5.278.589-4.394-2.709,3.043-3.409,2.65S491.206,160.958,488.8,163.076Z" fill="#194681"/>
      <path d="M509.753,136.755a24.461,24.461,0,0,1,1.321-6.2c.352,3.336.391,3.687.613,5.794s.945,5.221,1.571,12.375,1.513,26.78,6.976,33.607c2.019-2.073,3.393-4.009,2.322-7.914s-5.851-21.311-6.269-26.936a30.964,30.964,0,0,1,1.855-13.455c-.542,8.53.356,11.952.66,13.577s5.156,20.132,5.378,22.239,1.244,8.031-2.015,12.086c.309,4.17.229,4.653-.614,9.135s.948,5.221,2.236,4.952,1.038,13.565.808,16.377-1.29,11.465-5.748,14.119c-1.97.054,1.276-5.36,1.456-6.154a47.142,47.142,0,0,0,2.937-17.049c-3.227,1.857-5.184-.46-5.108-3.491S520,188.877,520,188.877s-3.321,4.712-3.824,7.437-.91,6.329.589,6.805c-1.017,4.088-3.36,11.826-3.434,14.856s-2,5.979-2.441,4.313.645-7.6,1.836-11.294.7-3.338-.231-4.651-1.581-10.008,5.677-18.556c-1.084-1.531-9.176-4.616-9.559-20.686-1.958,1.415-4.15,3.092-4.672,1.909a27.91,27.91,0,0,1-1.008-4.562s3.344,1.741,5.772-.2c.081-4.216.658-9.972.584-10.673s-.692-5.311-.692-5.311-3.315,3.527-3.977,3.485-2.219-1.043-1.3-2.277,2.708-3.043,3.184-4.757A21.162,21.162,0,0,1,509.753,136.755Z" fill="#194681"/>
    </g>
    <path d="M499.05,187.207s8.395-4.841,10.426-6.736.406,3.655.406,3.655a46.739,46.739,0,0,1,1.659,10.087c.1,14.42-2.336,18.076-6.94,19.972,0,0-6.1,2.166-6.633-8.936-.441-9.208,1.489-13.98,1.489-13.98S497.02,188.019,499.05,187.207Z" fill="#194681"/>
    <path d="M495.192,186.293s2.945,1.625,4.874,1.625-.609,2.335-.609,2.335a39.648,39.648,0,0,1-4.468-2.539l-.813-.71,1.117-1.219Z" fill="#194681"/>
    <path d="M456.83,46.327c-.908,1.22,1.6,4.622,5.6,7.6s7.98,4.4,8.889,3.182-1.6-4.622-5.6-7.6S457.739,45.107,456.83,46.327Z" fill="#194681"/>
    <polygon points="265.46 169.477 265.46 169.477 259.59 170.794 254.536 172.645 250.004 174.755 246.004 177.141 242.804 180.048 239.873 183.217 237.478 186.383 235.348 190.086 233.747 194.047 232.413 198.02 231.62 202.246 231.088 206.469 230.815 211.228 230.551 215.724 230.815 220.482 231.088 225.236 231.88 235.015 233.217 244.528 234.543 253.781 235.348 262.763 235.608 266.989 235.877 271.222 235.608 274.922 235.348 278.622 234.812 282.053 234.011 285.222 232.685 287.867 231.088 290.51 231.088 290.51 229.75 289.715 228.149 288.66 226.554 286.551 224.681 284.166 223.888 282.315 223.087 280.465 222.551 278.352 222.022 276.238 221.485 273.594 221.225 270.688 221.225 267.52 221.225 264.079 221.225 264.079 218.018 264.614 216.424 265.135 215.095 265.67 214.029 266.204 212.964 266.989 212.159 268.052 211.627 268.837 210.562 271.222 210.025 273.594 209.768 276.238 210.298 279.147 210.83 282.053 211.899 284.961 213.225 287.867 214.562 291.034 216.424 293.68 218.29 296.589 220.16 298.969 222.29 301.082 222.29 301.082 229.478 298.439 235.608 295.529 238.271 294.213 240.406 292.625 242.544 291.034 244.406 289.455 246.004 287.867 247.601 286.016 248.666 284.436 249.732 282.586 250.536 280.737 251.069 278.887 252.134 274.922 252.406 270.958 252.134 266.464 251.87 261.968 251.069 256.95 249.471 246.378 248.666 240.564 248.13 234.49 248.13 234.49 247.873 232.64 247.336 227.351 247.065 219.423 247.336 214.928 247.601 209.908 248.13 204.619 249.195 199.34 250.536 193.787 252.406 188.508 254.801 183.217 256.134 180.843 257.732 178.458 259.333 176.085 261.192 173.7 263.33 171.589 265.46 169.477 265.46 169.477 265.46 169.477" fill="#194681"/>
    <polygon points="308.37 305.578 308.37 305.578 308.37 301.877 308.634 298.439 309.695 291.83 311.025 285.491 312.895 279.942 316.635 269.368 318.485 264.35 320.09 259.595 321.156 254.567 321.416 252.192 321.416 249.816 321.416 247.433 321.156 244.788 320.895 242.154 320.09 239.509 319.025 236.863 317.961 233.956 316.354 231.05 314.5 228.146 312.35 224.976 309.956 221.798 307.025 218.367 303.565 214.668 303.565 214.668 296.369 220.482 288.637 226.292 279.583 232.64 279.583 232.64 279.315 223.386 279.583 213.873 280.115 202.778 280.376 197.225 281.181 191.936 282.247 186.917 283.311 182.424 284.909 178.458 285.715 176.88 286.779 175.55 287.844 174.495 288.91 173.439 290.239 172.905 291.577 172.905 291.577 172.905 292.641 173.974 293.974 175.03 295.565 176.085 297.434 177.141 299.304 177.934 301.435 178.458 303.83 178.719 305.96 178.989 308.37 178.719 310.76 178.198 313.156 177.141 315.83 175.815 318.221 173.974 320.611 171.589 323.025 168.421 325.156 164.981 325.156 164.981 323.286 165.776 321.416 166.571 319.546 166.831 317.701 167.366 313.96 167.366 310.5 167.091 306.765 166.036 303.305 164.72 299.825 163.132 296.369 161.282 296.369 161.282 292.369 162.868 288.91 164.72 285.442 166.831 282.247 169.216 279.583 171.85 276.92 174.755 274.791 178.198 272.66 181.638 271.05 185.597 269.452 189.824 268.388 194.582 267.591 199.34 266.79 204.619 266.526 210.442 266.526 216.516 266.79 222.853 266.79 222.853 268.656 250.081 269.192 264.35 269.721 278.352 269.721 284.961 269.721 291.305 269.192 297.384 268.656 302.672 267.855 307.691 266.79 311.916 265.46 315.355 264.66 316.671 263.866 318 263.866 318 260.399 315.876 257.46 314.027 254.536 312.711 252.134 311.652 250.004 310.857 247.873 310.337 246.004 310.066 244.406 310.066 242.544 310.337 241.206 310.857 238.271 311.916 232.153 314.82 232.153 314.82 235.348 315.876 238.271 316.935 240.674 318.525 242.804 320.111 246.272 323.279 247.873 324.599 249.471 325.925 251.069 326.982 252.663 327.503 254.801 327.775 257.195 327.242 259.863 326.449 262.801 324.599 266.526 322.224 270.786 318.786 270.786 318.786 272.387 317.205 273.985 315.615 275.322 314.027 276.648 312.187 278.779 308.214 280.376 303.988 281.442 299.494 282.247 295.008 282.783 290.25 282.783 285.491 282.783 280.997 282.518 276.502 281.974 268.052 280.909 260.651 280.376 255.36 280.376 255.36 279.843 239.769 279.843 239.769 281.181 238.454 282.518 236.863 284.377 235.808 285.978 234.75 287.844 233.956 289.706 233.695 291.577 233.956 293.442 234.49 295.043 235.808 296.913 237.658 298.239 240.304 299.825 243.732 300.914 247.968 301.956 253.247 302.764 259.595 303.305 266.989 303.305 266.989 303.565 272.018 303.565 277.032 303.044 285.222 302.499 292.1 301.435 298.174 300.914 303.193 300.369 308.214 300.369 310.857 300.635 313.242 300.914 315.876 301.435 318.786 301.435 318.786 303.044 324.869 303.83 327.775 304.895 330.149 305.96 332.263 307.305 334.112 308.37 335.702 309.956 337.018 311.286 338.077 312.895 338.608 314.5 338.872 316.09 338.872 317.961 338.348 319.826 337.552 321.96 336.233 324.091 334.382 324.091 334.382 326.486 332.263 327.552 330.683 328.091 330.149 328.091 329.353 328.091 328.833 327.812 328.298 327.026 327.503 325.681 326.982 321.68 325.394 319.546 324.335 317.156 323.279 315.025 321.689 312.895 319.58 311.025 317.205 310.22 315.615 309.435 314.027 308.894 312.187 308.634 310.337 308.37 307.951 308.37 305.578 308.37 305.578 308.37 305.578" fill="#194681"/>
    <polygon points="365.663 245.323 365.119 245.323 365.119 245.323 360.337 241.622 357.663 239.248 355.268 236.603 352.597 233.956 350.202 231.05 348.072 227.881 346.202 224.706 344.616 221.537 343.532 218.367 342.746 215.189 342.746 212.023 343.007 210.442 343.271 208.854 343.812 207.525 344.616 205.945 345.682 204.357 346.743 203.039 348.072 201.711 349.662 200.395 349.662 200.395 353.403 202.246 357.138 204.889 360.859 208.059 364.598 211.758 368.054 215.984 369.663 218.367 370.992 220.742 372.318 223.386 373.384 226.031 374.449 228.666 375.25 231.584 375.25 231.584 376.053 229.994 376.859 228.406 377.644 225.236 377.924 221.798 377.924 218.367 377.123 215.189 376.053 211.758 374.449 208.32 372.318 205.149 369.923 201.985 367.534 198.805 364.598 195.901 361.403 193.262 358.203 190.618 354.728 188.234 351.271 186.123 347.812 184.272 347.812 184.272 344.616 188.768 341.941 192.992 339.547 196.955 337.678 200.655 335.811 204.357 334.485 207.799 333.137 211.228 332.351 214.404 331.811 217.572 331.287 220.482 331.007 223.125 331.007 225.761 331.287 228.146 331.551 230.515 332.071 232.9 332.876 235.015 334.485 238.714 336.616 242.154 338.746 245.323 341.138 247.968 343.812 250.081 345.942 252.192 349.662 255.099 349.662 255.099 353.142 258.266 356.072 261.443 358.467 264.874 360.598 268.052 362.187 271.483 363.796 274.922 364.859 278.352 365.663 281.791 366.183 284.961 366.183 288.129 366.183 291.034 365.923 293.942 365.399 296.589 364.598 298.969 363.796 301.082 362.728 302.933 361.403 304.522 360.057 305.838 358.467 306.633 356.858 306.896 355.268 306.896 353.403 306.363 351.532 305.578 349.662 303.988 347.812 302.137 345.942 299.494 344.075 296.324 342.206 292.364 340.332 287.867 338.482 282.846 336.877 276.772 335.29 270.163 335.29 270.163 334.221 273.868 333.421 277.828 333.137 282.053 333.137 286.551 333.682 291.034 334.485 295.529 335.551 300.026 336.877 304.252 338.482 308.214 340.332 311.652 342.467 314.82 344.616 317.466 345.682 318.26 347.008 319.316 348.072 319.851 349.402 320.374 350.727 320.634 352.072 320.634 353.403 320.374 354.728 319.851 354.728 319.851 357.138 318.525 359.793 316.671 362.993 314.3 366.183 311.392 369.384 307.951 372.583 303.988 375.514 299.494 378.188 294.736 379.254 292.1 380.058 289.455 380.843 286.811 381.384 283.905 381.648 280.997 381.648 278.092 381.384 275.182 381.123 272.018 380.319 268.837 379.254 265.67 377.924 262.229 376.319 259.061 374.184 255.63 371.797 252.192 368.859 248.754 365.663 245.323 365.663 245.323 365.663 245.323" fill="#194681"/>
    <g>
      <g>
        <path d="M261.928,424.507v-.675a9.832,9.832,0,0,0,2.975-.538,3.525,3.525,0,0,0,1.734-1.282,5.384,5.384,0,0,0,.511-2.193q.145-1.629.146-5.3v-7.862a33.373,33.373,0,0,0-.192-4.385,3.689,3.689,0,0,0-.666-1.8,3.541,3.541,0,0,0-1.661-.928,12.14,12.14,0,0,0-2.847-.491v-.713q.711.019,1.57.028t2.536.009q2.063,0,3.076-.009t1.852-.046q-.127,1.925-.191,3.381t-.064,2.353v12.63a27.513,27.513,0,0,0,.21,4.24,3.277,3.277,0,0,0,.72,1.656,3.8,3.8,0,0,0,1.7.891,12.168,12.168,0,0,0,2.811.365v.675q-2.9-.055-4.362-.065t-2.72-.008q-1.258,0-2.719.008T261.928,424.507Z" fill="#194681"/>
        <path d="M280.379,425.437l-.365-.784a27.584,27.584,0,0,0,7.438-5.138,16.376,16.376,0,0,0,3.987-6.451,12.39,12.39,0,0,1-2.737,1.213,9.48,9.48,0,0,1-2.683.392,7.388,7.388,0,0,1-7.739-7.775,8.564,8.564,0,0,1,2.546-6.4,8.968,8.968,0,0,1,6.543-2.491,8.874,8.874,0,0,1,6.662,2.491,9.4,9.4,0,0,1,2.427,6.854,15.837,15.837,0,0,1-4.225,10.8A26.547,26.547,0,0,1,280.379,425.437ZM291.822,411.8a21.353,21.353,0,0,0,.448-2.318,16.86,16.86,0,0,0,.155-2.245,11.155,11.155,0,0,0-1.405-6.013,4.307,4.307,0,0,0-3.8-2.218,4.5,4.5,0,0,0-3.75,1.834,9.058,9.058,0,0,0,.374,10.266,5.83,5.83,0,0,0,4.617,2.063,4.758,4.758,0,0,0,1.825-.338A4.822,4.822,0,0,0,291.822,411.8Z" fill="#194681"/>
        <path d="M298.118,424.58l-.255-.529a60.383,60.383,0,0,0,9.618-9.783q3.048-4.2,3.048-7.592a6.048,6.048,0,0,0-1.259-4.062,4.349,4.349,0,0,0-3.486-1.469,6.327,6.327,0,0,0-3.149.885,11.762,11.762,0,0,0-3.057,2.638l-.565-.457a13.466,13.466,0,0,1,3.668-4.645,7.528,7.528,0,0,1,4.6-1.487,6.5,6.5,0,0,1,4.936,2.108,7.392,7.392,0,0,1,1.98,5.265q0,3.378-2.874,7.255a50.518,50.518,0,0,1-9.007,8.77l6.644-.073a16.645,16.645,0,0,0,2.81-.164,2.975,2.975,0,0,0,1.314-.548,8.541,8.541,0,0,0,1.232-1.4,25.7,25.7,0,0,0,1.451-2.272l.639.31-2.811,7.173q-2.52-.037-3.924-.055t-2.609-.018q-2.465,0-4.673.036T298.118,424.58Z" fill="#194681"/>
        <path d="M319.668,425.437l-.365-.784a27.578,27.578,0,0,0,7.437-5.138,16.379,16.379,0,0,0,3.988-6.451,12.376,12.376,0,0,1-2.738,1.213,9.462,9.462,0,0,1-2.682.392,7.388,7.388,0,0,1-7.739-7.775,8.561,8.561,0,0,1,2.547-6.4,9.994,9.994,0,0,1,13.2,0,9.4,9.4,0,0,1,2.427,6.854,15.837,15.837,0,0,1-4.225,10.8A26.553,26.553,0,0,1,319.668,425.437ZM331.111,411.8a21.353,21.353,0,0,0,.448-2.318,16.856,16.856,0,0,0,.154-2.245,11.146,11.146,0,0,0-1.405-6.013,4.3,4.3,0,0,0-3.8-2.218,4.5,4.5,0,0,0-3.751,1.834,9.06,9.06,0,0,0,.375,10.266,5.828,5.828,0,0,0,4.617,2.063,4.766,4.766,0,0,0,1.826-.338A4.829,4.829,0,0,0,331.111,411.8Z" fill="#194681"/>
      </g>
      <rect x="222.505" y="412.032" width="26.996" height="1" fill="#194681"/>
      <rect x="349.84" y="412.032" width="26.997" height="1" fill="#194681"/>
      <g>
        <path d="M222.915,390.344l-.014-.525a4.549,4.549,0,0,0,2.91-.891q.725-.749.724-3.5V375.112q0-2.786-.695-3.564a4.275,4.275,0,0,0-2.769-.978v-.526q1.377,0,3.819.029t3.506.028q1.832,0,3.755-.014t4.45-.043l-.44,4.741h-.426a3.855,3.855,0,0,0-1.214-3.094q-1.128-.852-4.379-.852h-2.867v8.83h3.335a5.335,5.335,0,0,0,3.095-.71,2.834,2.834,0,0,0,1.065-2.285l.468.014q-.07,1.391-.106,2.619t-.036,2.377q0,.967.008,1.463t.006.922h-.425a2.87,2.87,0,0,0-.923-2.4,5.039,5.039,0,0,0-3.066-.723h-3.421v4.338q0,2.655.851,3.474t3.535,1.06v.525h-.17q-3.606-.057-5.352-.057-.966,0-2.065.014Z" fill="#194681"/>
        <path d="M240.225,380.109a9.879,9.879,0,0,1,3-7.552,11.22,11.22,0,0,1,8.013-2.825,10.748,10.748,0,0,1,7.886,2.917,10.4,10.4,0,0,1,2.959,7.758,9.789,9.789,0,0,1-3.016,7.488,11.212,11.212,0,0,1-8,2.832,10.794,10.794,0,0,1-7.886-2.9A10.312,10.312,0,0,1,240.225,380.109Zm3.464-.412a11.739,11.739,0,0,0,2.157,7.318,6.639,6.639,0,0,0,5.508,2.832,6.439,6.439,0,0,0,5.295-2.512,10.452,10.452,0,0,0,2-6.7,13.549,13.549,0,0,0-.468-3.577,10.345,10.345,0,0,0-1.335-3.024,8.119,8.119,0,0,0-2.618-2.611,6.763,6.763,0,0,0-8.546,1.66A10.326,10.326,0,0,0,243.689,379.7Z" fill="#194681"/>
        <path d="M265.842,382.556V375.1a13.038,13.038,0,0,0-.163-2.567,1.793,1.793,0,0,0-.589-1.008,3.842,3.842,0,0,0-1.221-.631,6.852,6.852,0,0,0-1.633-.277v-.525q.923.029,1.973.042t3.18.015q2.157,0,3.229-.015t2-.042l.014.525a4.619,4.619,0,0,0-3.215.951q-.831.879-.831,3.5v7.206a12.909,12.909,0,0,0,.32,3.277,4.539,4.539,0,0,0,1.072,1.943,5.653,5.653,0,0,0,2.214,1.418,8.7,8.7,0,0,0,3.024.5,6.938,6.938,0,0,0,3.442-.759,5.283,5.283,0,0,0,2.136-2.433,7.687,7.687,0,0,0,.561-2.418q.163-1.581.163-5.043a41.346,41.346,0,0,0-.177-4.694,4.763,4.763,0,0,0-.6-1.958,3.046,3.046,0,0,0-1.405-1.1,6.543,6.543,0,0,0-2.285-.39v-.525c.52.019,1.074.034,1.661.042s1.476.015,2.668.015,2.1,0,2.69-.015,1.138-.023,1.64-.042v.525h-.057a2.376,2.376,0,0,0-2.356,1.32q-.639,1.318-.639,6.653,0,.453-.014,1.361-.057,4.937-.824,6.709a6.16,6.16,0,0,1-2.91,3.1,10.869,10.869,0,0,1-5.053,1.056,11.721,11.721,0,0,1-4.145-.652,5.746,5.746,0,0,1-2.669-1.944,5.65,5.65,0,0,1-.915-2.029A17.026,17.026,0,0,1,265.842,382.556Z" fill="#194681"/>
        <path d="M287.088,390.344l-.015-.525a3.5,3.5,0,0,0,3.06-1.465q.815-1.352.816-5.584v-5.577c0-.254,0-.594.014-1.018s.014-.722.014-.892a6.238,6.238,0,0,0-.284-2.123,3.6,3.6,0,0,0-.937-1.359,4.205,4.205,0,0,0-1.327-.814,5.91,5.91,0,0,0-1.725-.375v-.525q.469,0,1.363.028t1.306.029q.426,0,1.235-.029t1.178-.028l14.536,15.542v-6.694a40.084,40.084,0,0,0-.206-5.082,4.051,4.051,0,0,0-.731-1.953,2.806,2.806,0,0,0-1.249-.877,7.3,7.3,0,0,0-2-.411v-.525c.512.019,1.06.034,1.647.042s1.443.015,2.57.015,1.942,0,2.477-.015,1.024-.023,1.469-.042v.525h-.227a2.194,2.194,0,0,0-2.166,1.557,18.085,18.085,0,0,0-.617,5.789v6.2q0,2.166.036,3.84t.093,3.1h-.172q-.879-1.017-1.909-2.195l-1.142-1.305L291.9,374.59v5.731q0,4.233.163,5.7a5.281,5.281,0,0,0,.561,2.1,2.712,2.712,0,0,0,1.192,1,9.721,9.721,0,0,0,2.328.679v.54h-.085q-3-.057-4.471-.057-.824,0-1.775.014T287.088,390.344Z" fill="#194681"/>
        <path d="M311.722,390.344v-.525a4.94,4.94,0,0,0,3.03-.959,4.332,4.332,0,0,0,.775-3.016V374.359a3.983,3.983,0,0,0-.725-2.757,4.651,4.651,0,0,0-2.768-.99v-.525q2.442-.029,5.195-.078t3.124-.049q6.358,0,9.965,2.768a9.035,9.035,0,0,1,3.606,7.58,8.917,8.917,0,0,1-3.443,7.417q-3.442,2.7-9.49,2.7-1.164,0-4.293-.035T311.722,390.344Zm6.6-5.324q0,2.826.909,3.755t3.392.93a7.125,7.125,0,0,0,5.593-2.456,10.549,10.549,0,0,0-.958-13.911q-3.13-2.712-8.68-2.711h-.256Z" fill="#194681"/>
        <path d="M334.259,390.344v-.525a5.778,5.778,0,0,0,3.08-.987q.751-.7.752-3.017V374.672q0-2.445-.745-3.23a4.034,4.034,0,0,0-2.775-.872v-.526q1.419.035,3.023.046t4.657.011q3.563,0,5.216-.011t2.974-.031q-.129.964-.22,2.072t-.177,2.541H349.6A3.921,3.921,0,0,0,348.4,371.7a6.328,6.328,0,0,0-3.762-.83h-3.8v8.375h2.924a6.387,6.387,0,0,0,3.314-.611,3.08,3.08,0,0,0,1.171-2.214h.469q0,.795-.064,2.5t-.063,2.655v1.675h-.427a2.642,2.642,0,0,0-1.078-2.122,6.477,6.477,0,0,0-3.294-.6h-2.952v5.167q0,2.37.965,3.123t3.762.752A5.955,5.955,0,0,0,349.6,388.3a6.6,6.6,0,0,0,1.952-3.917l.469.056a24.314,24.314,0,0,1-.362,3.145,18.453,18.453,0,0,1-.746,2.818q-2.056-.057-4.5-.086t-5.323-.028q-2.682,0-4.117.014T334.259,390.344Z" fill="#194681"/>
        <path d="M353.292,390.344v-.525a4.94,4.94,0,0,0,3.03-.959,4.332,4.332,0,0,0,.775-3.016V374.359a3.988,3.988,0,0,0-.725-2.757,4.651,4.651,0,0,0-2.768-.99v-.525q2.44-.029,5.2-.078t3.122-.049q6.36,0,9.966,2.768a9.037,9.037,0,0,1,3.605,7.58,8.919,8.919,0,0,1-3.442,7.417q-3.443,2.7-9.49,2.7-1.164,0-4.294-.035T353.292,390.344Zm6.6-5.324q0,2.826.909,3.755t3.393.93a7.125,7.125,0,0,0,5.593-2.456,10.551,10.551,0,0,0-.959-13.911q-3.129-2.712-8.68-2.711h-.256Z" fill="#194681"/>
      </g>
    </g>
    <path d="M231.833,332.092c-.42-.389-.652-.615-.778-.747-.117-.087-.256-.191-.425-.319-1.119-.85-2.193-1.683-3.229-2.6L122.1,457.358l.08.08a5.784,5.784,0,1,0,9.123,6.728L237.37,334.813A10.663,10.663,0,0,1,231.833,332.092Z" fill="#194681"/>
    <path d="M226.959,171.558a10.334,10.334,0,0,1,5.354-2.745L133.139,47.375,124.2,55.093l99.973,121.926A9.623,9.623,0,0,1,226.959,171.558Z" fill="#194681"/>
    <path d="M365.558,172.371a9.448,9.448,0,0,1,2.761,5.244L468.448,55.5l-8.936-7.718-99.49,121.825A10.616,10.616,0,0,1,365.558,172.371Z" fill="#194681"/>
    <path d="M469.521,457.438l.081-.08L364.721,328.933a9.24,9.24,0,0,1-.831,1.924,9.372,9.372,0,0,1-7.341,4.764,9.212,9.212,0,0,1-1.146.492l105,128.053a5.784,5.784,0,1,0,9.122-6.728Z" fill="#194681"/>
    <g>
      <path d="M787.615,326.364q0,31.934,2.6,45t8.83,19.075q6.646,6.226,17.867,10.476t28.672,6.945l-.208,7.687q-31.374-.411-47.786-.623t-30.333-.208q-25.973,0-77.5.831h-1.247V407.86q17.658-2.692,28.983-6.945t17.764-10.476q6.439-6.007,9.038-19.075t2.6-45V133.4h-29.5q-39.891,0-58.175,12.258T632.83,188.669l-7.271-1.247,8.1-82.066h4.986l12.881,13.713q19.946,0,58.8.207t58.174.208q19.113,0,57.343-.208t57.135-.207l14.128-13.713h3.324l7.272,82.9-6.856,1.449q-7.48-30.323-26.074-43.311T819.61,133.4h-32Z" fill="#194681"/>
      <path d="M909.767,415.547l-.208-7.687q19.322-.829,25.659-7.877t6.337-36.682l-.416-195.824q0-13.089-2.39-19.839a30.37,30.37,0,0,0-8.206-12.157l-11.012-9.349v-3.74L971.68,101.2l4.363,2.077-2.493,143.34q21.814-14.74,40.306-22.218t32.827-7.475q29.709,0,43.423,16.8t14.751,54.757l1.87,80q.828,25.7,6.856,31.607t24.516,7.771v7.687q-7.9-.411-17.764-.623t-30.229-.208q-20.364,0-30.957.208t-19.53.623l-.208-7.687q19.737-2.069,26.282-8.7t6.545-27.354q0-1.658-.208-6.22t-.208-7.254L1070.991,309q-.832-36.271-13.4-52.533t-39.372-16.273a68.964,68.964,0,0,0-21.088,3.422,108.944,108.944,0,0,0-22.75,10.671v108.6q0,27.358,6.752,35.753t26.906,9.221l-.208,7.687q-8.726-.411-19.114-.623t-30.957-.208q-19.946,0-29.918.208T909.767,415.547Z" fill="#194681"/>
      <path d="M1302.927,364.437l6.024,5.195q-16.413,23.9-37.189,36.15a87.146,87.146,0,0,1-45.085,12.258q-37.815,0-63.576-27.734t-25.762-69.291q0-43.63,27.529-73.862t67-30.228q31.788,0,51.214,17.868t21.088,48.824q-35.527-1.247-67.419-1.87t-60.564-.623a85.458,85.458,0,0,0-2.077,11.635,115.368,115.368,0,0,0-.623,12.258q0,37.193,21.607,61.706t53.811,24.516a66.356,66.356,0,0,0,29.71-6.75A71.384,71.384,0,0,0,1302.927,364.437Zm-41.761-93.909q-4.158-21.192-13.92-32.517t-23.893-11.321q-16.206,0-28.568,12.364t-16.932,33.552Z" fill="#194681"/>
      <path d="M1747.333,382.349v7.675q-35.322,15.98-67.108,23.764a257.5,257.5,0,0,1-61.29,7.785q-76.665,0-123.2-41.451t-46.539-109.178q0-34.281,12.674-62.851t38.021-50.8a168.494,168.494,0,0,1,56.2-32.725q31.682-11.108,68.874-11.113a311.825,311.825,0,0,1,51.317,4.363,357.807,357.807,0,0,1,52.772,13.089q-1.041,17.04-1.766,35.841t-1.143,40.2h-6.44q-9.558-40.3-35.216-61.6t-65.134-21.293q-54.435,0-87.884,36.464t-33.45,96.3a154.448,154.448,0,0,0,10.492,56.617,152.774,152.774,0,0,0,30.437,48.511q19.946,21.609,49.032,33.348a165.528,165.528,0,0,0,62.538,11.737q20.773,0,27.736-6.427t6.96-27.589V332.362q0-25.3-12.05-35.779t-44.877-13.174v-7.687q17.034.332,33.346.579t32.515.252q16.62,0,32.722-.207t31.477-.624l.208,7.687q-19.322,2.495-25.867,11.1t-6.545,36.4v51.441Z" fill="#194681"/>
      <path d="M1808.984,301.56V192.36q0-27.816-2.389-37.574t-8.622-14.743a56.107,56.107,0,0,0-17.868-9.238,99.893,99.893,0,0,0-23.893-4.049v-7.687q13.5.417,28.879.622t46.539.208q31.579,0,47.267-.208t29.19-.622l.208,7.687q-34.9,1.041-47.058,13.911t-12.154,51.278V297.409q0,31.145,4.674,47.958a66.423,66.423,0,0,0,15.686,28.437q12.672,13.5,32.412,20.764t44.253,7.267q30.747,0,50.383-11.1t31.271-35.608q5.808-12.246,8.2-35.4t2.387-73.8q0-49.406-2.6-68.712t-8.824-28.654a44.726,44.726,0,0,0-20.573-16.086q-13.087-5.292-33.445-5.711v-7.687q11.418.417,24.3.622t39.06.208q26.39,0,39.368-.208t24-.622v7.687h-.831q-25.144,0-34.489,19.308t-9.354,97.375q0,6.638-.2,19.928-.836,72.255-12.05,98.206-12.891,29.9-42.6,45.363T1926.163,422.4q-35.527,0-60.667-9.553t-39.06-28.446a83,83,0,0,1-13.4-29.688Q1808.984,337.895,1808.984,301.56Z" fill="#194681"/>
      <path d="M2115.566,415.547V407.86q32.412-1.863,43.838-13.372t11.427-51.1V191.021q0-39.387-11.219-50.792t-44.046-13.473v-7.687q12.878,0,38.542.415t38.331.415q12.671,0,37.711-.415t37.291-.415v7.687q-32.827,2.075-44.045,13.681t-11.22,50.584V343.387q0,39.393,11.326,51.1t43.939,13.372l-.207,7.687q-31.582-.623-47.057-.725t-28.985-.106q-13.508,0-28.985.106T2115.566,415.547Z" fill="#194681"/>
      <path d="M2284.306,415.547V407.86q33.035-2.679,44.359-14.026t11.321-44.148V181.605q0-29.394-10.595-40.359t-40.514-14.49v-7.687q35.733-.413,76.041-1.146t45.708-.724q93.077,0,145.851,40.514t52.772,110.945q0,68.98-50.381,108.555t-138.892,39.581q-17.042,0-62.851-.522T2284.306,415.547Zm96.61-77.911q0,41.349,13.3,54.951t49.655,13.611q50.068,0,81.859-35.943t31.788-93.909q0-70.015-45.814-109.7t-127.045-39.683h-3.74Z" fill="#194681"/>
      <path d="M2636.319,265.75q0-69.186,43.941-110.531t117.284-41.345q72.09,0,115.411,42.693t43.321,113.546q0,68.149-44.152,109.593t-117.073,41.451q-72.1,0-115.41-42.384T2636.319,265.75Zm50.7-6.026q0,65.658,31.58,107.1t80.612,41.451q48.2,0,77.5-36.774T2906,273.437a198.132,198.132,0,0,0-6.856-52.357q-6.856-25.137-19.53-44.253-17.041-25.761-38.33-38.229-21.3-12.465-48.307-12.466-47.583,0-76.767,36.774T2687.014,259.724Z" fill="#194681"/>
      <path d="M2955.29,415.547l-.207-7.687q32.821-1.658,44.77-21.439T3011.8,304.7v-81.62q0-5.589.208-14.91t.207-13.054q0-20.091-4.155-31.071a52.634,52.634,0,0,0-13.712-19.889,61.736,61.736,0,0,0-19.428-11.908,86.19,86.19,0,0,0-25.241-5.49v-7.687q6.855,0,19.945.415t19.114.415q6.234,0,18.076-.415t17.244-.415l212.75,227.474V248.558q0-55.1-3.015-74.366t-10.7-28.583q-6.445-8.289-18.283-12.846t-29.3-6.007v-7.687q11.22.417,24.1.622t37.606.208q24.513,0,36.257-.208,11.729-.2,21.5-.622v7.687h-3.324q-22.651,0-31.686,22.787t-9.036,84.724V325q0,31.7.522,56.2t1.348,45.359h-2.493q-12.883-14.907-27.942-32.115t-16.727-19.106L3025.722,184.965v83.9q0,61.944,2.387,83.379T3036.318,383q5.4,8.9,17.452,14.707t34.074,9.941v7.9H3086.6q-43.844-.828-65.446-.831-12.054,0-25.97.208T2955.29,415.547Z" fill="#194681"/>
    </g>
  </g>
</svg>
