<svg width="3292" height="454" viewBox="0 0 3292 454" fill="none" xmlns="http://www.w3.org/2000/svg">
<g clip-path="url(#clip0_59_1206)">
<path d="M96.0361 287.8L95.1501 287.343C94.8657 287.179 94.6379 286.932 94.4965 286.635C94.3551 286.339 94.3068 286.006 94.3581 285.682C94.7011 281.232 94.751 270.082 87.85 262.648C80.898 255.163 80.604 244.148 80.35 234.426C80.297 232.456 80.2501 230.596 80.1501 228.812C79.7251 221.44 78.35 220.52 73.798 217.47C72.423 216.549 70.712 215.402 68.742 213.865C58.942 206.219 59.8421 171.929 61.2711 160.303C63.7711 140.035 67.493 126.603 72.34 120.368C79.54 111.109 82.8741 103.5 82.0071 102.326C81.9198 102.294 81.828 102.275 81.7351 102.271C75.7601 101.812 76.1251 96.316 76.3011 93.676C76.3291 93.245 76.3571 92.851 76.3571 92.517C76.3571 89.964 80.9091 79.389 82.3051 76.208C92.8271 52.33 123.124 15.14 123.429 14.767L124.993 12.853L125.969 15.124C145.417 60.415 159.31 67.345 170.474 72.913C171.515 73.433 172.535 73.941 173.535 74.467L174.97 75.221L174.1 76.6C161.791 96.173 129.094 119.744 123.377 120.936L122.866 121.042L122.966 121.122L123.482 121.514C126.166 123.54 129.841 126.314 130.05 134.254C130.234 141.254 119.293 155.954 108.712 170.18C106.838 172.699 105.023 175.139 103.361 177.42C94.6161 189.42 96.6941 191.689 100.137 195.442C100.499 195.842 100.872 196.242 101.246 196.672C106.046 202.153 106.039 203.31 101.159 221.405C97.459 235.131 98.3971 239.028 100.268 246.792C100.803 249.013 101.409 251.531 101.997 254.654C104.397 267.391 98.5441 286.006 96.8101 287.254L96.0361 287.8ZM124.192 18.594C117.88 26.5 94.0371 57.005 85.0411 77.417C82.3031 83.658 79.3471 91.208 79.3471 92.517C79.3471 92.907 79.317 93.37 79.284 93.875C79.041 97.523 79.3591 99.081 81.9561 99.281C82.5502 99.2946 83.1285 99.476 83.6239 99.8042C84.1194 100.132 84.5119 100.594 84.756 101.136C86.988 106.183 75.965 120.584 74.701 122.21C70.255 127.926 66.638 141.226 64.241 160.67C63.1967 170.271 63.0795 179.951 63.8911 189.575C64.9091 201.142 67.2851 208.928 70.5811 211.5C72.4651 212.971 74.0561 214.037 75.4611 214.978C80.561 218.393 82.6471 220.118 83.1381 228.64C83.2441 230.469 83.2941 232.353 83.3471 234.347C83.5921 243.535 83.87 253.947 90.047 260.607C94.832 265.76 96.6331 272.399 97.2231 277.853C98.8591 271.653 100.447 262.615 99.0501 255.203C98.4761 252.154 97.8791 249.676 97.3501 247.488C95.4231 239.488 94.3611 235.088 98.2621 220.618C102.962 203.185 102.814 203.018 98.9871 198.642C98.6291 198.231 98.2721 197.842 97.9251 197.464C93.4731 192.61 91.2361 188.964 100.935 175.648C102.603 173.358 104.424 170.911 106.304 168.384C115.617 155.865 127.204 140.284 127.05 134.326C126.879 127.833 124.114 125.744 121.674 123.902L121.136 123.494C120.656 123.125 120.226 122.834 119.877 122.594C118.977 121.982 118.038 121.349 118.271 120.163C118.526 118.871 119.508 118.663 122.76 117.988C127.129 117.078 157.86 95.448 170.66 76.365C170.152 76.1084 169.638 75.8514 169.119 75.594C157.716 69.909 143.566 62.852 124.192 18.594Z" fill="white"/>
<path d="M143.243 51.494C143.243 51.494 149.201 61.918 141.89 106.194C129.703 115.672 127.808 117.026 127.808 117.026C127.808 117.026 132.408 94.55 131.87 74.782C131.332 55.014 123.34 16.832 123.34 16.832L124.58 15.718L143.243 51.494Z" fill="white"/>
<path d="M110.883 33.756C110.883 33.756 122.257 68.283 119.413 119.869C121.993 122.179 124.309 124.767 126.319 127.587C125.052 126.334 123.514 125.389 121.823 124.826C120.133 124.262 118.335 124.095 116.57 124.337C110.477 125.15 105.603 127.993 104.79 116.213C103.977 104.433 110.071 75.188 95.854 55.285C106.009 39.443 110.883 33.756 110.883 33.756Z" fill="white"/>
<path d="M84.4812 74.376C84.4812 74.376 93.8232 83.312 95.8542 99.153C97.8852 114.994 96.6672 132.461 109.259 134.086C121.851 135.711 128.553 134.286 128.553 134.286L121.444 151.143C121.444 151.143 104.384 154.392 97.8852 138.957C91.3862 123.522 95.0422 103.212 81.8412 100.775C75.9512 98.744 77.8462 92.516 77.8462 92.516L84.4812 74.376Z" fill="white"/>
<path d="M80.013 112.151C80.013 112.151 87.324 117.026 88.949 137.335C90.574 157.644 110.883 164.55 110.883 164.55L99.51 180.392C99.51 180.392 89.355 170.643 86.918 161.707C84.481 152.771 85.293 133.68 67.418 135.307C69.045 127.587 77.169 116.213 80.013 112.151Z" fill="white"/>
<path d="M64.5769 145.459C64.5769 145.459 74.7319 158.459 79.1999 168.612C83.6679 178.765 97.4789 195.827 97.4789 195.827L102.759 201.108L103.166 208.013C103.166 208.013 97.0729 204.357 91.3859 200.701C85.6989 197.045 82.8559 192.171 79.1999 187.301C75.5439 182.431 70.6699 177.959 61.7339 173.491C62.1116 164.098 63.061 154.737 64.5769 145.459V145.459Z" fill="white"/>
<path d="M62.1401 185.266C62.1401 185.266 71.8891 198.666 75.5451 200.701C79.2011 202.736 91.3861 206.388 94.6361 212.481C97.8861 218.574 99.9161 222.636 99.9161 222.636L97.0731 237.259C97.0731 237.259 93.4171 225.479 87.7301 221.823C82.0431 218.167 68.2301 213.293 66.6081 209.638C64.9861 205.983 62.1401 185.266 62.1401 185.266Z" fill="white"/>
<path d="M80.8252 227.51C80.8252 227.51 87.7302 238.884 91.3862 243.758C95.0422 248.632 101.135 258.381 101.135 258.381L99.9162 272.191C99.9162 272.191 99.1042 262.036 94.2292 258.791C89.3542 255.546 82.4502 252.291 82.4502 250.667C82.4502 249.043 80.8252 227.51 80.8252 227.51Z" fill="white"/>
<path d="M293.264 318.113C271.89 318.113 250.996 311.775 233.224 299.9C215.452 288.025 201.601 271.147 193.421 251.4C185.242 231.653 183.102 209.924 187.271 188.961C191.441 167.997 201.734 148.741 216.848 133.628C231.961 118.514 251.217 108.221 272.181 104.052C293.144 99.8817 314.873 102.022 334.62 110.201C354.367 118.381 371.245 132.232 383.12 150.004C394.995 167.776 401.333 188.67 401.333 210.044C401.301 238.696 389.904 266.165 369.645 286.425C349.385 306.685 321.916 318.081 293.264 318.113V318.113ZM293.264 107.976C273.076 107.976 253.342 113.962 236.557 125.178C219.772 136.393 206.69 152.334 198.964 170.985C191.239 189.636 189.218 210.159 193.156 229.958C197.095 249.758 206.816 267.944 221.091 282.219C235.365 296.494 253.552 306.215 273.352 310.153C293.151 314.091 313.674 312.07 332.325 304.344C350.975 296.619 366.916 283.536 378.132 266.751C389.347 249.966 395.333 230.231 395.333 210.044C395.302 182.983 384.539 157.039 365.404 137.905C346.269 118.77 320.325 108.006 293.264 107.976V107.976Z" fill="white"/>
<path d="M293.536 307.933C274.229 307.933 255.356 302.208 239.303 291.482C223.251 280.756 210.739 265.51 203.351 247.673C195.962 229.836 194.029 210.209 197.796 191.273C201.562 172.337 210.859 154.944 224.511 141.292C238.163 127.64 255.556 118.343 274.492 114.577C293.428 110.81 313.055 112.743 330.892 120.132C348.729 127.52 363.975 140.032 374.701 156.084C385.427 172.137 391.152 191.01 391.152 210.317C391.123 236.197 380.829 261.01 362.529 279.31C344.229 297.61 319.416 307.904 293.536 307.933ZM293.536 114.701C274.625 114.701 256.139 120.309 240.415 130.815C224.691 141.322 212.435 156.255 205.198 173.726C197.961 191.198 196.068 210.423 199.757 228.971C203.447 247.518 212.553 264.556 225.925 277.928C239.297 291.3 256.335 300.406 274.882 304.096C293.43 307.785 312.655 305.892 330.127 298.655C347.598 291.418 362.531 279.162 373.038 263.438C383.544 247.714 389.152 229.228 389.152 210.317C389.124 184.967 379.041 160.663 361.115 142.737C343.19 124.812 318.886 114.729 293.536 114.7V114.701Z" fill="white"/>
<path d="M513.116 303.638L510.316 302.703C510.386 302.241 517.148 256.275 506.165 237.055C501.682 229.211 495.711 221.577 489.936 214.194C481.028 202.808 473.336 192.974 473.336 185.131C473.47 179.747 474.174 174.392 475.436 169.156C476.492 164.106 477.404 159.745 476.619 156.21C476.153 154.176 475.581 152.168 474.906 150.194C473.675 146.41 472.279 142.121 470.906 131.709C468.744 115.272 467.431 108.587 456.506 108.234C443.313 107.809 435.035 104.789 411.154 77.669L409.835 76.169L411.64 75.318C411.846 75.218 432.396 65.401 443.398 49.161C460.69 23.634 461.55 15.719 461.557 15.642L461.943 11.178L464.324 14.949C470.083 24.14 486.924 48.058 495.602 48.367L495.737 48.372C507.937 48.808 510.337 49.483 513.68 68.288C514.38 72.212 515.155 77.178 516.056 82.929C519.356 104.011 523.881 132.884 529.943 145.766C534.152 154.711 530.289 167.707 527.017 176.704L526.907 177.004C519.237 197.64 525.468 211.162 528.507 216.019C535.637 227.428 535.187 245.688 527.169 270.295C523.367 281.761 518.668 292.91 513.116 303.638V303.638ZM414.693 77.145C436.893 102.145 444.275 104.839 456.602 105.236C470.509 105.685 471.851 115.882 473.882 131.318C475.216 141.456 476.566 145.605 477.757 149.266C478.462 151.331 479.059 153.432 479.545 155.56C480.471 159.726 479.498 164.381 478.37 169.771C477.154 174.805 476.471 179.954 476.332 185.131C476.332 191.939 484.085 201.852 492.294 212.346C498.135 219.813 504.175 227.534 508.765 235.566C517.342 250.575 515.798 279.716 514.338 294.361C522.22 277.442 538.39 237.501 525.958 217.608C522.688 212.376 515.958 197.843 524.094 175.959L524.194 175.682C525.974 170.788 531.394 155.896 527.226 147.046C520.981 133.775 516.419 104.657 513.089 83.396C512.189 77.661 511.415 72.709 510.723 68.816C507.698 51.804 506.556 51.763 495.623 51.373H495.488C490.311 51.189 483.032 45.206 473.852 33.592C469.521 28.112 465.752 22.606 463.619 19.392C462.019 23.951 457.681 33.424 445.874 50.853C436.219 65.108 420.071 74.34 414.693 77.145Z" fill="white"/>
<path d="M496.3 102.888C495.843 100.788 495.334 98.6879 494.673 96.6449C494.365 95.3987 493.782 94.2371 492.967 93.2449C492.143 92.3475 491.056 91.7337 489.861 91.4909C485.49 90.7609 483.356 95.8159 483.489 99.4409C483.563 101.312 483.947 103.157 484.627 104.901C485.17 106.574 486.111 108.09 487.369 109.319C488.19 110.051 489.224 110.501 490.319 110.602C491.414 110.704 492.513 110.453 493.455 109.885C495.583 108.485 496.255 105.885 496.38 103.485C496.376 102.889 496.138 102.319 495.717 101.898C495.296 101.477 494.726 101.239 494.13 101.235C493.538 101.248 492.973 101.489 492.553 101.908C492.134 102.327 491.893 102.892 491.88 103.485C491.869 103.695 491.853 103.904 491.835 104.113C491.835 104.152 491.78 104.48 491.826 104.213C491.874 103.924 491.801 104.319 491.787 104.387C491.713 104.763 491.571 105.115 491.487 105.487C491.566 105.155 491.587 105.287 491.46 105.527C491.383 105.677 491.271 105.816 491.2 105.967C491.1 106.167 491.312 105.796 491.345 105.79C491.315 105.79 491.238 105.917 491.213 105.941C491.167 105.985 491.113 106.033 491.076 106.081C490.853 106.34 491.189 105.937 491.239 105.973C491.239 105.973 490.951 106.151 490.926 106.173C490.639 106.373 491.426 106.006 490.956 106.147C490.944 106.147 490.779 106.194 490.778 106.189C490.764 106.143 491.304 106.181 491.069 106.149C491.036 106.149 490.62 106.149 490.621 106.149C490.638 106.096 491.186 106.265 490.682 106.135C490.563 106.105 490.023 105.911 490.444 106.075C490.829 106.225 490.501 106.075 490.404 106.024C490.028 105.813 490.695 106.324 490.469 106.079C490.288 105.887 490.105 105.688 489.921 105.5C489.766 105.342 490.07 105.681 490.069 105.692C490.069 105.658 489.969 105.552 489.949 105.522C489.858 105.382 489.764 105.244 489.677 105.101C489.504 104.818 489.347 104.526 489.202 104.228C489.131 104.084 489.071 103.934 489.002 103.792C488.887 103.569 489.063 103.941 489.067 103.952C489.027 103.852 488.984 103.746 488.944 103.643C488.678 102.95 488.46 102.239 488.291 101.516C488.206 101.154 488.137 100.789 488.075 100.422C488.058 100.339 488.045 100.255 488.037 100.171C488.037 100.178 488.077 100.614 488.065 100.353C488.057 100.162 488.026 99.9699 488.014 99.7789C487.992 99.4369 487.984 99.0939 487.995 98.7509C487.995 98.5999 488.012 98.4509 488.022 98.2999C488.055 97.7759 487.945 98.6149 488.022 98.2539C488.092 97.9218 488.181 97.5939 488.288 97.2719C488.321 97.1769 488.529 96.6719 488.44 96.8579C488.351 97.0439 488.597 96.5579 488.65 96.4649C488.741 96.3019 488.856 96.1539 488.95 95.9919C489.071 95.7809 488.84 96.1679 488.818 96.1639C488.832 96.1639 488.937 96.0299 488.953 96.0159C489.024 95.9509 489.353 95.6689 489.045 95.9039C488.737 96.1389 489.111 95.8919 489.19 95.8369C489.468 95.6449 488.645 96.0299 489.076 95.8999C489.448 95.7879 488.749 95.8999 488.853 95.9169C488.946 95.9294 489.04 95.9294 489.132 95.9169C489.292 95.8859 488.773 95.8659 488.762 95.8609C488.821 95.8764 488.882 95.8881 488.942 95.8959C489.043 95.9324 489.145 95.9627 489.249 95.9869C489.365 96.0059 488.718 95.7149 489.049 95.9029C489.218 96.0029 489.385 96.0929 489.549 96.1969C489.91 96.4249 489.327 95.9969 489.399 96.0769C489.453 96.1339 489.522 96.1819 489.581 96.2359C489.696 96.3359 489.793 96.4649 489.907 96.5709C490.124 96.7709 489.574 96.0169 489.725 96.3369C489.755 96.4009 489.801 96.4629 489.836 96.5249C489.871 96.5869 489.912 96.6759 489.95 96.7519C490.115 97.0769 489.965 96.8619 489.899 96.6169C490.034 97.1169 490.266 97.6109 490.423 98.1099C491.039 100.075 491.53 102.087 491.968 104.099C492.131 104.672 492.512 105.158 493.03 105.452C493.548 105.747 494.161 105.825 494.736 105.671C495.306 105.5 495.788 105.114 496.08 104.595C496.371 104.076 496.45 103.464 496.3 102.888V102.888Z" fill="white"/>
<path d="M503.687 128.129C503.425 125.811 503.11 123.494 502.719 121.195C502.312 118.809 501.98 115.238 499.197 114.426C494.981 113.196 493.774 118.926 493.497 121.844C493.35 123.469 493.322 125.103 493.412 126.733C493.436 128.705 493.767 130.662 494.391 132.533C494.712 133.711 495.456 134.729 496.481 135.394C497.056 135.686 497.698 135.821 498.343 135.786C498.987 135.751 499.61 135.547 500.151 135.194C502.485 133.742 503.531 130.744 503.687 128.134C503.687 127.537 503.45 126.965 503.028 126.543C502.606 126.121 502.034 125.884 501.437 125.884C500.84 125.884 500.268 126.121 499.846 126.543C499.424 126.965 499.187 127.537 499.187 128.134C499.187 128.128 499.098 128.906 499.164 128.494C499.125 128.727 499.075 128.958 499.013 129.186C498.954 129.409 498.879 129.626 498.813 129.845C498.613 130.475 499.002 129.559 498.693 130.121C498.527 130.421 498.363 130.721 498.17 131.007C498.441 130.607 498.113 131.065 498.052 131.13C497.972 131.213 497.89 131.293 497.806 131.37C498.053 131.192 498.08 131.17 497.885 131.308L497.758 131.385C497.585 131.473 497.59 131.474 497.775 131.385L497.918 131.322C497.678 131.381 497.754 131.377 498.146 131.308C497.807 131.33 498.6 131.415 498.702 131.478L498.945 131.678C498.784 131.515 498.804 131.556 499.005 131.803C498.868 131.577 498.744 131.343 498.634 131.103C498.88 131.645 498.653 131.113 498.618 131.009C498.541 130.781 498.473 130.549 498.412 130.316C498.322 129.976 498.249 129.632 498.185 129.286C498.154 129.123 498.13 128.959 498.101 128.795C497.984 128.139 498.142 129.258 498.071 128.587C497.984 127.766 497.919 126.945 497.892 126.12C497.843 124.778 497.872 123.434 497.979 122.096C497.998 121.869 498.048 121.633 498.049 121.406C498.049 122.342 498.041 121.49 498.08 121.26C498.123 121.005 498.171 120.75 498.226 120.497C498.303 120.137 498.392 119.779 498.502 119.427C498.558 119.248 498.624 119.074 498.685 118.897C498.494 119.448 498.717 118.846 498.785 118.725C498.847 118.635 498.904 118.543 498.957 118.447C499.069 118.186 498.584 118.876 498.857 118.589C499.004 118.432 499.257 118.321 498.69 118.689C498.89 118.559 499.059 118.568 498.441 118.762C498.903 118.617 497.813 118.753 498.269 118.776C497.533 118.739 497.729 118.676 497.943 118.744C498.255 118.837 497.334 118.422 497.725 118.664C498.014 118.843 497.244 118.258 497.502 118.485C497.549 118.525 497.593 118.568 497.634 118.614C497.906 118.921 497.259 118.038 497.534 118.503C497.753 118.876 497.334 117.884 497.534 118.519C497.601 118.733 497.668 118.947 497.726 119.163C498.026 120.277 498.226 121.42 498.419 122.556C498.539 123.267 498.648 123.979 498.752 124.692C498.805 125.053 498.852 125.414 498.905 125.775C498.926 125.92 499.03 126.43 498.905 125.752C498.93 125.885 498.94 126.022 498.958 126.152C499.044 126.809 499.127 127.467 499.201 128.126C499.218 128.717 499.46 129.28 499.879 129.698C500.297 130.116 500.859 130.359 501.451 130.376C502.043 130.369 502.61 130.129 503.028 129.709C503.446 129.289 503.682 128.722 503.687 128.129V128.129Z" fill="white"/>
<path d="M490.707 107.65C490.774 107.722 490.839 107.797 490.902 107.872C490.965 107.947 491.043 108.039 491.111 108.124C491.158 108.182 491.202 108.242 491.25 108.299C491.461 108.553 490.871 107.787 491.077 108.076C491.656 108.871 492.195 109.695 492.691 110.545C493.013 111.112 493.313 111.69 493.591 112.28C493.686 112.48 493.779 112.68 493.87 112.88C493.92 112.993 494.128 113.48 493.918 112.98C494.082 113.373 494.237 113.77 494.384 114.17C495.03 115.949 495.508 117.785 495.811 119.654C495.972 120.228 496.353 120.715 496.871 121.01C497.39 121.304 498.004 121.381 498.579 121.225C499.145 121.052 499.623 120.669 499.916 120.154C500.208 119.64 500.292 119.033 500.15 118.458C499.567 114.879 498.355 111.431 496.572 108.273C495.827 106.904 494.925 105.627 493.885 104.467C493.461 104.05 492.889 103.816 492.294 103.816C491.699 103.816 491.127 104.05 490.703 104.467C490.293 104.895 490.064 105.465 490.064 106.058C490.064 106.651 490.293 107.221 490.703 107.649L490.707 107.65Z" fill="white"/>
<path d="M485.292 121.294C485.292 121.294 484.392 118.971 483.082 119.065C483.433 122.401 483.471 122.752 483.693 124.857C483.915 126.962 483.934 130.873 484.793 137.764C485.652 144.655 488.662 161.898 485.65 178.245C483.665 180.669 482.218 181.904 482.323 176.678C482.428 171.452 483.595 146.378 482.173 142.869C480.751 139.36 478.073 137.659 476.605 137.535C478.817 140.595 480.073 144.241 480.214 148.014C480.283 149.901 479.956 174.231 480.179 176.337C480.402 178.443 480.717 185.159 484.051 181.809C484.595 185.716 484.751 185.933 486.26 187.772C487.769 189.611 486.499 193.787 485.434 196.163C484.369 198.539 488.742 206.733 489.454 208.487C490.166 210.241 494.633 213.869 497.171 209.096C498.733 205.182 493.604 208.342 493.312 208.081C493.02 207.82 490.368 207.881 487.244 200.808C490.136 195.791 491.244 190.033 490.609 187.797C489.974 185.561 487.066 182.938 487.066 182.938C487.066 182.938 490.572 179.98 491.483 181.118C492.394 182.256 493.397 184.273 492.307 187.658C493.878 188.837 497.186 190.228 497.817 192.465C498.448 194.702 500.522 193.157 500.556 190.965C500.486 189.854 500.116 188.782 499.486 187.865C498.855 186.948 497.987 186.218 496.975 185.755C495.34 185.235 495.793 184.53 496.275 181.63C496.757 178.73 495.631 170.569 488.298 178.415C488.862 175.031 494.655 156.344 491.92 142.915C493.729 140.097 495.663 135.015 495.85 133.037C496.037 131.059 494.837 124 494.837 124C494.837 124 493.589 137.507 491.309 140.854C490.45 137.695 488.909 134.322 488.833 133.619C488.757 132.916 488.376 128.044 488.376 128.044C488.376 128.044 491.653 124.167 492.167 122.803C492.681 121.439 493.717 117.525 492.756 118.403C491.795 119.281 490.047 121.447 489.348 121.054C488.649 120.661 487.7 119.177 485.292 121.294Z" fill="white"/>
<path d="M506.251 94.974C506.42 92.8588 506.864 90.7746 507.571 88.774C507.923 92.11 507.962 92.461 508.184 94.568C508.406 96.675 509.13 99.789 509.755 106.943C510.38 114.097 511.268 133.723 516.731 140.55C518.75 138.476 520.124 136.541 519.053 132.636C517.982 128.731 513.202 111.325 512.784 105.7C512.399 101.133 513.033 96.5375 514.639 92.245C514.098 100.775 514.996 104.197 515.299 105.822C515.602 107.447 520.455 125.954 520.678 128.061C520.901 130.168 521.921 136.092 518.662 140.147C518.971 144.317 518.891 144.8 518.048 149.282C517.205 153.764 518.996 154.503 520.284 154.234C521.572 153.965 521.322 167.799 521.092 170.611C520.862 173.423 519.802 182.076 515.344 184.73C513.374 184.784 516.62 179.37 516.8 178.576C518.822 173.123 519.818 167.343 519.737 161.527C516.51 163.384 514.553 161.067 514.629 158.036C514.705 155.005 516.5 147.1 516.5 147.1C516.5 147.1 513.179 151.812 512.676 154.537C512.173 157.262 511.766 160.866 513.265 161.342C512.248 165.43 509.905 173.168 509.832 176.198C509.759 179.228 507.832 182.177 507.39 180.511C506.948 178.845 508.035 172.911 509.226 169.217C510.417 165.523 509.926 165.879 508.995 164.566C508.064 163.253 507.414 154.558 514.672 146.01C513.588 144.479 505.496 141.394 505.113 125.324C503.155 126.739 500.963 128.415 500.441 127.233C499.978 125.743 499.641 124.217 499.433 122.671C499.433 122.671 502.777 124.412 505.205 122.471C505.286 118.255 505.863 112.499 505.789 111.798C505.715 111.097 505.097 106.487 505.097 106.487C505.097 106.487 501.782 110.013 501.12 109.972C500.458 109.931 498.901 108.929 499.825 107.695C500.749 106.461 502.533 104.652 503.01 102.938C503.533 100.089 504.636 97.3785 506.251 94.974V94.974Z" fill="white"/>
<path d="M495.548 145.426C495.548 145.426 503.942 140.585 505.973 138.69C508.004 136.795 506.379 142.345 506.379 142.345C507.299 145.637 507.855 149.019 508.038 152.432C508.138 166.852 505.702 170.508 501.099 172.404C501.099 172.404 494.999 174.57 494.465 163.467C494.024 154.26 495.954 149.487 495.954 149.487C495.954 149.487 493.517 146.238 495.548 145.426Z" fill="white"/>
<path d="M491.689 144.512C491.689 144.512 494.634 146.136 496.563 146.136C498.492 146.136 495.954 148.472 495.954 148.472C494.411 147.723 492.919 146.875 491.486 145.933L490.673 145.222L491.79 144L491.689 144.512Z" fill="white"/>
<path d="M261.957 127.696L256.087 129.013L251.034 130.864L246.501 132.974L242.501 135.36L239.301 138.267L236.37 141.435L233.975 144.602L231.845 148.305L230.244 152.266L228.91 156.239L228.117 160.465L227.585 164.688L227.312 169.447L227.048 173.943L227.312 178.7L227.585 183.455L228.377 193.234L229.714 202.747L231.04 212L231.845 220.982L232.106 225.208L232.374 229.441L232.106 233.141L231.845 236.841L231.309 240.272L230.508 243.441L229.182 246.086L227.585 248.729L226.247 247.934L224.646 246.878L223.051 244.77L221.178 242.385L220.385 240.534L219.584 238.684L219.048 236.571L218.519 234.457L217.982 231.813L217.722 228.907V225.739V222.298L214.515 222.833L212.921 223.353L211.592 223.889L210.526 224.423L209.461 225.208L208.656 226.271L208.124 227.056L207.059 229.441L206.522 231.813L206.265 234.457L206.795 237.366L207.327 240.272L208.396 243.18L209.722 246.086L211.059 249.253L212.921 251.899L214.787 254.808L216.657 257.188L218.787 259.301L225.975 256.658L232.106 253.748L234.768 252.432L236.903 250.844L239.041 249.253L240.903 247.674L242.501 246.086L244.098 244.235L245.163 242.655L246.229 240.805L247.033 238.956L247.566 237.106L248.631 233.141L248.903 229.177L248.631 224.683L248.367 220.187L247.566 215.168L245.968 204.597L245.163 198.783L244.627 192.709L244.37 190.858L243.834 185.57L243.562 177.642L243.834 173.147L244.098 168.127L244.627 162.837L245.692 157.559L247.033 152.006L248.903 146.727L251.298 141.435L252.631 139.062L254.229 136.677L255.831 134.304L257.689 131.919L259.827 129.808L261.957 127.696Z" fill="white"/>
<path d="M304.867 263.797V260.096L305.131 256.658L306.192 250.049L307.522 243.71L309.392 238.161L313.132 227.587L314.982 222.568L316.587 217.814L317.653 212.786L317.913 210.411V208.035V205.652L317.653 203.007L317.392 200.373L316.587 197.728L315.523 195.082L314.458 192.175L312.851 189.269L310.997 186.365L308.847 183.195L306.453 180.017L303.522 176.585L300.062 172.887L292.866 178.7L285.134 184.51L276.08 190.858L275.812 181.604L276.08 172.092L276.613 160.997L276.873 155.444L277.678 150.155L278.744 145.136L279.808 140.643L281.406 136.677L282.212 135.099L283.276 133.769L284.341 132.714L285.407 131.658L286.736 131.124H288.074L289.138 132.193L290.472 133.248L292.062 134.304L293.931 135.36L295.801 136.153L297.932 136.677L300.327 136.938L302.457 137.208L304.867 136.938L307.258 136.417L309.653 135.36L312.327 134.033L314.718 132.193L317.108 129.808L319.523 126.64L321.654 123.2L319.783 123.995L317.913 124.789L316.043 125.05L314.198 125.584H310.457L306.997 125.31L303.262 124.255L299.802 122.939L296.322 121.351L292.866 119.501L288.866 121.087L285.407 122.939L281.939 125.05L278.744 127.435L276.08 130.068L273.417 132.974L271.288 136.417L269.157 139.857L267.547 143.816L265.949 148.042L264.885 152.8L264.088 157.559L263.287 162.837L263.023 168.661V174.735L263.287 181.072L265.153 208.3L265.689 222.568L266.218 236.571V243.18V249.524L265.689 255.603L265.153 260.891L264.352 265.91L263.287 270.135L261.957 273.574L261.157 274.89L260.363 276.219L256.896 274.095L253.957 272.246L251.034 270.93L248.631 269.871L246.501 269.076L244.37 268.555L242.501 268.284H240.903L239.041 268.555L237.703 269.076L234.768 270.135L228.65 273.039L231.845 274.095L234.768 275.154L237.171 276.744L239.301 278.33L242.769 281.498L244.37 282.818L245.968 284.143L247.566 285.201L249.16 285.722L251.298 285.994L253.692 285.461L256.36 284.668L259.298 282.818L263.023 280.443L267.283 277.005L268.884 275.424L270.482 273.834L271.82 272.246L273.145 270.406L275.276 266.432L276.873 262.207L277.939 257.713L278.744 253.227L279.28 248.469V243.71V239.216L279.015 234.72L278.471 226.271L277.406 218.87L276.873 213.579L276.34 197.988L277.678 196.672L279.015 195.082L280.874 194.027L282.475 192.969L284.341 192.175L286.203 191.914L288.074 192.175L289.939 192.709L291.541 194.027L293.41 195.877L294.737 198.523L296.322 201.951L297.411 206.187L298.453 211.466L299.261 217.814L299.802 225.208L300.062 230.237V235.251L299.541 243.441L298.996 250.319L297.932 256.393L297.411 261.412L296.866 266.432V269.076L297.132 271.461L297.411 274.095L297.932 277.005L299.541 283.088L300.327 285.994L301.392 288.368L302.457 290.482L303.802 292.331L304.867 293.921L306.453 295.237L307.783 296.296L309.392 296.827L310.997 297.091H312.587L314.458 296.566L316.323 295.771L318.457 294.451L320.588 292.601L322.983 290.482L324.049 288.902L324.588 288.368V287.572V287.051L324.309 286.517L323.523 285.722L322.178 285.201L318.177 283.613L316.043 282.554L313.653 281.498L311.522 279.908L309.392 277.799L307.522 275.424L306.717 273.834L305.932 272.246L305.392 270.406L305.131 268.555L304.867 266.17V263.797Z" fill="white"/>
<path d="M362.16 203.542H361.616L356.834 199.841L354.16 197.467L351.765 194.822L349.095 192.175L346.699 189.269L344.569 186.1L342.699 182.925L341.113 179.756L340.029 176.585L339.244 173.408V170.242L339.504 168.661L339.768 167.073L340.309 165.744L341.113 164.164L342.179 162.576L343.24 161.258L344.569 159.93L346.159 158.614L349.9 160.465L353.635 163.108L357.356 166.278L361.095 169.977L364.551 174.203L366.16 176.585L367.489 178.961L368.816 181.604L369.881 184.25L370.946 186.885L371.747 189.803L372.551 188.213L373.356 186.625L374.141 183.455L374.421 180.017V176.585L373.62 173.408L372.551 169.977L370.946 166.538L368.816 163.368L366.42 160.204L364.031 157.024L361.095 154.12L357.9 151.481L354.7 148.837L351.225 146.453L347.768 144.341L344.309 142.491L341.113 146.987L338.438 151.211L336.044 155.174L334.175 158.874L332.308 162.576L330.982 166.018L329.634 169.447L328.848 172.623L328.308 175.791L327.784 178.7L327.504 181.344V183.98L327.784 186.365L328.048 188.734L328.568 191.119L329.374 193.234L330.982 196.933L333.113 200.373L335.244 203.542L337.635 206.187L340.309 208.3L342.439 210.411L346.159 213.318L349.639 216.485L352.569 219.662L354.964 223.093L357.095 226.271L358.684 229.701L360.293 233.141L361.356 236.571L362.16 240.01L362.681 243.18V246.348V249.253L362.42 252.161L361.896 254.808L361.095 257.188L360.293 259.301L359.225 261.151L357.9 262.741L356.554 264.057L354.964 264.852L353.355 265.115H351.765L349.9 264.582L348.029 263.797L346.159 262.207L344.309 260.356L342.439 257.713L340.572 254.543L338.703 250.583L336.829 246.086L334.979 241.065L333.374 234.991L331.787 228.382L330.718 232.087L329.918 236.047L329.634 240.272V244.77L330.179 249.253L330.982 253.748L332.048 258.245L333.374 262.471L334.979 266.432L336.829 269.871L338.964 273.039L341.113 275.685L342.179 276.479L343.505 277.535L344.569 278.07L345.899 278.592L347.225 278.853H348.569L349.9 278.592L351.225 278.07L353.635 276.744L356.29 274.89L359.49 272.519L362.681 269.611L365.881 266.17L369.08 262.207L372.011 257.713L374.685 252.955L375.751 250.319L376.555 247.674L377.34 245.03L377.881 242.124L378.145 239.216V236.311L377.881 233.401L377.62 230.237L376.816 227.056L375.751 223.889L374.421 220.448L372.816 217.28L370.681 213.849L368.294 210.411L365.356 206.972L362.16 203.542Z" fill="white"/>
<path d="M258.425 382.726V382.051C259.438 382.026 260.442 381.845 261.4 381.513C262.098 381.277 262.704 380.829 263.134 380.231C263.457 379.544 263.631 378.797 263.645 378.038C263.742 376.952 263.791 375.184 263.791 372.733V364.871C263.823 363.407 263.759 361.943 263.599 360.487C263.54 359.839 263.31 359.218 262.933 358.687C262.474 358.232 261.9 357.911 261.272 357.759C260.346 357.483 259.39 357.318 258.425 357.268V356.555C258.899 356.568 259.423 356.577 259.995 356.583C260.567 356.589 261.412 356.592 262.532 356.592C263.906 356.592 264.931 356.589 265.607 356.583C266.283 356.577 266.9 356.562 267.459 356.537C267.374 357.82 267.31 358.946 267.268 359.917C267.225 360.888 267.204 361.672 267.204 362.271V374.9C267.165 376.317 267.235 377.734 267.414 379.14C267.494 379.749 267.744 380.323 268.135 380.796C268.616 381.234 269.201 381.54 269.835 381.687C270.754 381.918 271.698 382.04 272.646 382.052V382.727C270.712 382.69 269.258 382.669 268.284 382.662C267.309 382.655 266.402 382.653 265.564 382.654C264.725 382.654 263.819 382.657 262.845 382.662C261.871 382.667 260.397 382.689 258.425 382.726Z" fill="white"/>
<path d="M276.876 383.656L276.511 382.872C279.256 381.58 281.769 379.844 283.949 377.734C285.764 375.925 287.13 373.715 287.936 371.282C287.077 371.798 286.158 372.207 285.2 372.5C284.329 372.759 283.425 372.892 282.517 372.893C281.484 372.944 280.452 372.777 279.488 372.404C278.524 372.031 277.648 371.459 276.919 370.726C276.19 369.993 275.622 369.115 275.253 368.149C274.885 367.183 274.723 366.151 274.779 365.118C274.737 363.933 274.941 362.753 275.379 361.651C275.818 360.549 276.48 359.551 277.324 358.718C278.192 357.885 279.218 357.235 280.343 356.807C281.467 356.379 282.666 356.182 283.868 356.227C285.09 356.16 286.313 356.347 287.459 356.776C288.605 357.205 289.65 357.866 290.529 358.718C291.368 359.642 292.015 360.724 292.432 361.901C292.849 363.078 293.027 364.326 292.956 365.572C292.963 369.577 291.454 373.436 288.731 376.372C285.497 379.811 281.405 382.325 276.876 383.656V383.656ZM288.32 370.023C288.511 369.259 288.66 368.485 288.767 367.705C288.868 366.961 288.92 366.211 288.922 365.46C289.028 363.363 288.541 361.279 287.517 359.446C287.141 358.769 286.59 358.206 285.921 357.816C285.252 357.426 284.491 357.223 283.717 357.229C282.99 357.209 282.269 357.365 281.616 357.685C280.962 358.004 280.396 358.477 279.966 359.063C278.981 360.611 278.49 362.421 278.557 364.254C278.624 366.087 279.245 367.857 280.34 369.329C280.905 369.998 281.614 370.53 282.413 370.887C283.212 371.244 284.082 371.417 284.957 371.392C285.581 371.4 286.202 371.286 286.782 371.054C287.356 370.813 287.878 370.463 288.32 370.023V370.023Z" fill="white"/>
<path d="M294.616 382.8L294.36 382.27C297.927 379.386 301.154 376.104 303.978 372.488C306.01 369.688 307.026 367.157 307.026 364.895C307.112 363.434 306.664 361.991 305.767 360.834C305.334 360.343 304.796 359.955 304.192 359.701C303.588 359.446 302.935 359.332 302.281 359.365C301.172 359.379 300.086 359.684 299.132 360.25C297.969 360.947 296.934 361.839 296.075 362.887L295.51 362.431C296.373 360.63 297.626 359.043 299.178 357.786C300.506 356.798 302.123 356.276 303.778 356.299C304.703 356.278 305.623 356.456 306.474 356.819C307.325 357.183 308.089 357.724 308.714 358.407C310.042 359.833 310.753 361.725 310.694 363.672C310.694 365.924 309.736 368.342 307.82 370.927C305.194 374.214 302.169 377.16 298.813 379.697L305.457 379.624C306.396 379.649 307.337 379.594 308.267 379.46C308.743 379.386 309.194 379.198 309.581 378.912C310.041 378.492 310.455 378.022 310.813 377.512C311.336 376.781 311.82 376.022 312.264 375.24L312.903 375.55L310.092 382.723C308.413 382.698 307.105 382.68 306.168 382.668C305.231 382.656 304.361 382.65 303.559 382.65C301.916 382.65 300.358 382.662 298.886 382.686C297.414 382.71 295.991 382.748 294.616 382.8Z" fill="white"/>
<path d="M316.165 383.656L315.8 382.872C318.545 381.58 321.057 379.844 323.237 377.734C325.053 375.925 326.419 373.715 327.225 371.282C326.365 371.796 325.445 372.203 324.487 372.495C323.616 372.755 322.713 372.887 321.805 372.888C320.772 372.939 319.74 372.772 318.776 372.399C317.812 372.025 316.936 371.454 316.207 370.721C315.478 369.988 314.91 369.11 314.541 368.144C314.172 367.178 314.01 366.146 314.066 365.113C314.024 363.928 314.229 362.747 314.667 361.646C315.106 360.544 315.768 359.545 316.613 358.713C318.437 357.109 320.783 356.224 323.213 356.224C325.642 356.224 327.988 357.109 329.813 358.713C330.652 359.637 331.299 360.719 331.716 361.896C332.133 363.073 332.311 364.321 332.24 365.567C332.247 369.572 330.738 373.431 328.015 376.367C324.783 379.807 320.693 382.323 316.165 383.656ZM327.608 370.023C327.8 369.259 327.949 368.485 328.056 367.705C328.157 366.961 328.209 366.211 328.211 365.46C328.317 363.363 327.83 361.279 326.806 359.446C326.43 358.769 325.879 358.206 325.21 357.816C324.541 357.426 323.78 357.223 323.006 357.229C322.279 357.209 321.558 357.365 320.905 357.685C320.251 358.004 319.685 358.477 319.255 359.063C318.271 360.611 317.78 362.421 317.847 364.254C317.914 366.087 318.535 367.857 319.63 369.329C320.195 369.998 320.904 370.53 321.703 370.887C322.502 371.245 323.372 371.417 324.247 371.392C324.872 371.4 325.492 371.285 326.073 371.054C326.646 370.812 327.167 370.462 327.608 370.023Z" fill="white"/>
<path d="M245.998 370.251H219.002V371.251H245.998V370.251Z" fill="white"/>
<path d="M373.334 370.251H346.337V371.251H373.334V370.251Z" fill="white"/>
<path d="M219.412 348.563L219.398 348.037C220.441 348.084 221.469 347.77 222.308 347.147C222.791 346.648 223.033 345.482 223.032 343.647V333.331C223.032 331.474 222.799 330.286 222.332 329.767C221.553 329.124 220.572 328.778 219.563 328.789V328.263C220.481 328.263 221.754 328.273 223.382 328.292C225.01 328.311 226.179 328.321 226.888 328.32C228.109 328.32 229.361 328.315 230.643 328.306C231.925 328.297 233.408 328.282 235.093 328.263L234.653 333.004H234.227C234.268 332.43 234.181 331.855 233.971 331.32C233.76 330.784 233.433 330.303 233.013 329.91C232.261 329.342 230.801 329.058 228.634 329.058H225.767V337.887H229.102C230.182 337.97 231.261 337.723 232.197 337.178C232.539 336.905 232.813 336.557 232.998 336.16C233.183 335.763 233.273 335.329 233.262 334.892L233.73 334.907C233.683 335.834 233.647 336.707 233.624 337.526C233.601 338.345 233.589 339.137 233.588 339.903C233.588 340.547 233.591 341.034 233.596 341.365C233.596 341.697 233.602 342.004 233.602 342.288H233.177C233.22 341.844 233.159 341.396 232.999 340.979C232.839 340.562 232.584 340.189 232.254 339.888C231.336 339.325 230.261 339.071 229.188 339.164H225.767V343.5C225.767 345.27 226.051 346.428 226.619 346.975C227.187 347.522 228.365 347.875 230.153 348.034V348.56H229.983C227.579 348.522 225.795 348.503 224.631 348.503C223.987 348.503 223.299 348.508 222.566 348.517L219.412 348.563Z" fill="white"/>
<path d="M236.722 338.328C236.658 336.929 236.892 335.531 237.41 334.229C237.927 332.927 238.715 331.75 239.722 330.776C241.92 328.82 244.798 327.805 247.736 327.951C249.179 327.882 250.621 328.105 251.976 328.606C253.331 329.107 254.57 329.877 255.621 330.868C256.621 331.889 257.4 333.104 257.909 334.439C258.418 335.774 258.647 337.199 258.581 338.626C258.64 340.017 258.401 341.404 257.88 342.696C257.36 343.987 256.57 345.152 255.564 346.114C253.371 348.07 250.499 349.087 247.564 348.946C246.123 349.015 244.682 348.793 243.328 348.295C241.973 347.797 240.733 347.032 239.679 346.046C238.681 345.033 237.902 343.824 237.394 342.496C236.885 341.168 236.656 339.749 236.722 338.328ZM240.186 337.916C240.071 340.527 240.83 343.103 242.343 345.234C242.962 346.118 243.787 346.838 244.747 347.331C245.706 347.825 246.772 348.077 247.851 348.066C248.87 348.096 249.881 347.884 250.801 347.447C251.722 347.01 252.525 346.361 253.146 345.553C254.562 343.616 255.269 341.25 255.146 338.853C255.15 337.645 254.993 336.442 254.678 335.276C254.398 334.203 253.948 333.182 253.344 332.252C252.683 331.192 251.787 330.299 250.725 329.641C249.333 328.867 247.713 328.609 246.149 328.913C244.586 329.217 243.18 330.062 242.179 331.301C240.775 333.212 240.071 335.548 240.186 337.916V337.916Z" fill="white"/>
<path d="M262.339 340.774V333.314C262.369 332.455 262.315 331.595 262.176 330.746C262.098 330.354 261.89 329.999 261.587 329.739C261.221 329.457 260.808 329.243 260.366 329.107C259.835 328.95 259.286 328.857 258.733 328.831V328.306C259.348 328.325 260.006 328.339 260.706 328.348C261.406 328.357 262.466 328.362 263.886 328.363C265.324 328.363 266.4 328.358 267.115 328.348C267.83 328.338 268.496 328.324 269.115 328.306L269.129 328.831C267.976 328.734 266.829 329.073 265.914 329.782C265.36 330.368 265.083 331.535 265.083 333.282V340.488C265.049 341.59 265.157 342.691 265.403 343.765C265.594 344.491 265.963 345.159 266.475 345.708C267.091 346.348 267.85 346.834 268.689 347.126C269.659 347.47 270.683 347.64 271.713 347.626C272.906 347.674 274.092 347.412 275.155 346.867C276.104 346.299 276.851 345.448 277.292 344.434C277.608 343.664 277.797 342.847 277.852 342.016C277.961 340.962 278.016 339.281 278.015 336.973C278.045 335.406 277.986 333.838 277.838 332.278C277.782 331.59 277.577 330.922 277.238 330.32C276.891 329.822 276.404 329.439 275.838 329.22C275.106 328.955 274.332 328.823 273.553 328.83V328.305C274.073 328.324 274.627 328.338 275.214 328.347C275.801 328.356 276.691 328.361 277.882 328.362C279.082 328.362 279.979 328.357 280.572 328.347C281.165 328.337 281.712 328.323 282.212 328.305V328.83H282.155C281.675 328.785 281.192 328.887 280.771 329.123C280.35 329.359 280.011 329.717 279.799 330.15C279.373 331.029 279.16 333.246 279.16 336.803C279.16 337.105 279.155 337.559 279.146 338.164C279.108 341.455 278.833 343.691 278.322 344.873C277.751 346.219 276.719 347.318 275.412 347.973C273.837 348.725 272.104 349.087 270.359 349.029C268.949 349.063 267.545 348.842 266.214 348.377C265.153 348.004 264.225 347.328 263.545 346.433C263.108 345.824 262.797 345.134 262.63 344.404C262.403 343.208 262.306 341.991 262.339 340.774V340.774Z" fill="white"/>
<path d="M283.585 348.563L283.571 348.037C284.163 348.072 284.755 347.956 285.29 347.7C285.825 347.444 286.286 347.056 286.63 346.573C287.174 345.672 287.446 343.811 287.446 340.989V335.412C287.446 335.157 287.446 334.818 287.46 334.394C287.474 333.97 287.474 333.672 287.474 333.502C287.503 332.783 287.407 332.065 287.19 331.379C286.987 330.86 286.667 330.394 286.253 330.02C285.865 329.668 285.415 329.392 284.926 329.206C284.373 328.995 283.792 328.869 283.201 328.831V328.306C283.514 328.306 283.968 328.315 284.564 328.334C285.16 328.353 285.596 328.362 285.87 328.363C286.154 328.363 286.566 328.353 287.105 328.334C287.645 328.315 288.037 328.305 288.283 328.306L302.82 343.848V337.154C302.859 335.457 302.79 333.76 302.613 332.072C302.544 331.368 302.292 330.695 301.882 330.119C301.555 329.717 301.123 329.413 300.633 329.242C299.989 329.012 299.316 328.874 298.633 328.831V328.306C299.145 328.325 299.693 328.339 300.28 328.348C300.867 328.357 301.724 328.363 302.85 328.363C303.976 328.363 304.792 328.363 305.327 328.348C305.862 328.333 306.351 328.325 306.796 328.306V328.831H306.569C306.087 328.817 305.614 328.961 305.222 329.243C304.831 329.524 304.543 329.927 304.403 330.388C303.887 332.272 303.678 334.227 303.786 336.177V342.377C303.786 343.821 303.798 345.101 303.822 346.217C303.846 347.333 303.877 348.366 303.915 349.317H303.743C303.157 348.638 302.521 347.907 301.835 347.122C301.149 346.337 300.768 345.902 300.692 345.817L288.4 332.808V338.54C288.4 341.361 288.455 343.261 288.563 344.24C288.603 344.971 288.794 345.686 289.124 346.34C289.415 346.783 289.83 347.13 290.316 347.34C291.061 347.663 291.843 347.891 292.644 348.019V348.559H292.559C290.559 348.521 289.069 348.502 288.088 348.502C287.54 348.502 286.948 348.507 286.313 348.516C285.679 348.525 284.769 348.541 283.585 348.563Z" fill="white"/>
<path d="M308.219 348.563V348.037C309.307 348.06 310.373 347.724 311.25 347.079C311.872 346.204 312.148 345.13 312.024 344.063V332.578C312.13 331.601 311.873 330.619 311.3 329.821C310.508 329.201 309.537 328.854 308.532 328.831V328.306C310.16 328.287 311.891 328.261 313.726 328.228C315.56 328.195 316.602 328.179 316.85 328.178C321.088 328.178 324.41 329.101 326.815 330.946C327.984 331.824 328.923 332.972 329.551 334.293C330.179 335.613 330.478 337.066 330.421 338.527C330.48 339.948 330.199 341.363 329.6 342.654C329.001 343.944 328.102 345.072 326.978 345.944C324.682 347.744 321.519 348.644 317.488 348.644C316.713 348.644 315.282 348.632 313.195 348.609C311.107 348.586 309.449 348.57 308.219 348.563ZM314.819 343.239C314.819 345.123 315.122 346.375 315.728 346.994C316.334 347.613 317.464 347.923 319.12 347.924C320.176 347.955 321.225 347.751 322.193 347.326C323.16 346.901 324.021 346.267 324.713 345.468C326.273 343.43 327.036 340.893 326.86 338.332C326.684 335.771 325.58 333.362 323.755 331.557C321.668 329.749 318.775 328.845 315.075 328.846H314.819V343.239Z" fill="white"/>
<path d="M330.756 348.563V348.037C331.855 348.008 332.924 347.666 333.836 347.051C334.337 346.584 334.587 345.579 334.588 344.034V332.891C334.588 331.261 334.34 330.184 333.843 329.66C333.058 329.035 332.069 328.725 331.068 328.789V328.263C332.014 328.286 333.022 328.302 334.092 328.309C335.162 328.316 336.714 328.32 338.748 328.32C341.123 328.32 342.862 328.316 343.964 328.309C345.066 328.302 346.057 328.291 346.938 328.278C346.853 328.921 346.78 329.611 346.718 330.35C346.656 331.089 346.597 331.936 346.541 332.891H346.1C346.12 332.338 346.023 331.788 345.815 331.275C345.607 330.762 345.293 330.3 344.894 329.917C343.757 329.256 342.442 328.966 341.133 329.087H337.328V337.462H340.252C341.391 337.559 342.536 337.348 343.566 336.851C343.905 336.585 344.185 336.25 344.386 335.868C344.588 335.487 344.707 335.067 344.737 334.637H345.206C345.206 335.167 345.185 336 345.142 337.137C345.099 338.274 345.078 339.159 345.079 339.792V341.467H344.653C344.651 341.054 344.553 340.646 344.366 340.277C344.178 339.909 343.907 339.589 343.574 339.344C342.547 338.859 341.411 338.652 340.28 338.744H337.328V343.911C337.328 345.492 337.65 346.534 338.293 347.035C338.936 347.536 340.19 347.787 342.055 347.787C343.51 347.874 344.947 347.425 346.093 346.523C347.17 345.477 347.859 344.096 348.045 342.606L348.514 342.662C348.462 343.717 348.341 344.768 348.152 345.807C347.978 346.765 347.728 347.707 347.406 348.625C346.035 348.587 344.535 348.558 342.906 348.539C341.277 348.52 339.502 348.51 337.583 348.511C335.795 348.511 334.423 348.516 333.466 348.525C332.509 348.534 331.606 348.547 330.756 348.563Z" fill="white"/>
<path d="M349.789 348.563V348.037C350.877 348.061 351.942 347.724 352.819 347.079C353.442 346.205 353.718 345.13 353.594 344.063V332.578C353.701 331.601 353.442 330.619 352.869 329.821C352.078 329.201 351.107 328.853 350.101 328.831V328.306C351.728 328.287 353.462 328.261 355.301 328.228C357.14 328.195 358.181 328.179 358.423 328.178C362.663 328.178 365.985 329.101 368.389 330.946C369.558 331.824 370.497 332.972 371.125 334.293C371.753 335.613 372.051 337.066 371.994 338.527C372.053 339.948 371.772 341.363 371.173 342.653C370.574 343.944 369.676 345.072 368.552 345.944C366.257 347.744 363.094 348.644 359.062 348.644C358.286 348.644 356.855 348.632 354.769 348.609C352.683 348.586 351.023 348.57 349.789 348.563ZM356.389 343.239C356.389 345.123 356.692 346.375 357.298 346.994C357.904 347.613 359.035 347.923 360.691 347.924C361.747 347.955 362.797 347.751 363.764 347.326C364.731 346.901 365.592 346.267 366.284 345.468C367.844 343.43 368.607 340.892 368.43 338.332C368.254 335.771 367.15 333.363 365.326 331.557C363.239 329.749 360.345 328.845 356.646 328.846H356.389V343.239Z" fill="white"/>
<path d="M228.33 290.311C227.91 289.922 227.678 289.696 227.552 289.564C227.435 289.477 227.296 289.373 227.127 289.245C226.008 288.395 224.934 287.562 223.898 286.645L118.6 415.577L118.68 415.657C118.044 416.232 117.543 416.941 117.215 417.733C116.886 418.525 116.738 419.38 116.78 420.236C116.823 421.092 117.055 421.929 117.46 422.684C117.866 423.44 118.434 424.096 119.124 424.605C119.814 425.113 120.609 425.463 121.45 425.627C122.292 425.791 123.159 425.766 123.99 425.553C124.821 425.341 125.594 424.946 126.253 424.398C126.913 423.85 127.442 423.163 127.803 422.385L233.867 293.032C231.794 292.69 229.868 291.744 228.33 290.311V290.311Z" fill="white"/>
<path d="M223.456 129.777C224.929 128.351 226.793 127.396 228.81 127.031L129.636 5.59399L120.7 13.311L220.673 135.238C220.981 133.163 221.958 131.245 223.456 129.777V129.777Z" fill="white"/>
<path d="M362.055 130.59C363.514 131.997 364.482 133.835 364.816 135.834L464.945 13.718L456.009 6L356.519 127.825C358.598 128.176 360.525 129.139 362.055 130.59V130.59Z" fill="white"/>
<path d="M466.018 415.657L466.099 415.577L361.218 287.152C361.015 287.823 360.736 288.468 360.387 289.076C359.643 290.407 358.586 291.537 357.307 292.367C356.027 293.198 354.565 293.703 353.046 293.84C352.675 294.03 352.293 294.194 351.9 294.332L456.9 422.385C457.261 423.163 457.79 423.851 458.45 424.399C459.109 424.947 459.882 425.342 460.713 425.554C461.544 425.767 462.412 425.792 463.253 425.628C464.095 425.464 464.89 425.115 465.58 424.606C466.27 424.097 466.839 423.441 467.244 422.685C467.649 421.929 467.882 421.093 467.924 420.236C467.966 419.38 467.817 418.524 467.488 417.732C467.16 416.94 466.659 416.232 466.022 415.657H466.018Z" fill="white"/>
<path d="M784.112 284.583C784.112 305.872 784.979 320.872 786.712 329.583C788.445 338.294 791.389 344.653 795.542 348.658C799.973 352.808 805.929 356.3 813.409 359.134C820.889 361.968 830.446 364.283 842.081 366.079L841.873 373.766C820.957 373.492 805.028 373.284 794.087 373.143C783.146 373.002 773.035 372.932 763.754 372.935C746.439 372.935 720.606 373.212 686.254 373.766H685.007V366.079C696.779 364.284 706.44 361.969 713.99 359.134C721.54 356.299 727.461 352.807 731.754 348.658C736.047 344.653 739.06 338.295 740.792 329.583C742.524 320.871 743.391 305.871 743.392 284.583V91.6231H713.892C687.298 91.6231 667.907 95.7091 655.718 103.881C643.529 112.053 634.734 126.389 629.332 146.888L622.06 145.641L630.16 63.5751H635.146L648.027 77.2871C661.324 77.2871 680.924 77.3564 706.827 77.4951C732.73 77.6337 752.121 77.7021 765 77.7001C777.742 77.7001 796.856 77.6307 822.343 77.4921C847.83 77.3534 866.875 77.2841 879.478 77.2841L893.6 63.5751H896.924L904.196 146.475L897.34 147.925C892.354 127.71 883.663 113.272 871.266 104.613C858.869 95.9537 840.483 91.6237 816.107 91.6231H784.107L784.112 284.583Z" fill="white"/>
<path d="M906.264 373.766L906.056 366.079C918.937 365.526 927.49 362.9 931.715 358.201C935.94 353.502 938.052 341.275 938.052 321.52L937.636 125.7C937.636 116.974 936.84 110.361 935.247 105.861C933.546 101.198 930.728 97.0224 927.04 93.7L916.028 84.351V80.611L968.177 59.42L972.54 61.5L970.047 204.84C984.591 195.013 998.026 187.607 1010.35 182.622C1022.68 177.637 1033.62 175.145 1043.18 175.147C1062.99 175.147 1077.46 180.747 1086.6 191.947C1095.75 203.147 1100.66 221.399 1101.35 246.704L1103.22 326.704C1103.78 343.837 1106.06 354.373 1110.08 358.311C1114.1 362.249 1122.27 364.839 1134.6 366.082V373.769C1129.33 373.495 1123.41 373.287 1116.83 373.146C1110.26 373.005 1100.18 372.935 1086.6 372.938C1073.03 372.938 1062.71 373.007 1055.65 373.146C1048.58 373.285 1042.07 373.492 1036.12 373.769L1035.91 366.082C1049.07 364.703 1057.83 361.803 1062.19 357.382C1066.55 352.961 1068.74 343.843 1068.74 330.028C1068.74 328.923 1068.67 326.849 1068.53 323.808C1068.39 320.767 1068.32 318.349 1068.32 316.554L1067.49 267.226C1066.93 243.045 1062.47 225.534 1054.09 214.693C1045.71 203.852 1032.59 198.427 1014.72 198.42C1007.55 198.458 1000.44 199.613 993.628 201.842C985.659 204.51 978.025 208.091 970.878 212.513V321.113C970.878 339.352 973.129 351.269 977.63 356.866C982.131 362.463 991.1 365.536 1004.54 366.087L1004.33 373.774C998.511 373.5 992.139 373.292 985.214 373.151C978.289 373.01 967.97 372.94 954.257 372.943C940.96 372.943 930.988 373.012 924.339 373.151C917.69 373.29 911.665 373.495 906.264 373.766Z" fill="white"/>
<path d="M1299.42 322.656L1305.45 327.851C1294.51 343.784 1282.11 355.834 1268.26 364.001C1254.63 372.115 1239.04 376.353 1223.17 376.259C1197.96 376.259 1176.77 367.014 1159.6 348.525C1142.42 330.036 1133.84 306.939 1133.84 279.234C1133.84 250.147 1143.01 225.527 1161.36 205.372C1179.72 185.217 1202.05 175.141 1228.36 175.144C1249.56 175.144 1266.63 181.1 1279.58 193.012C1292.53 204.924 1299.56 221.199 1300.67 241.836C1276.98 241.005 1254.51 240.381 1233.25 239.966C1211.99 239.551 1191.8 239.343 1172.68 239.343C1171.72 243.169 1171.03 247.056 1170.61 250.978C1170.18 255.05 1169.97 259.142 1169.98 263.236C1169.98 288.03 1177.19 308.599 1191.59 324.942C1206 341.285 1223.93 349.457 1245.4 349.458C1255.69 349.543 1265.87 347.232 1275.11 342.708C1284.61 337.919 1292.91 331.068 1299.42 322.656V322.656ZM1257.66 228.747C1254.89 214.619 1250.25 203.78 1243.74 196.23C1237.23 188.68 1229.27 184.906 1219.85 184.909C1209.05 184.909 1199.52 189.03 1191.28 197.273C1183.04 205.516 1177.4 216.7 1174.35 230.825L1257.66 228.747Z" fill="white"/>
<path d="M1743.83 340.568V348.242C1720.28 358.896 1697.91 366.818 1676.72 372.007C1656.68 377.052 1636.1 379.665 1615.43 379.791C1564.32 379.791 1523.26 365.974 1492.23 338.34C1461.21 310.706 1445.69 274.314 1445.69 229.163C1445.69 206.309 1449.92 185.359 1458.37 166.312C1466.82 147.265 1479.49 130.332 1496.39 115.512C1512.82 101.058 1531.91 89.9425 1552.59 82.7871C1573.71 75.3817 1596.67 71.6774 1621.46 71.6741C1638.66 71.7109 1655.82 73.1702 1672.78 76.0371C1690.68 79.0553 1708.32 83.4309 1725.55 89.1261C1724.86 100.486 1724.27 112.433 1723.79 124.967C1723.3 137.501 1722.92 150.901 1722.64 165.167H1716.2C1709.83 138.3 1698.09 117.767 1680.98 103.567C1663.88 89.3671 1642.17 82.2691 1615.85 82.2731C1579.56 82.2731 1550.27 94.4281 1527.97 118.738C1505.67 143.048 1494.52 175.148 1494.52 215.038C1494.43 234.401 1497.99 253.607 1505.01 271.655C1512.01 289.599 1522.33 306.059 1535.45 320.166C1548.74 334.572 1565.09 345.688 1584.48 353.514C1604.37 361.434 1625.61 365.42 1647.02 365.251C1660.86 365.251 1670.11 363.109 1674.75 358.824C1679.39 354.539 1681.71 345.343 1681.71 331.235V290.581C1681.71 273.714 1677.69 261.788 1669.66 254.802C1661.63 247.816 1646.67 243.425 1624.78 241.628V233.941C1636.14 234.162 1647.26 234.355 1658.13 234.52C1669.01 234.685 1679.84 234.769 1690.65 234.772C1701.73 234.772 1712.63 234.703 1723.37 234.565C1734.1 234.427 1744.6 234.219 1754.84 233.941L1755.05 241.628C1742.17 243.29 1733.55 246.99 1729.19 252.728C1724.82 258.466 1722.64 270.599 1722.64 289.128V340.569L1743.83 340.568Z" fill="white"/>
<path d="M1805.48 259.779V150.579C1805.48 132.035 1804.68 119.51 1803.09 113.005C1801.5 106.5 1798.63 101.585 1794.47 98.2621C1789.12 94.1316 1783.07 91.0019 1776.6 89.0241C1768.83 86.7099 1760.81 85.3499 1752.71 84.9741V77.2871C1761.71 77.5658 1771.34 77.7734 1781.59 77.9101C1791.84 78.0468 1807.35 78.1161 1828.13 78.1181C1849.18 78.1181 1864.94 78.0488 1875.39 77.9101C1885.85 77.7714 1895.58 77.5638 1904.58 77.2871L1904.79 84.9741C1881.53 85.6681 1865.84 90.3054 1857.73 98.8861C1849.63 107.467 1845.58 124.559 1845.58 150.164V255.628C1845.58 276.391 1847.14 292.377 1850.25 303.586C1853.05 314.217 1858.44 323.988 1865.94 332.023C1874.39 341.023 1885.19 347.944 1898.35 352.787C1911.51 357.63 1926.26 360.052 1942.6 360.054C1963.1 360.054 1979.9 356.354 1992.99 348.954C2006.08 341.554 2016.5 329.685 2024.26 313.347C2028.13 305.183 2030.86 293.383 2032.46 277.947C2034.05 262.511 2034.85 237.911 2034.85 204.147C2034.85 171.21 2033.98 148.306 2032.25 135.435C2030.51 122.564 2027.57 113.013 2023.42 106.781C2018.32 99.492 2011.16 93.8913 2002.85 90.6951C1994.12 87.1671 1982.98 85.2631 1969.4 84.9831V77.2871C1977.02 77.5658 1985.12 77.7734 1993.7 77.9101C2002.29 78.0468 2015.31 78.1161 2032.76 78.1181C2050.36 78.1181 2063.48 78.0488 2072.13 77.9101C2080.78 77.7714 2088.78 77.5638 2096.13 77.2871V84.9741H2095.3C2078.54 84.9741 2067.04 91.4104 2060.81 104.283C2054.58 117.156 2051.46 149.614 2051.46 201.658C2051.46 206.083 2051.39 212.726 2051.26 221.586C2050.7 269.756 2046.68 302.491 2039.21 319.792C2030.61 339.725 2016.41 354.846 1996.61 365.155C1976.8 375.464 1952.15 380.62 1922.65 380.623C1898.96 380.623 1878.74 377.439 1861.98 371.07C1845.22 364.701 1832.2 355.219 1822.92 342.624C1816.54 333.71 1811.98 323.619 1809.52 312.935C1806.83 301.721 1805.48 284.002 1805.48 259.779Z" fill="white"/>
<path d="M2112.06 373.766V366.079C2133.67 364.837 2148.28 360.38 2155.9 352.707C2163.52 345.034 2167.33 328.001 2167.33 301.607V149.24C2167.33 122.982 2163.59 106.051 2156.11 98.4481C2148.63 90.8448 2133.95 86.3534 2112.06 84.9741V77.2871C2120.65 77.2871 2133.5 77.4258 2150.61 77.7031C2167.72 77.9804 2180.49 78.1188 2188.94 78.1181C2197.38 78.1181 2209.95 77.9798 2226.65 77.7031C2243.34 77.4264 2255.77 77.2878 2263.94 77.2871V84.9741C2242.05 86.3581 2227.37 90.9188 2219.89 98.6561C2212.41 106.393 2208.67 123.255 2208.67 149.24V301.606C2208.67 327.868 2212.45 344.901 2220 352.706C2227.55 360.511 2242.2 364.968 2263.94 366.078L2263.73 373.765C2242.68 373.35 2226.99 373.108 2216.67 373.04C2206.36 372.972 2196.7 372.937 2187.69 372.934C2178.68 372.934 2169.02 372.969 2158.7 373.04C2148.38 373.111 2132.84 373.353 2112.06 373.766Z" fill="white"/>
<path d="M2280.8 373.766V366.079C2302.82 364.293 2317.61 359.617 2325.16 352.052C2332.71 344.487 2336.48 329.771 2336.48 307.905V139.824C2336.48 120.228 2332.95 106.775 2325.88 99.4651C2318.81 92.1551 2305.31 87.3248 2285.37 84.9741V77.2871C2309.19 77.0131 2334.54 76.6314 2361.41 76.1421C2388.28 75.6528 2403.52 75.4111 2407.12 75.4171C2469.17 75.4171 2517.78 88.9218 2552.97 115.931C2588.15 142.94 2605.74 179.922 2605.74 226.877C2605.74 272.864 2588.94 309.049 2555.36 335.432C2521.77 361.815 2475.47 375.009 2416.47 375.013C2405.11 375.013 2384.15 374.839 2353.61 374.491C2323.07 374.143 2298.8 373.901 2280.8 373.766ZM2377.41 295.855C2377.41 323.421 2381.84 341.738 2390.71 350.806C2399.58 359.874 2416.13 364.411 2440.36 364.417C2473.74 364.417 2501.03 352.436 2522.22 328.474C2543.42 304.512 2554.01 273.209 2554.01 234.565C2554.01 187.888 2538.74 151.322 2508.2 124.865C2477.66 98.4084 2435.31 85.1808 2381.15 85.1821H2377.41L2377.41 295.855Z" fill="white"/>
<path d="M2632.82 223.969C2632.82 177.845 2647.46 141.001 2676.76 113.438C2706.05 85.8747 2745.15 72.093 2794.04 72.093C2842.1 72.093 2880.57 86.324 2909.45 114.786C2938.33 143.248 2952.77 181.096 2952.77 228.331C2952.77 273.765 2938.06 310.296 2908.62 337.925C2879.19 365.554 2840.16 379.371 2791.55 379.376C2743.48 379.376 2705.01 365.248 2676.14 336.992C2647.27 308.736 2632.82 271.062 2632.82 223.969ZM2683.52 217.943C2683.52 261.715 2694.04 297.415 2715.1 325.043C2736.15 352.671 2763.02 366.49 2795.7 366.5C2827.83 366.5 2853.67 354.242 2873.2 329.725C2892.73 305.208 2902.5 272.52 2902.5 231.661C2902.56 213.981 2900.26 196.372 2895.64 179.304C2891.07 162.546 2884.56 147.795 2876.11 135.05C2864.75 117.877 2851.98 105.135 2837.78 96.822C2823.58 88.512 2807.48 84.3567 2789.48 84.356C2757.76 84.356 2732.17 96.614 2712.71 121.13C2693.25 145.646 2683.52 177.917 2683.51 217.943H2683.52Z" fill="white"/>
<path d="M2951.79 373.766L2951.58 366.079C2973.46 364.974 2988.38 357.827 2996.35 344.64C3004.32 331.453 3008.3 304.212 3008.3 262.917V181.3C3008.3 177.574 3008.37 172.604 3008.51 166.39C3008.65 160.176 3008.71 155.825 3008.71 153.336C3008.71 139.942 3007.33 129.585 3004.56 122.264C3001.59 114.661 2996.9 107.853 2990.85 102.376C2985.17 97.2356 2978.58 93.1975 2971.42 90.4681C2963.33 87.3807 2954.82 85.5296 2946.18 84.9771V77.2871C2950.75 77.2871 2957.4 77.4258 2966.12 77.7031C2974.85 77.9804 2981.22 78.1188 2985.24 78.1181C2989.39 78.1181 2995.42 77.9798 3003.31 77.7031C3011.21 77.4264 3016.96 77.2878 3020.56 77.2871L3233.31 304.762V206.777C3233.31 170.044 3232.3 145.255 3230.29 132.411C3228.28 119.567 3224.72 110.039 3219.59 103.828C3215.29 98.3021 3209.2 94.0201 3201.31 90.9821C3193.42 87.9441 3183.65 85.9414 3172.01 84.9741V77.2871C3179.49 77.5658 3187.52 77.7734 3196.11 77.9101C3204.7 78.0468 3217.23 78.1161 3233.71 78.1181C3250.06 78.1181 3262.14 78.0488 3269.97 77.9101C3277.8 77.7714 3284.97 77.5638 3291.47 77.2871V84.9741H3288.15C3273.05 84.9741 3262.49 92.5701 3256.46 107.762C3250.44 122.954 3247.43 151.195 3247.43 192.486V283.216C3247.43 304.349 3247.6 323.083 3247.95 339.416C3248.3 355.749 3248.74 370.869 3249.3 384.775H3246.8C3238.21 374.837 3228.9 364.132 3218.86 352.66C3208.82 341.188 3203.25 334.819 3202.13 333.554L3022.22 143.184V227.084C3022.22 268.38 3023.01 296.173 3024.61 310.463C3026.2 324.753 3028.93 335.007 3032.81 341.226C3036.41 347.159 3042.23 352.061 3050.27 355.932C3058.3 359.803 3069.66 363.117 3084.34 365.874V373.774H3083.09C3053.86 373.222 3032.05 372.945 3017.65 372.943C3009.61 372.943 3000.96 373.012 2991.68 373.151C2982.4 373.29 2969.1 373.495 2951.79 373.766Z" fill="white"/>
</g>
<defs>
<clipPath id="clip0_59_1206">
<rect width="3291.48" height="453.082" fill="white"/>
</clipPath>
</defs>
</svg>
