<svg width="537" height="262" viewBox="0 0 537 262" fill="none" xmlns="http://www.w3.org/2000/svg">
<path d="M61.3256 4.57304H83.0856V7.45304H77.1656C75.6723 7.45304 74.6589 8.19971 74.1256 9.69304L49.6456 68.733V100.253C49.6456 101.746 50.3923 102.493 51.8856 102.493H63.4056V105.373H22.7656V102.493H34.2856C35.7789 102.493 36.5256 101.746 36.5256 100.253V68.573L9.32561 9.69304C8.57895 8.19971 7.56561 7.45304 6.28561 7.45304H0.365613V4.57304H30.9256V7.45304H22.9256L47.4056 60.573L69.3256 7.45304H61.3256V4.57304ZM102.704 34.333C110.064 34.333 115.878 36.7864 120.144 41.693C124.411 46.5997 126.544 53.7997 126.544 63.293C126.544 65.213 126.438 67.3464 126.224 69.693H82.5444V70.813C82.5444 80.9464 84.3577 88.9464 87.9844 94.813C91.7177 100.573 96.4644 103.453 102.224 103.453C108.091 103.453 112.891 101.96 116.624 98.973C120.358 95.9864 122.918 91.7197 124.304 86.173L127.344 86.813C126.064 93.3197 123.131 98.3864 118.544 102.013C113.958 105.533 108.678 107.293 102.704 107.293C93.4244 107.293 85.691 104.04 79.5044 97.533C73.4244 91.0264 70.3844 82.173 70.3844 70.973C70.3844 59.6664 73.4777 50.7597 79.6644 44.253C85.851 37.6397 93.531 34.333 102.704 34.333ZM115.504 57.853C115.504 44.733 110.598 38.173 100.784 38.173C95.8777 38.173 91.6644 40.8397 88.1444 46.173C84.731 51.5064 82.9177 58.2797 82.7044 66.493H114.864C115.291 62.8664 115.504 59.9864 115.504 57.853ZM175.569 68.093L175.729 62.493V56.893C175.729 44.413 171.676 38.173 163.569 38.173C160.049 38.173 157.276 39.3997 155.249 41.853C153.329 44.1997 152.369 46.973 152.369 50.173C152.369 53.373 152.796 56.1464 153.649 58.493C151.836 60.093 149.329 60.893 146.129 60.893C142.929 60.893 141.329 58.2797 141.329 53.053C141.329 47.8264 143.356 43.3997 147.409 39.773C151.569 36.1464 157.436 34.333 165.009 34.333C179.836 34.333 187.249 43.0797 187.249 60.573V93.373C187.249 99.133 188.849 102.013 192.049 102.013C193.543 102.013 194.823 101.32 195.889 99.933C197.063 98.5464 197.649 96.9464 197.649 95.133C197.649 93.3197 197.489 91.613 197.169 90.013L200.209 89.533C200.636 91.133 200.849 92.893 200.849 94.813C200.849 98.653 199.676 101.693 197.329 103.933C195.089 106.173 192.103 107.293 188.369 107.293C184.636 107.293 181.596 105.8 179.249 102.813C176.903 99.7197 175.729 95.133 175.729 89.053V86.173C173.916 93.4264 171.036 98.7597 167.089 102.173C163.143 105.586 158.556 107.293 153.329 107.293C148.209 107.293 144.049 105.693 140.849 102.493C137.756 99.1864 136.209 94.8664 136.209 89.533C136.209 84.093 138.716 79.293 143.729 75.133C148.743 70.8664 155.943 68.733 165.329 68.733C167.356 68.733 170.769 68.9997 175.569 69.533V68.093ZM157.009 101.213C161.489 101.213 165.489 98.7064 169.009 93.693C172.636 88.573 174.769 81.4264 175.409 72.253C174.343 72.1464 172.849 72.093 170.929 72.093C162.396 72.093 156.263 73.9064 152.529 77.533C148.903 81.053 147.089 85.1597 147.089 89.853C147.089 92.9464 147.996 95.613 149.809 97.853C151.623 100.093 154.023 101.213 157.009 101.213ZM245.647 34.333C249.807 34.333 253.167 36.093 255.727 39.613C258.394 43.133 259.727 47.5597 259.727 52.893C259.727 58.2264 257.54 60.893 253.167 60.893C250.607 60.893 248.527 60.093 246.927 58.493C248.314 55.3997 249.007 52.253 249.007 49.053C249.007 43.3997 246.66 40.573 241.967 40.573C238.02 40.573 234.5 43.8797 231.407 50.493C228.42 56.9997 226.927 66.493 226.927 78.973V100.253C226.927 101.746 227.674 102.493 229.167 102.493H239.887V105.373H205.647V102.493H213.167C214.66 102.493 215.407 101.746 215.407 100.253V41.373C215.407 39.8797 214.66 39.133 213.167 39.133H205.647V36.253H213.487C219.887 36.253 224.367 35.933 226.927 35.293V55.773C228.634 48.413 231.14 43.0264 234.447 39.613C237.754 36.093 241.487 34.333 245.647 34.333ZM260.478 71.613V65.213H300.798V71.613H260.478ZM306.322 105.373V102.493H313.842C315.335 102.493 316.082 101.746 316.082 100.253V9.37304C316.082 8.09304 315.335 7.45304 313.842 7.45304H306.322V4.57304H357.042C365.469 4.57304 371.389 4.09304 374.802 3.13304C373.842 7.50637 373.362 13.5864 373.362 21.373V28.893H369.682L367.282 12.573C367.069 10.2264 365.575 9.05304 362.802 9.05304H329.202V52.733H361.362C362.642 52.733 363.389 51.9864 363.602 50.493L364.402 40.573H367.282V69.373H364.402L363.602 59.453C363.389 57.9597 362.642 57.213 361.362 57.213H329.202V100.893H365.042C367.815 100.893 369.309 99.7197 369.522 97.373L371.922 78.653H375.602V86.173C375.602 95.5597 376.082 102.44 377.042 106.813C373.629 105.853 367.709 105.373 359.282 105.373H306.322ZM450.898 58.653V100.573C450.898 101.853 451.645 102.493 453.138 102.493H460.658V105.373H431.858V102.493H437.138C438.631 102.493 439.378 101.853 439.378 100.573V56.573C439.378 51.133 438.151 47.133 435.698 44.573C433.351 41.9064 430.205 40.573 426.258 40.573C420.711 40.573 416.125 43.8797 412.498 50.493C408.871 56.9997 407.058 66.3864 407.058 78.653V100.253C407.058 101.746 407.805 102.493 409.298 102.493H414.578V105.373H385.778V102.493H393.298C394.791 102.493 395.538 101.853 395.538 100.573V41.373C395.538 39.8797 394.791 39.133 393.298 39.133H385.778V36.253H393.618C400.018 36.253 404.498 35.933 407.058 35.293V57.053C410.685 41.9064 418.685 34.333 431.058 34.333C436.605 34.333 441.298 36.3597 445.138 40.413C448.978 44.3597 450.898 50.4397 450.898 58.653ZM515.354 106.333V92.573C509.381 102.386 502.288 107.293 494.074 107.293C485.968 107.293 479.568 104.04 474.874 97.533C470.181 91.0264 467.834 82.173 467.834 70.973C467.834 59.773 470.821 50.8664 476.794 44.253C482.768 37.6397 490.288 34.333 499.354 34.333C505.221 34.333 510.554 35.773 515.354 38.653V6.81304C515.354 5.3197 514.608 4.57304 513.114 4.57304H505.594V1.69305H513.434C519.834 1.69305 524.314 1.37304 526.874 0.73304V100.253C526.874 101.746 527.621 102.493 529.114 102.493H536.634V105.373H528.794C522.394 105.373 517.914 105.693 515.354 106.333ZM499.674 39.133C494.234 39.133 489.594 41.9064 485.754 47.453C481.914 52.893 479.994 60.5197 479.994 70.333C479.994 80.1464 481.541 87.773 484.634 93.213C487.834 98.5464 491.834 101.213 496.634 101.213C503.568 101.213 509.808 96.3597 515.354 86.653V43.613C510.448 40.6264 505.221 39.133 499.674 39.133ZM112.904 127.293C103.198 127.293 95.3577 131.56 89.3844 140.093C83.5177 148.626 80.5844 160.306 80.5844 175.133C80.5844 189.96 83.571 201.586 89.5444 210.013C95.5177 218.44 102.984 222.653 111.944 222.653C121.011 222.653 127.304 220.36 130.824 215.773C134.451 211.08 136.264 204.253 136.264 195.293V188.893C136.264 187.613 135.518 186.973 134.024 186.973H123.304V184.093H155.944V186.973H151.624C150.131 186.973 149.384 187.613 149.384 188.893V194.653C149.384 204.146 145.971 211.986 139.144 218.173C132.318 224.253 123.571 227.293 112.904 227.293C99.4644 227.293 88.4244 222.653 79.7844 213.373C71.251 204.093 66.9844 191.346 66.9844 175.133C66.9844 158.813 71.1977 146.013 79.6244 136.733C88.1577 127.346 99.251 122.653 112.904 122.653C119.838 122.653 126.771 124.413 133.704 127.933C135.944 129.106 137.544 129.693 138.504 129.693C140.104 129.693 140.958 128.573 141.064 126.333L141.224 123.613H144.264V151.293H141.384C140.424 143.08 137.331 137.053 132.104 133.213C126.984 129.266 120.584 127.293 112.904 127.293ZM196.876 188.093L197.036 182.493V176.893C197.036 164.413 192.982 158.173 184.876 158.173C181.356 158.173 178.582 159.4 176.556 161.853C174.636 164.2 173.676 166.973 173.676 170.173C173.676 173.373 174.102 176.146 174.956 178.493C173.142 180.093 170.636 180.893 167.436 180.893C164.236 180.893 162.636 178.28 162.636 173.053C162.636 167.826 164.662 163.4 168.716 159.773C172.876 156.146 178.742 154.333 186.316 154.333C201.142 154.333 208.556 163.08 208.556 180.573V213.373C208.556 219.133 210.156 222.013 213.356 222.013C214.849 222.013 216.129 221.32 217.196 219.933C218.369 218.546 218.956 216.946 218.956 215.133C218.956 213.32 218.796 211.613 218.476 210.013L221.516 209.533C221.942 211.133 222.156 212.893 222.156 214.813C222.156 218.653 220.982 221.693 218.636 223.933C216.396 226.173 213.409 227.293 209.676 227.293C205.942 227.293 202.902 225.8 200.556 222.813C198.209 219.72 197.036 215.133 197.036 209.053V206.173C195.222 213.426 192.342 218.76 188.396 222.173C184.449 225.586 179.862 227.293 174.636 227.293C169.516 227.293 165.356 225.693 162.156 222.493C159.062 219.186 157.516 214.866 157.516 209.533C157.516 204.093 160.022 199.293 165.036 195.133C170.049 190.866 177.249 188.733 186.636 188.733C188.662 188.733 192.076 189 196.876 189.533V188.093ZM178.316 221.213C182.796 221.213 186.796 218.706 190.316 213.693C193.942 208.573 196.076 201.426 196.716 192.253C195.649 192.146 194.156 192.093 192.236 192.093C183.702 192.093 177.569 193.906 173.836 197.533C170.209 201.053 168.396 205.16 168.396 209.853C168.396 212.946 169.302 215.613 171.116 217.853C172.929 220.093 175.329 221.213 178.316 221.213ZM234.313 220.253V126.813C234.313 125.32 233.566 124.573 232.073 124.573H224.553V121.693H232.393C238.793 121.693 243.273 121.373 245.833 120.733V220.253C245.833 221.746 246.58 222.493 248.073 222.493H255.593V225.373H224.553V222.493H232.073C233.566 222.493 234.313 221.746 234.313 220.253ZM270.138 220.253V126.813C270.138 125.32 269.391 124.573 267.898 124.573H260.378V121.693H268.218C274.618 121.693 279.098 121.373 281.658 120.733V220.253C281.658 221.746 282.405 222.493 283.898 222.493H291.418V225.373H260.378V222.493H267.898C269.391 222.493 270.138 221.746 270.138 220.253ZM330.123 154.333C337.483 154.333 343.296 156.786 347.563 161.693C351.83 166.6 353.963 173.8 353.963 183.293C353.963 185.213 353.856 187.346 353.643 189.693H309.963V190.813C309.963 200.946 311.776 208.946 315.403 214.813C319.136 220.573 323.883 223.453 329.643 223.453C335.51 223.453 340.31 221.96 344.043 218.973C347.776 215.986 350.336 211.72 351.723 206.173L354.763 206.813C353.483 213.32 350.55 218.386 345.963 222.013C341.376 225.533 336.096 227.293 330.123 227.293C320.843 227.293 313.11 224.04 306.923 217.533C300.843 211.026 297.803 202.173 297.803 190.973C297.803 179.666 300.896 170.76 307.083 164.253C313.27 157.64 320.95 154.333 330.123 154.333ZM342.923 177.853C342.923 164.733 338.016 158.173 328.203 158.173C323.296 158.173 319.083 160.84 315.563 166.173C312.15 171.506 310.336 178.28 310.123 186.493H342.283C342.71 182.866 342.923 179.986 342.923 177.853ZM404.428 154.333C408.588 154.333 411.948 156.093 414.508 159.613C417.175 163.133 418.508 167.56 418.508 172.893C418.508 178.226 416.321 180.893 411.948 180.893C409.388 180.893 407.308 180.093 405.708 178.493C407.095 175.4 407.788 172.253 407.788 169.053C407.788 163.4 405.441 160.573 400.748 160.573C396.801 160.573 393.281 163.88 390.188 170.493C387.201 177 385.708 186.493 385.708 198.973V220.253C385.708 221.746 386.455 222.493 387.948 222.493H398.668V225.373H364.428V222.493H371.948C373.441 222.493 374.188 221.746 374.188 220.253V161.373C374.188 159.88 373.441 159.133 371.948 159.133H364.428V156.253H372.268C378.668 156.253 383.148 155.933 385.708 155.293V175.773C387.415 168.413 389.921 163.026 393.228 159.613C396.535 156.093 400.268 154.333 404.428 154.333ZM460.859 156.253H481.179V159.133H475.259C474.299 159.133 473.553 159.88 473.019 161.373L445.339 235.453C445.019 236.413 444.486 237.853 443.739 239.773L441.979 244.093C441.659 245.053 441.179 246.333 440.539 247.933C439.899 249.64 439.366 250.92 438.939 251.773C438.513 252.733 437.979 253.853 437.339 255.133C436.593 256.733 435.526 258.226 434.139 259.613C432.753 261.106 431.313 261.853 429.819 261.853C428.326 261.853 426.726 260.893 425.019 258.973C423.419 257.16 422.459 255.186 422.139 253.053C431.846 248.893 438.459 241.96 441.979 232.253L444.699 224.893L421.019 161.373C420.486 159.88 419.739 159.133 418.779 159.133H412.859V156.253H440.059V159.133H432.059L450.459 209.693L469.019 159.133H460.859V156.253Z" fill="white"/>
</svg>
