<svg
  width="544"
  height="262"
  viewBox="0 0 544 262"
  fill="none"
  xmlns="http://www.w3.org/2000/svg"
>
  <path
    d="M61.3912 4.57304H83.1512V7.45304H77.2312C75.7379 7.45304 74.7246 8.19971 74.1912 9.69304L49.7112 68.733V100.253C49.7112 101.746 50.4579 102.493 51.9512 102.493H63.4712V105.373H22.8312V102.493H34.3512C35.8446 102.493 36.5912 101.746 36.5912 100.253V68.573L9.39123 9.69304C8.64456 8.19971 7.63123 7.45304 6.35123 7.45304H0.431226V4.57304H30.9912V7.45304H22.9912L47.4712 60.573L69.3912 7.45304H61.3912V4.57304ZM102.77 34.333C110.13 34.333 115.943 36.7864 120.21 41.693C124.477 46.5997 126.61 53.7997 126.61 63.293C126.61 65.213 126.503 67.3464 126.29 69.693H82.61V70.813C82.61 80.9464 84.4233 88.9464 88.05 94.813C91.7833 100.573 96.53 103.453 102.29 103.453C108.157 103.453 112.957 101.96 116.69 98.973C120.423 95.9864 122.983 91.7197 124.37 86.173L127.41 86.813C126.13 93.3197 123.197 98.3864 118.61 102.013C114.023 105.533 108.743 107.293 102.77 107.293C93.49 107.293 85.7566 104.04 79.57 97.533C73.49 91.0264 70.45 82.173 70.45 70.973C70.45 59.6664 73.5433 50.7597 79.73 44.253C85.9166 37.6397 93.5966 34.333 102.77 34.333ZM115.57 57.853C115.57 44.733 110.663 38.173 100.85 38.173C95.9433 38.173 91.73 40.8397 88.21 46.173C84.7966 51.5064 82.9833 58.2797 82.77 66.493H114.93C115.357 62.8664 115.57 59.9864 115.57 57.853ZM175.635 68.093L175.795 62.493V56.893C175.795 44.413 171.742 38.173 163.635 38.173C160.115 38.173 157.342 39.3997 155.315 41.853C153.395 44.1997 152.435 46.973 152.435 50.173C152.435 53.373 152.862 56.1464 153.715 58.493C151.902 60.093 149.395 60.893 146.195 60.893C142.995 60.893 141.395 58.2797 141.395 53.053C141.395 47.8264 143.422 43.3997 147.475 39.773C151.635 36.1464 157.502 34.333 165.075 34.333C179.902 34.333 187.315 43.0797 187.315 60.573V93.373C187.315 99.133 188.915 102.013 192.115 102.013C193.608 102.013 194.888 101.32 195.955 99.933C197.128 98.5464 197.715 96.9464 197.715 95.133C197.715 93.3197 197.555 91.613 197.235 90.013L200.275 89.533C200.702 91.133 200.915 92.893 200.915 94.813C200.915 98.653 199.742 101.693 197.395 103.933C195.155 106.173 192.168 107.293 188.435 107.293C184.702 107.293 181.662 105.8 179.315 102.813C176.968 99.7197 175.795 95.133 175.795 89.053V86.173C173.982 93.4264 171.102 98.7597 167.155 102.173C163.208 105.586 158.622 107.293 153.395 107.293C148.275 107.293 144.115 105.693 140.915 102.493C137.822 99.1864 136.275 94.8664 136.275 89.533C136.275 84.093 138.782 79.293 143.795 75.133C148.808 70.8664 156.008 68.733 165.395 68.733C167.422 68.733 170.835 68.9997 175.635 69.533V68.093ZM157.075 101.213C161.555 101.213 165.555 98.7064 169.075 93.693C172.702 88.573 174.835 81.4264 175.475 72.253C174.408 72.1464 172.915 72.093 170.995 72.093C162.462 72.093 156.328 73.9064 152.595 77.533C148.968 81.053 147.155 85.1597 147.155 89.853C147.155 92.9464 148.062 95.613 149.875 97.853C151.688 100.093 154.088 101.213 157.075 101.213ZM245.712 34.333C249.872 34.333 253.232 36.093 255.792 39.613C258.459 43.133 259.792 47.5597 259.792 52.893C259.792 58.2264 257.606 60.893 253.232 60.893C250.672 60.893 248.592 60.093 246.992 58.493C248.379 55.3997 249.072 52.253 249.072 49.053C249.072 43.3997 246.726 40.573 242.032 40.573C238.086 40.573 234.566 43.8797 231.472 50.493C228.486 56.9997 226.992 66.493 226.992 78.973V100.253C226.992 101.746 227.739 102.493 229.232 102.493H239.952V105.373H205.712V102.493H213.232C214.726 102.493 215.472 101.746 215.472 100.253V41.373C215.472 39.8797 214.726 39.133 213.232 39.133H205.712V36.253H213.552C219.952 36.253 224.432 35.933 226.992 35.293V55.773C228.699 48.413 231.206 43.0264 234.512 39.613C237.819 36.093 241.552 34.333 245.712 34.333ZM260.544 71.613V65.213H300.864V71.613H260.544ZM306.387 105.373V102.493H313.907C315.401 102.493 316.147 101.746 316.147 100.253V9.37304C316.147 8.09304 315.401 7.45304 313.907 7.45304H306.387V4.57304H357.107C365.534 4.57304 371.454 4.09304 374.867 3.13304C373.907 7.50637 373.427 13.5864 373.427 21.373V28.893H369.747L367.347 12.573C367.134 10.2264 365.641 9.05304 362.867 9.05304H329.267V52.733H361.427C362.707 52.733 363.454 51.9864 363.667 50.493L364.467 40.573H367.347V69.373H364.467L363.667 59.453C363.454 57.9597 362.707 57.213 361.427 57.213H329.267V100.893H365.107C367.881 100.893 369.374 99.7197 369.587 97.373L371.987 78.653H375.667V86.173C375.667 95.5597 376.147 102.44 377.107 106.813C373.694 105.853 367.774 105.373 359.347 105.373H306.387ZM450.964 58.653V100.573C450.964 101.853 451.71 102.493 453.204 102.493H460.724V105.373H431.924V102.493H437.204C438.697 102.493 439.444 101.853 439.444 100.573V56.573C439.444 51.133 438.217 47.133 435.764 44.573C433.417 41.9064 430.27 40.573 426.324 40.573C420.777 40.573 416.19 43.8797 412.564 50.493C408.937 56.9997 407.124 66.3864 407.124 78.653V100.253C407.124 101.746 407.87 102.493 409.364 102.493H414.644V105.373H385.844V102.493H393.364C394.857 102.493 395.604 101.853 395.604 100.573V41.373C395.604 39.8797 394.857 39.133 393.364 39.133H385.844V36.253H393.684C400.084 36.253 404.564 35.933 407.124 35.293V57.053C410.75 41.9064 418.75 34.333 431.124 34.333C436.67 34.333 441.364 36.3597 445.204 40.413C449.044 44.3597 450.964 50.4397 450.964 58.653ZM515.42 106.333V92.573C509.447 102.386 502.353 107.293 494.14 107.293C486.033 107.293 479.633 104.04 474.94 97.533C470.247 91.0264 467.9 82.173 467.9 70.973C467.9 59.773 470.887 50.8664 476.86 44.253C482.833 37.6397 490.353 34.333 499.42 34.333C505.287 34.333 510.62 35.773 515.42 38.653V6.81304C515.42 5.3197 514.673 4.57304 513.18 4.57304H505.66V1.69305H513.5C519.9 1.69305 524.38 1.37304 526.94 0.73304V100.253C526.94 101.746 527.687 102.493 529.18 102.493H536.7V105.373H528.86C522.46 105.373 517.98 105.693 515.42 106.333ZM499.74 39.133C494.3 39.133 489.66 41.9064 485.82 47.453C481.98 52.893 480.06 60.5197 480.06 70.333C480.06 80.1464 481.607 87.773 484.7 93.213C487.9 98.5464 491.9 101.213 496.7 101.213C503.633 101.213 509.873 96.3597 515.42 86.653V43.613C510.513 40.6264 505.287 39.133 499.74 39.133ZM174.789 127.293C165.082 127.293 157.242 131.56 151.269 140.093C145.402 148.626 142.469 160.306 142.469 175.133C142.469 189.96 145.455 201.586 151.429 210.013C157.402 218.44 164.869 222.653 173.829 222.653C182.895 222.653 189.189 220.36 192.709 215.773C196.335 211.08 198.149 204.253 198.149 195.293V188.893C198.149 187.613 197.402 186.973 195.909 186.973H185.189V184.093H217.829V186.973H213.509C212.015 186.973 211.269 187.613 211.269 188.893V194.653C211.269 204.146 207.855 211.986 201.029 218.173C194.202 224.253 185.455 227.293 174.789 227.293C161.349 227.293 150.309 222.653 141.669 213.373C133.135 204.093 128.869 191.346 128.869 175.133C128.869 158.813 133.082 146.013 141.509 136.733C150.042 127.346 161.135 122.653 174.789 122.653C181.722 122.653 188.655 124.413 195.589 127.933C197.829 129.106 199.429 129.693 200.389 129.693C201.989 129.693 202.842 128.573 202.949 126.333L203.109 123.613H206.149V151.293H203.269C202.309 143.08 199.215 137.053 193.989 133.213C188.869 129.266 182.469 127.293 174.789 127.293ZM258.76 188.093L258.92 182.493V176.893C258.92 164.413 254.867 158.173 246.76 158.173C243.24 158.173 240.467 159.4 238.44 161.853C236.52 164.2 235.56 166.973 235.56 170.173C235.56 173.373 235.987 176.146 236.84 178.493C235.027 180.093 232.52 180.893 229.32 180.893C226.12 180.893 224.52 178.28 224.52 173.053C224.52 167.826 226.547 163.4 230.6 159.773C234.76 156.146 240.627 154.333 248.2 154.333C263.027 154.333 270.44 163.08 270.44 180.573V213.373C270.44 219.133 272.04 222.013 275.24 222.013C276.733 222.013 278.013 221.32 279.08 219.933C280.253 218.546 280.84 216.946 280.84 215.133C280.84 213.32 280.68 211.613 280.36 210.013L283.4 209.533C283.827 211.133 284.04 212.893 284.04 214.813C284.04 218.653 282.867 221.693 280.52 223.933C278.28 226.173 275.293 227.293 271.56 227.293C267.827 227.293 264.787 225.8 262.44 222.813C260.093 219.72 258.92 215.133 258.92 209.053V206.173C257.107 213.426 254.227 218.76 250.28 222.173C246.333 225.586 241.747 227.293 236.52 227.293C231.4 227.293 227.24 225.693 224.04 222.493C220.947 219.186 219.4 214.866 219.4 209.533C219.4 204.093 221.907 199.293 226.92 195.133C231.933 190.866 239.133 188.733 248.52 188.733C250.547 188.733 253.96 189 258.76 189.533V188.093ZM240.2 221.213C244.68 221.213 248.68 218.706 252.2 213.693C255.827 208.573 257.96 201.426 258.6 192.253C257.533 192.146 256.04 192.093 254.12 192.093C245.587 192.093 239.453 193.906 235.72 197.533C232.093 201.053 230.28 205.16 230.28 209.853C230.28 212.946 231.187 215.613 233 217.853C234.813 220.093 237.213 221.213 240.2 221.213ZM296.197 220.253V126.813C296.197 125.32 295.451 124.573 293.957 124.573H286.437V121.693H294.277C300.677 121.693 305.157 121.373 307.717 120.733V220.253C307.717 221.746 308.464 222.493 309.957 222.493H317.477V225.373H286.437V222.493H293.957C295.451 222.493 296.197 221.746 296.197 220.253ZM332.022 220.253V126.813C332.022 125.32 331.276 124.573 329.782 124.573H322.262V121.693H330.102C336.502 121.693 340.982 121.373 343.542 120.733V220.253C343.542 221.746 344.289 222.493 345.782 222.493H353.302V225.373H322.262V222.493H329.782C331.276 222.493 332.022 221.746 332.022 220.253ZM392.007 154.333C399.367 154.333 405.181 156.786 409.447 161.693C413.714 166.6 415.847 173.8 415.847 183.293C415.847 185.213 415.741 187.346 415.527 189.693H371.847V190.813C371.847 200.946 373.661 208.946 377.287 214.813C381.021 220.573 385.767 223.453 391.527 223.453C397.394 223.453 402.194 221.96 405.927 218.973C409.661 215.986 412.221 211.72 413.607 206.173L416.647 206.813C415.367 213.32 412.434 218.386 407.847 222.013C403.261 225.533 397.981 227.293 392.007 227.293C382.727 227.293 374.994 224.04 368.807 217.533C362.727 211.026 359.687 202.173 359.687 190.973C359.687 179.666 362.781 170.76 368.967 164.253C375.154 157.64 382.834 154.333 392.007 154.333ZM404.807 177.853C404.807 164.733 399.901 158.173 390.087 158.173C385.181 158.173 380.967 160.84 377.447 166.173C374.034 171.506 372.221 178.28 372.007 186.493H404.167C404.594 182.866 404.807 179.986 404.807 177.853ZM466.312 154.333C470.472 154.333 473.832 156.093 476.392 159.613C479.059 163.133 480.392 167.56 480.392 172.893C480.392 178.226 478.206 180.893 473.832 180.893C471.272 180.893 469.192 180.093 467.592 178.493C468.979 175.4 469.672 172.253 469.672 169.053C469.672 163.4 467.326 160.573 462.632 160.573C458.686 160.573 455.166 163.88 452.072 170.493C449.086 177 447.592 186.493 447.592 198.973V220.253C447.592 221.746 448.339 222.493 449.832 222.493H460.552V225.373H426.312V222.493H433.832C435.326 222.493 436.072 221.746 436.072 220.253V161.373C436.072 159.88 435.326 159.133 433.832 159.133H426.312V156.253H434.152C440.552 156.253 445.032 155.933 447.592 155.293V175.773C449.299 168.413 451.806 163.026 455.112 159.613C458.419 156.093 462.152 154.333 466.312 154.333ZM522.744 156.253H543.064V159.133H537.144C536.184 159.133 535.437 159.88 534.904 161.373L507.224 235.453C506.904 236.413 506.37 237.853 505.624 239.773L503.864 244.093C503.544 245.053 503.064 246.333 502.424 247.933C501.784 249.64 501.25 250.92 500.824 251.773C500.397 252.733 499.864 253.853 499.224 255.133C498.477 256.733 497.41 258.226 496.024 259.613C494.637 261.106 493.197 261.853 491.704 261.853C490.21 261.853 488.61 260.893 486.904 258.973C485.304 257.16 484.344 255.186 484.024 253.053C493.73 248.893 500.344 241.96 503.864 232.253L506.584 224.893L482.904 161.373C482.37 159.88 481.624 159.133 480.664 159.133H474.744V156.253H501.944V159.133H493.944L512.344 209.693L530.904 159.133H522.744V156.253Z"
    fill="#FAF0E6"
  />
</svg>
