<svg width="207" height="37" viewBox="0 0 207 37" fill="none" xmlns="http://www.w3.org/2000/svg">
<g clip-path="url(#clip0_162_845)">
<mask id="mask0_162_845" style="mask-type:luminance" maskUnits="userSpaceOnUse" x="-47" y="0" width="254" height="36">
<path d="M206.96 0.887207H-46.9503V35.8387H206.96V0.887207Z" fill="white"/>
</mask>
<g mask="url(#mask0_162_845)">
<path d="M13.5374 22.8404C13.5374 24.4827 13.6043 25.6398 13.738 26.3118C13.8717 26.9838 14.0988 27.4743 14.4191 27.7833C14.7609 28.1034 15.2204 28.3728 15.7974 28.5914C16.3744 28.81 17.1117 28.9886 18.0092 29.1272L17.9932 29.7201C16.3797 29.699 15.1509 29.683 14.3069 29.6721C13.4629 29.6612 12.6829 29.6558 11.967 29.656C10.6312 29.656 8.63844 29.6774 5.98847 29.7201H5.89228V29.1272C6.80039 28.9887 7.54565 28.8101 8.12807 28.5914C8.71049 28.3727 9.16725 28.1033 9.49842 27.7833C9.82959 27.4743 10.062 26.9839 10.1956 26.3118C10.3292 25.6397 10.3961 24.4826 10.3962 22.8404V7.95517H8.12051C6.06901 7.95517 4.57315 8.27037 3.63287 8.90077C2.69259 9.53117 2.01413 10.6371 1.59741 12.2184L1.03644 12.1222L1.66128 5.7915H2.04591L3.03957 6.84927C4.06533 6.84927 5.57731 6.85462 7.57551 6.86532C9.57371 6.87601 11.0696 6.88128 12.0631 6.88113C13.046 6.88113 14.5205 6.87578 16.4866 6.86508C18.4527 6.85439 19.9219 6.84904 20.8941 6.84904L21.9835 5.7915H22.2399L22.8009 12.1865L22.272 12.2984C21.8874 10.739 21.2169 9.62521 20.2606 8.95724C19.3043 8.28924 17.886 7.95522 16.0055 7.95517H13.537L13.5374 22.8404Z" fill="white"/>
<path d="M22.9604 29.7204L22.9443 29.1274C23.938 29.0847 24.5978 28.8821 24.9237 28.5197C25.2496 28.1572 25.4126 27.214 25.4126 25.69L25.3805 10.5841C25.3805 9.911 25.3191 9.40086 25.1962 9.05373C25.065 8.69402 24.8476 8.3719 24.5631 8.11561L23.7136 7.39441V7.1059L27.7365 5.47119L28.073 5.63165L27.8807 16.6891C29.0027 15.9311 30.039 15.3597 30.9897 14.9752C31.9409 14.5906 32.7848 14.3984 33.5223 14.3986C35.0505 14.3986 36.1667 14.8306 36.8718 15.6945C37.5776 16.5585 37.9564 17.9665 38.0096 19.9186L38.1539 26.0899C38.1971 27.4116 38.373 28.2244 38.6831 28.5281C38.9932 28.8319 39.6234 29.0317 40.5746 29.1276V29.7206C40.1681 29.6995 39.7114 29.6834 39.2038 29.6725C38.697 29.6617 37.9194 29.6563 36.8718 29.6565C35.825 29.6565 35.0289 29.6618 34.4843 29.6725C33.9389 29.6833 33.4367 29.6992 32.9777 29.7206L32.9615 29.1276C33.9767 29.0212 34.6524 28.7975 34.9888 28.4565C35.3251 28.1154 35.494 27.4121 35.494 26.3463C35.494 26.2611 35.4886 26.1011 35.4778 25.8665C35.467 25.6319 35.4616 25.4454 35.4616 25.3069L35.3976 21.5017C35.3544 19.6363 35.0104 18.2855 34.3639 17.4492C33.7175 16.6129 32.7054 16.1944 31.3269 16.1939C30.7737 16.1968 30.2253 16.2859 29.6998 16.4579C29.085 16.6637 28.4961 16.9399 27.9448 17.281V25.6586C27.9448 27.0656 28.1185 27.9849 28.4657 28.4167C28.8129 28.8484 29.5048 29.0855 30.5416 29.128L30.5254 29.721C30.0765 29.6998 29.5849 29.6838 29.0507 29.6729C28.5165 29.662 27.7205 29.6566 26.6626 29.6569C25.6369 29.6569 24.8676 29.6622 24.3547 29.6729C23.8418 29.6836 23.377 29.6995 22.9604 29.7204Z" fill="white"/>
<path d="M53.2891 25.7778L53.7543 26.1785C52.9103 27.4076 51.9538 28.3372 50.8854 28.9672C49.8339 29.5931 48.6313 29.92 47.4071 29.9128C45.4623 29.9128 43.8277 29.1996 42.5032 27.7733C41.1779 26.3471 40.516 24.5653 40.516 22.4281C40.516 20.1843 41.2234 18.2851 42.6389 16.7303C44.0553 15.1755 45.7778 14.3982 47.8074 14.3984C49.4428 14.3984 50.7596 14.8579 51.7586 15.7768C52.7576 16.6957 53.2999 17.9512 53.3855 19.5432C51.5581 19.4791 49.8247 19.4309 48.1846 19.3989C46.5446 19.3669 44.9871 19.3509 43.5122 19.3509C43.4381 19.646 43.3849 19.9458 43.3525 20.2484C43.3193 20.5625 43.3031 20.8782 43.3039 21.194C43.3039 23.1067 43.8601 24.6934 44.9709 25.9541C46.0825 27.2148 47.4657 27.8452 49.1219 27.8453C49.9157 27.8519 50.701 27.6736 51.4138 27.3246C52.1466 26.9552 52.7869 26.4267 53.2891 25.7778ZM50.0677 18.5335C49.854 17.4436 49.4961 16.6075 48.9939 16.025C48.4917 15.4426 47.8776 15.1515 47.1509 15.1517C46.3178 15.1517 45.5827 15.4696 44.947 16.1055C44.3114 16.7414 43.8763 17.6041 43.641 18.6938L50.0677 18.5335Z" fill="white"/>
<path d="M87.5716 27.1594V27.7514C85.7549 28.5733 84.0292 29.1844 82.3946 29.5847C80.8487 29.9739 79.2611 30.1754 77.6666 30.1852C73.7239 30.1852 70.5565 29.1193 68.1627 26.9876C65.7698 24.8558 64.5726 22.0485 64.5726 18.5655C64.5726 16.8025 64.8989 15.1863 65.5507 13.717C66.2026 12.2477 67.18 10.9415 68.4837 9.79823C69.7511 8.68323 71.2237 7.82576 72.819 7.27378C74.4482 6.70251 76.2194 6.41676 78.1318 6.4165C79.4586 6.41934 80.7824 6.53192 82.0907 6.75307C83.4715 6.9859 84.8323 7.32344 86.1614 7.76278C86.1082 8.6391 86.0627 9.56071 86.0257 10.5276C85.9879 11.4945 85.9586 12.5282 85.937 13.6287H85.4402C84.9488 11.5561 84.0431 9.97219 82.7232 8.87678C81.4041 7.78137 79.7294 7.23382 77.699 7.23413C74.8995 7.23413 72.64 8.17178 70.9198 10.0471C69.1995 11.9224 68.3394 14.3987 68.3394 17.4758C68.3325 18.9695 68.6071 20.4511 69.1486 21.8434C69.6886 23.2276 70.4847 24.4973 71.4968 25.5856C72.522 26.6969 73.7833 27.5544 75.2791 28.1581C76.8134 28.7691 78.4519 29.0765 80.1035 29.0635C81.1712 29.0635 81.8847 28.8983 82.2426 28.5677C82.6006 28.2372 82.7796 27.5278 82.7796 26.4395V23.3033C82.7796 22.0022 82.4694 21.0822 81.85 20.5433C81.2306 20.0044 80.0765 19.6657 78.3879 19.527V18.934C79.2642 18.9511 80.122 18.966 80.9606 18.9787C81.7999 18.9914 82.6353 18.9979 83.4692 18.9981C84.3239 18.9981 85.1648 18.9928 85.9933 18.9822C86.821 18.9715 87.631 18.9555 88.4209 18.934L88.4371 19.527C87.4435 19.6552 86.7786 19.9407 86.4422 20.3833C86.1051 20.8259 85.937 21.7619 85.937 23.1913V27.1595L87.5716 27.1594Z" fill="white"/>
<path d="M92.3274 20.9273V12.5035C92.3274 11.073 92.2656 10.1068 92.143 9.60495C92.0203 9.10314 91.7989 8.72399 91.478 8.46766C91.0653 8.14902 90.5986 7.90759 90.0995 7.75502C89.5001 7.5765 88.8814 7.47159 88.2566 7.4426V6.84961C88.9509 6.87111 89.6937 6.88712 90.4844 6.89767C91.2751 6.90821 92.4716 6.91356 94.0746 6.91371C95.6985 6.91371 96.9142 6.90837 97.7203 6.89767C98.5272 6.88697 99.2778 6.87095 99.9721 6.84961L99.9883 7.4426C98.194 7.49613 96.9836 7.85386 96.358 8.51579C95.7332 9.17774 95.4207 10.4962 95.4207 12.4715V20.6071C95.4207 22.2088 95.5411 23.442 95.781 24.3067C95.997 25.1268 96.4128 25.8805 96.9913 26.5004C97.6432 27.1946 98.4763 27.7285 99.4915 28.1021C100.507 28.4757 101.645 28.6626 102.905 28.6627C104.486 28.6627 105.782 28.3773 106.792 27.8064C107.802 27.2356 108.606 26.32 109.204 25.0597C109.503 24.4299 109.714 23.5196 109.837 22.3288C109.96 21.1381 110.021 19.2404 110.021 16.6358C110.021 14.095 109.954 12.3281 109.821 11.3352C109.687 10.3423 109.46 9.60556 109.14 9.12482C108.746 8.56253 108.194 8.13048 107.553 7.88392C106.879 7.61177 106.02 7.46489 104.972 7.44329V6.84961C105.56 6.87111 106.185 6.88712 106.847 6.89767C107.51 6.90821 108.514 6.91356 109.86 6.91371C111.218 6.91371 112.23 6.90837 112.897 6.89767C113.564 6.88697 114.182 6.87095 114.749 6.84961V7.4426H114.685C113.392 7.4426 112.505 7.9391 112.024 8.93212C111.543 9.92516 111.303 12.429 111.303 16.4438C111.303 16.7851 111.297 17.2976 111.287 17.9811C111.244 21.697 110.934 24.2222 110.358 25.5568C109.694 27.0945 108.599 28.261 107.071 29.0562C105.543 29.8515 103.642 30.2492 101.366 30.2494C99.5386 30.2494 97.9788 30.0038 96.6859 29.5125C95.393 29.0212 94.3886 28.2897 93.6727 27.3181C93.1806 26.6305 92.8288 25.8521 92.639 25.0279C92.4315 24.1628 92.3274 22.7959 92.3274 20.9273Z" fill="white"/>
<path d="M115.977 29.7205V29.1275C117.645 29.0317 118.772 28.6879 119.359 28.096C119.947 27.504 120.241 26.1901 120.241 24.154V12.4002C120.241 10.3746 119.953 9.0685 119.376 8.482C118.799 7.89547 117.666 7.549 115.977 7.4426V6.84961C116.64 6.84961 117.631 6.86031 118.951 6.8817C120.271 6.90309 121.256 6.91377 121.908 6.91371C122.559 6.91371 123.529 6.90305 124.817 6.8817C126.105 6.86036 127.063 6.84966 127.694 6.84961V7.4426C126.005 7.54936 124.873 7.90118 124.296 8.49805C123.719 9.09489 123.43 10.3956 123.43 12.4002V24.1539C123.43 26.1798 123.722 27.4938 124.304 28.0959C124.887 28.698 126.017 29.0418 127.694 29.1274L127.678 29.7204C126.054 29.6884 124.843 29.6697 124.047 29.6645C123.252 29.6592 122.507 29.6565 121.812 29.6563C121.117 29.6563 120.371 29.659 119.575 29.6645C118.779 29.67 117.58 29.6886 115.977 29.7205Z" fill="white"/>
<path d="M128.994 29.7202V29.1272C130.693 28.9895 131.834 28.6287 132.416 28.0452C132.999 27.4616 133.29 26.3264 133.29 24.6396V11.6735C133.29 10.1619 133.017 9.12409 132.472 8.56019C131.927 7.99628 130.885 7.62367 129.347 7.44233V6.84934C131.184 6.8282 133.14 6.79876 135.213 6.76101C137.286 6.72327 138.461 6.70462 138.739 6.70509C143.526 6.70509 147.275 7.74686 149.99 9.8304C152.704 11.9139 154.061 14.7668 154.061 18.389C154.061 21.9365 152.765 24.7278 150.174 26.7631C147.583 28.7983 144.012 29.8161 139.46 29.8164C138.584 29.8164 136.967 29.803 134.611 29.7761C132.255 29.7493 130.383 29.7306 128.994 29.7202ZM136.447 23.71C136.447 25.8365 136.789 27.2495 137.473 27.949C138.157 28.6486 139.434 28.9986 141.303 28.999C143.878 28.999 145.983 28.0748 147.618 26.2263C149.253 24.3778 150.07 21.9631 150.07 18.982C150.07 15.3813 148.892 12.5605 146.536 10.5196C144.18 8.47867 140.914 7.45827 136.736 7.45837H136.447V23.71Z" fill="white"/>
<path d="M156.15 18.1647C156.15 14.6066 157.279 11.7644 159.539 9.63815C161.799 7.51187 164.815 6.44873 168.587 6.44873C172.294 6.44873 175.262 7.54653 177.489 9.74214C179.717 11.9377 180.831 14.8574 180.831 18.5012C180.831 22.006 179.696 24.8241 177.425 26.9555C175.155 29.0868 172.144 30.1527 168.394 30.1531C164.686 30.1531 161.719 29.0632 159.492 26.8835C157.264 24.7038 156.15 21.7975 156.15 18.1647ZM160.061 17.6998C160.061 21.0765 160.872 23.8304 162.497 25.9617C164.121 28.093 166.194 29.159 168.715 29.1598C171.193 29.1598 173.186 28.2142 174.693 26.3229C176.2 24.4316 176.953 21.91 176.953 18.7581C176.958 17.3942 176.781 16.0358 176.424 14.7192C176.072 13.4264 175.569 12.2885 174.918 11.3053C174.041 9.98058 173.056 8.99765 171.961 8.35637C170.865 7.71532 169.623 7.39477 168.235 7.39472C165.788 7.39472 163.814 8.34032 162.313 10.2315C160.811 12.1227 160.061 14.6122 160.06 17.6998H160.061Z" fill="white"/>
<path d="M180.756 29.7205L180.739 29.1275C182.427 29.0423 183.578 28.4909 184.193 27.4737C184.808 26.4564 185.115 24.355 185.115 21.1694V14.8733C185.115 14.5859 185.12 14.2025 185.131 13.7232C185.142 13.2438 185.147 12.9082 185.147 12.7161C185.147 11.6829 185.04 10.884 184.826 10.3192C184.597 9.73269 184.236 9.20751 183.769 8.78501C183.331 8.38847 182.822 8.07696 182.27 7.86641C181.646 7.62825 180.989 7.48545 180.323 7.44283V6.84961C180.675 6.84961 181.188 6.86031 181.861 6.8817C182.535 6.90309 183.026 6.91377 183.336 6.91371C183.656 6.91371 184.121 6.90305 184.73 6.8817C185.339 6.86036 185.783 6.84966 186.061 6.84961L202.473 24.3974V16.8387C202.473 14.005 202.395 12.0928 202.24 11.102C202.085 10.1112 201.81 9.37615 201.414 8.89702C201.082 8.47074 200.613 8.14042 200.004 7.90606C199.395 7.67171 198.642 7.51722 197.744 7.4426V6.84961C198.321 6.87111 198.94 6.88712 199.603 6.89767C200.266 6.90821 201.232 6.91356 202.503 6.91371C203.765 6.91371 204.697 6.90837 205.301 6.89767C205.905 6.88697 206.458 6.87095 206.959 6.84961V7.4426H206.703C205.538 7.4426 204.724 8.02857 204.258 9.20049C203.794 10.3724 203.562 12.551 203.562 15.7362V22.7353C203.562 24.3655 203.575 25.8107 203.602 27.0707C203.629 28.3306 203.663 29.497 203.706 30.5697H203.513C202.851 29.8031 202.132 28.9773 201.358 28.0923C200.583 27.2074 200.154 26.716 200.067 26.6185L186.189 11.933V18.4052C186.189 21.5908 186.25 23.7348 186.373 24.8372C186.496 25.9395 186.706 26.7306 187.006 27.2103C187.283 27.668 187.732 28.0461 188.353 28.3447C188.972 28.6434 189.848 28.899 190.981 29.1117V29.7211H190.884C188.63 29.6785 186.947 29.6571 185.836 29.657C185.216 29.657 184.549 29.6623 183.833 29.673C183.117 29.6838 182.091 29.6996 180.756 29.7205Z" fill="white"/>
</g>
</g>
<defs>
<clipPath id="clip0_162_845">
<rect width="206.546" height="35.2144" fill="white" transform="translate(0.453735 0.887207)"/>
</clipPath>
</defs>
</svg>
