<svg width="94" height="71" viewBox="0 0 94 71" fill="none" xmlns="http://www.w3.org/2000/svg">
<g clip-path="url(#clip0_162_847)">
<g clip-path="url(#clip1_162_847)">
<mask id="mask0_162_847" style="mask-type:luminance" maskUnits="userSpaceOnUse" x="0" y="0" width="508" height="71">
<path d="M507.82 0.500977H0V70.404H507.82V0.500977Z" fill="white"/>
</mask>
<g mask="url(#mask0_162_847)">
<path d="M14.8168 44.9041L14.6801 44.8336C14.6362 44.8083 14.601 44.7702 14.5792 44.7244C14.5574 44.6787 14.55 44.6273 14.5579 44.5773C14.6108 43.8908 14.6185 42.1705 13.5538 41.0236C12.4812 39.8688 12.4359 38.1693 12.3967 36.6694C12.3885 36.3655 12.3813 36.0785 12.3658 35.8032C12.3003 34.6659 12.0881 34.5239 11.3858 34.0534C11.1737 33.9113 10.9097 33.7343 10.6057 33.4972C9.09377 32.3175 9.23264 27.0271 9.45311 25.2335C9.83882 22.1064 10.413 20.0341 11.1609 19.0721C12.2717 17.6436 12.7861 16.4697 12.6523 16.2886C12.6389 16.2836 12.6247 16.2807 12.6104 16.2801C11.6885 16.2093 11.7448 15.3613 11.772 14.954C11.7763 14.8875 11.7806 14.8267 11.7806 14.7752C11.7806 14.3813 12.4829 12.7498 12.6983 12.259C14.3217 8.57502 18.996 2.83722 19.043 2.77967L19.2843 2.48438L19.4349 2.83475C22.4354 9.8224 24.5789 10.8916 26.3013 11.7506C26.4619 11.8309 26.6193 11.9092 26.7736 11.9904L26.9949 12.1067L26.8607 12.3195C24.9617 15.3393 19.917 18.9759 19.035 19.1598L18.9562 19.1761L18.9716 19.1885L19.0512 19.249C19.4653 19.5615 20.0323 19.9895 20.0645 21.2145C20.0929 22.2945 18.4049 24.5625 16.7724 26.7573C16.4833 27.1459 16.2033 27.5224 15.9469 27.8743C14.5977 29.7257 14.9183 30.0758 15.4495 30.6548C15.5053 30.7165 15.5629 30.7782 15.6206 30.8446C16.3611 31.6902 16.36 31.8687 15.6071 34.6605C15.0363 36.7782 15.181 37.3794 15.4697 38.5773C15.5522 38.9199 15.6457 39.3084 15.7364 39.7902C16.1067 41.7553 15.2037 44.6273 14.9362 44.8199L14.8168 44.9041ZM19.1608 3.37012C18.1869 4.58988 14.5084 9.29629 13.1204 12.4455C12.698 13.4084 12.2419 14.5732 12.2419 14.7752C12.2419 14.8354 12.2373 14.9068 12.2322 14.9847C12.1947 15.5475 12.2438 15.7879 12.6445 15.8188C12.7361 15.8209 12.8253 15.8489 12.9018 15.8995C12.9782 15.9501 13.0388 16.0213 13.0764 16.105C13.4208 16.8836 11.7201 19.1055 11.5251 19.3563C10.8392 20.2382 10.2811 22.2902 9.91131 25.2901C9.7502 26.7713 9.73211 28.2648 9.85733 29.7496C10.0144 31.5342 10.381 32.7355 10.8895 33.1323C11.1802 33.3592 11.4256 33.5237 11.6424 33.6689C12.4292 34.1958 12.7511 34.4619 12.8268 35.7767C12.8432 36.0589 12.8509 36.3496 12.8591 36.6572C12.8969 38.0748 12.9397 39.6812 13.8927 40.7087C14.631 41.5037 14.9089 42.528 14.9999 43.3695C15.2523 42.4129 15.4973 41.0185 15.2818 39.8749C15.1932 39.4045 15.1011 39.0222 15.0195 38.6846C14.7222 37.4504 14.5583 36.7715 15.1602 34.5391C15.8853 31.8494 15.8625 31.8237 15.2721 31.1485C15.2168 31.0851 15.1617 31.0251 15.1082 30.9668C14.4213 30.2179 14.0762 29.6554 15.5726 27.6009C15.8299 27.2476 16.1109 26.8701 16.4009 26.4802C17.8378 24.5487 19.6255 22.1449 19.6017 21.2256C19.5753 20.2239 19.1487 19.9016 18.7723 19.6174L18.6893 19.5544C18.6152 19.4975 18.5489 19.4526 18.495 19.4156C18.3562 19.3212 18.2113 19.2235 18.2472 19.0405C18.2866 18.8412 18.4381 18.8091 18.9398 18.705C19.6139 18.5646 24.3552 15.2274 26.33 12.2832C26.2516 12.2436 26.1723 12.204 26.0922 12.1643C24.3329 11.2872 22.1498 10.1984 19.1608 3.37012Z" fill="white"/>
<path d="M22.1 8.44591C22.1 8.44591 23.0192 10.0542 21.8913 16.8852C20.011 18.3475 19.7186 18.5564 19.7186 18.5564C19.7186 18.5564 20.4283 15.0887 20.3453 12.0389C20.2623 8.98899 19.0293 3.09814 19.0293 3.09814L19.2206 2.92627L22.1 8.44591Z" fill="white"/>
<path d="M17.1074 5.70898C17.1074 5.70898 18.8622 11.0359 18.4235 18.9948C18.8215 19.3512 19.1788 19.7505 19.4889 20.1855C19.2935 19.9922 19.0562 19.8464 18.7953 19.7596C18.5345 19.6725 18.2571 19.6468 17.9848 19.6841C17.0448 19.8096 16.2928 20.2482 16.1674 18.4307C16.0419 16.6133 16.9821 12.1013 14.7887 9.03055C16.3554 6.58639 17.1074 5.70898 17.1074 5.70898Z" fill="white"/>
<path d="M13.0341 11.9761C13.0341 11.9761 14.4754 13.3548 14.7887 15.7988C15.1021 18.2428 14.9142 20.9376 16.8569 21.1883C18.7996 21.439 19.8336 21.2192 19.8336 21.2192L18.7368 23.8199C18.7368 23.8199 16.1047 24.3212 15.1021 21.9398C14.0994 19.5585 14.6635 16.425 12.6268 16.049C11.718 15.7357 12.0104 14.7748 12.0104 14.7748L13.0341 11.9761Z" fill="white"/>
<path d="M12.3447 17.8042C12.3447 17.8042 13.4727 18.5563 13.7234 21.6897C13.9741 24.823 17.1074 25.8885 17.1074 25.8885L15.3527 28.3326C15.3527 28.3326 13.786 26.8285 13.41 25.4499C13.034 24.0712 13.1593 21.1258 10.4015 21.3768C10.6525 20.1857 11.9059 18.4309 12.3447 17.8042Z" fill="white"/>
<path d="M9.96316 22.9429C9.96316 22.9429 11.5299 24.9486 12.2192 26.515C12.9086 28.0814 15.0394 30.7138 15.0394 30.7138L15.854 31.5286L15.9168 32.5939C15.9168 32.5939 14.9768 32.0299 14.0993 31.4658C13.2219 30.9017 12.7833 30.1498 12.2192 29.3984C11.6552 28.647 10.9032 27.9571 9.52454 27.2677C9.58281 25.8186 9.72929 24.3743 9.96316 22.9429Z" fill="white"/>
<path d="M9.58716 29.0845C9.58716 29.0845 11.0913 31.1519 11.6553 31.4658C12.2194 31.7798 14.0993 32.3432 14.6007 33.2833C15.1022 34.2233 15.4154 34.85 15.4154 34.85L14.9767 37.1061C14.9767 37.1061 14.4127 35.2887 13.5353 34.7246C12.6579 34.1605 10.5267 33.4086 10.2765 32.8447C10.0262 32.2808 9.58716 29.0845 9.58716 29.0845Z" fill="white"/>
<path d="M12.47 35.6021C12.47 35.6021 13.5353 37.3569 14.0994 38.1088C14.6634 38.8608 15.6034 40.3649 15.6034 40.3649L15.4154 42.4956C15.4154 42.4956 15.2901 40.9288 14.538 40.4282C13.7859 39.9275 12.7207 39.4253 12.7207 39.1748C12.7207 38.9242 12.47 35.6021 12.47 35.6021Z" fill="white"/>
<path d="M45.2458 49.5808C41.9481 49.5808 38.7245 48.603 35.9826 46.7709C33.2407 44.9388 31.1037 42.3348 29.8416 39.2881C28.5798 36.2415 28.2496 32.8891 28.8928 29.6548C29.5362 26.4204 31.1242 23.4496 33.456 21.1179C35.7877 18.786 38.7586 17.198 41.993 16.5548C45.2272 15.9114 48.5797 16.2416 51.6263 17.5035C54.6729 18.7655 57.2769 20.9025 59.109 23.6444C60.9411 26.3863 61.919 29.6099 61.919 32.9076C61.9141 37.3281 60.1557 41.5661 57.0301 44.6919C53.9043 47.8177 49.6663 49.5759 45.2458 49.5808ZM45.2458 17.1602C42.1311 17.1602 39.0865 18.0837 36.4968 19.8142C33.9072 21.5445 31.8888 24.0039 30.6968 26.8814C29.505 29.759 29.1932 32.9253 29.8008 35.98C30.4085 39.0348 31.9083 41.8406 34.1107 44.043C36.3129 46.2454 39.1189 47.7452 42.1737 48.3528C45.2283 48.9603 48.3947 48.6485 51.2722 47.4565C54.1496 46.2647 56.609 44.2462 58.3395 41.6565C60.0698 39.0669 60.9933 36.0221 60.9933 32.9076C60.9885 28.7325 59.328 24.7298 56.3758 21.7778C53.4235 18.8255 49.4208 17.1648 45.2458 17.1602Z" fill="white"/>
<path d="M45.2877 48.0102C42.309 48.0102 39.3972 47.1269 36.9205 45.4721C34.4439 43.8172 32.5135 41.465 31.3737 38.7131C30.2337 35.9611 29.9354 32.933 30.5166 30.0115C31.0976 27.09 32.532 24.4066 34.6383 22.3003C36.7446 20.194 39.428 18.7596 42.3495 18.1786C45.271 17.5974 48.2992 17.8956 51.0511 19.0356C53.8031 20.1755 56.1553 22.1059 57.8101 24.5824C59.4649 27.0591 60.3482 29.9709 60.3482 32.9497C60.3437 36.9425 58.7555 40.7708 55.9322 43.5942C53.1088 46.4175 49.2806 48.0057 45.2877 48.0102ZM45.2877 18.1977C42.37 18.1977 39.518 19.063 37.092 20.6839C34.6661 22.3049 32.7752 24.6088 31.6586 27.3043C30.5421 29.9999 30.25 32.966 30.8192 35.8277C31.3885 38.6892 32.7934 41.3179 34.8565 43.3809C36.9195 45.444 39.5482 46.8489 42.4097 47.4182C45.2713 47.9874 48.2374 47.6953 50.9331 46.5788C53.6286 45.4622 55.9325 43.5713 57.5535 41.1454C59.1744 38.7194 60.0397 35.8673 60.0397 32.9497C60.0353 29.0386 58.4797 25.2889 55.714 22.5232C52.9485 19.7577 49.1988 18.2022 45.2877 18.1977Z" fill="white"/>
<path d="M79.1653 47.3473L78.7333 47.203C78.7441 47.1318 79.7873 40.04 78.0928 37.0746C77.4012 35.8644 76.48 34.6866 75.589 33.5476C74.2146 31.7909 73.0279 30.2737 73.0279 29.0636C73.0485 28.233 73.1572 27.4068 73.3519 26.599C73.5148 25.8198 73.6555 25.147 73.5344 24.6016C73.4625 24.2878 73.3742 23.978 73.2701 23.6734C73.0802 23.0896 72.8648 22.4279 72.653 20.8215C72.3194 18.2856 72.1168 17.2542 70.4313 17.1997C68.3958 17.1341 67.1187 16.6682 63.4342 12.484L63.2307 12.2526L63.5092 12.1213C63.541 12.1059 66.7115 10.5913 68.4089 8.08573C71.0768 4.14734 71.2095 2.92619 71.2106 2.91431L71.2701 2.22559L71.6375 2.80739C72.526 4.22541 75.1243 7.91556 76.4631 7.96323L76.484 7.964C78.3662 8.03127 78.7365 8.13541 79.2523 11.0367C79.3603 11.6421 79.4798 12.4083 79.6188 13.2956C80.128 16.5482 80.8261 21.0028 81.7614 22.9903C82.4108 24.3703 81.8148 26.3754 81.3099 27.7635L81.293 27.8098C80.1096 30.9936 81.071 33.0798 81.5398 33.8291C82.6399 35.5894 82.5704 38.4066 81.3334 42.203C80.7468 43.972 80.0218 45.6921 79.1653 47.3473ZM63.9802 12.4032C67.4053 16.2603 68.5442 16.6759 70.4461 16.7372C72.5917 16.8064 72.7987 18.3797 73.1121 20.7612C73.3179 22.3253 73.5262 22.9654 73.7099 23.5303C73.8187 23.8489 73.9108 24.173 73.9858 24.5013C74.1287 25.1441 73.9786 25.8623 73.8045 26.6938C73.6169 27.4705 73.5115 28.2649 73.4901 29.0636C73.4901 30.114 74.6863 31.6434 75.9528 33.2625C76.8539 34.4145 77.7858 35.6057 78.494 36.8449C79.8173 39.1606 79.579 43.6565 79.3538 45.916C80.5698 43.3057 83.0646 37.1435 81.1466 34.0743C80.6421 33.2671 79.6037 31.0249 80.859 27.6485L80.8744 27.6058C81.149 26.8508 81.9852 24.5532 81.3422 23.1878C80.3787 21.1403 79.6748 16.6478 79.1611 13.3676C79.0222 12.4828 78.9028 11.7188 78.796 11.1182C78.3293 8.4935 78.1531 8.48717 76.4664 8.427H76.4455C75.6468 8.39862 74.5238 7.47554 73.1075 5.68369C72.4393 4.83822 71.8578 3.98874 71.5287 3.49287C71.2818 4.19625 70.6126 5.65777 68.7909 8.34678C67.3013 10.5461 64.81 11.9704 63.9802 12.4032Z" fill="white"/>
<path d="M76.5708 16.3753C76.5003 16.0513 76.4218 15.7273 76.3198 15.4121C76.2723 15.2198 76.1823 15.0406 76.0566 14.8875C75.9295 14.7491 75.7617 14.6544 75.5774 14.6169C74.903 14.5043 74.5738 15.2842 74.5943 15.8435C74.6057 16.1321 74.6649 16.4168 74.7699 16.6859C74.8536 16.944 74.9988 17.1779 75.1929 17.3675C75.3196 17.4804 75.4791 17.5499 75.648 17.5654C75.817 17.5812 75.9865 17.5424 76.1319 17.4548C76.4602 17.2388 76.5639 16.8377 76.5832 16.4674C76.5825 16.3755 76.5458 16.2875 76.4809 16.2226C76.4159 16.1576 76.328 16.1209 76.236 16.1203C76.1447 16.1223 76.0575 16.1595 75.9927 16.2241C75.9281 16.2887 75.8909 16.3759 75.8889 16.4674C75.8872 16.4998 75.8847 16.532 75.8819 16.5643C75.8819 16.5703 75.8734 16.6209 75.8805 16.5797C75.8879 16.5351 75.8767 16.5961 75.8745 16.6066C75.8631 16.6646 75.8412 16.7189 75.8282 16.7763C75.8404 16.7251 75.8437 16.7454 75.8241 16.7825C75.8122 16.8056 75.7949 16.827 75.784 16.8503C75.7685 16.8812 75.8012 16.824 75.8063 16.823C75.8017 16.823 75.7898 16.8426 75.786 16.8463C75.7789 16.8531 75.7705 16.8605 75.7648 16.8679C75.7304 16.9079 75.7823 16.8457 75.79 16.8513C75.79 16.8513 75.7455 16.8787 75.7417 16.8821C75.6974 16.913 75.8188 16.8564 75.7463 16.8781C75.7445 16.8781 75.719 16.8854 75.7189 16.8846C75.7167 16.8775 75.8 16.8834 75.7638 16.8784C75.7587 16.8784 75.6946 16.8784 75.6946 16.8784C75.6973 16.8702 75.7818 16.8963 75.704 16.8763C75.6857 16.8716 75.6024 16.8417 75.6673 16.867C75.7267 16.8901 75.6761 16.867 75.6612 16.8591C75.6031 16.8266 75.706 16.9054 75.6712 16.8676C75.6433 16.838 75.615 16.8073 75.5866 16.7783C75.5627 16.7539 75.6096 16.8062 75.6095 16.8079C75.6095 16.8027 75.594 16.7863 75.591 16.7817C75.5769 16.7601 75.5624 16.7388 75.549 16.7167C75.5223 16.6731 75.4981 16.628 75.4757 16.582C75.4648 16.5598 75.4555 16.5367 75.4449 16.5148C75.4271 16.4804 75.4543 16.5378 75.4549 16.5395C75.4487 16.524 75.4421 16.5077 75.4359 16.4918C75.3949 16.3849 75.3612 16.2752 75.3352 16.1636C75.322 16.1078 75.3114 16.0515 75.3018 15.9948C75.2992 15.982 75.2972 15.9691 75.296 15.9561C75.296 15.9572 75.3021 16.0245 75.3003 15.9842C75.2991 15.9547 75.2943 15.9251 75.2924 15.8956C75.289 15.8428 75.2878 15.7899 75.2895 15.737C75.2895 15.7137 75.2921 15.6907 75.2937 15.6674C75.2987 15.5866 75.2818 15.716 75.2937 15.6603C75.3045 15.6091 75.3182 15.5585 75.3347 15.5088C75.3398 15.4942 75.3719 15.4163 75.3581 15.445C75.3444 15.4736 75.3824 15.3987 75.3905 15.3843C75.4046 15.3592 75.4223 15.3363 75.4368 15.3113C75.4555 15.2788 75.4199 15.3385 75.4165 15.3379C75.4186 15.3379 75.4348 15.3172 75.4373 15.315C75.4482 15.305 75.499 15.2615 75.4515 15.2978C75.404 15.334 75.4617 15.2959 75.4739 15.2874C75.5167 15.2578 75.3898 15.3172 75.4563 15.2971C75.5137 15.2799 75.4058 15.2971 75.4219 15.2998C75.4362 15.3017 75.4507 15.3017 75.4649 15.2998C75.4896 15.295 75.4095 15.2919 75.4078 15.2911C75.4169 15.2935 75.4263 15.2953 75.4356 15.2965C75.4512 15.3022 75.4669 15.3068 75.483 15.3106C75.5009 15.3135 75.401 15.2686 75.4521 15.2976C75.4782 15.313 75.5039 15.3269 75.5292 15.343C75.5849 15.3781 75.495 15.3121 75.5061 15.3245C75.5144 15.3333 75.5251 15.3407 75.5342 15.349C75.5519 15.3644 75.5669 15.3843 75.5845 15.4007C75.618 15.4315 75.5331 15.3152 75.5564 15.3646C75.561 15.3744 75.5681 15.384 75.5735 15.3936C75.5789 15.4031 75.5852 15.4169 75.5911 15.4286C75.6166 15.4787 75.5934 15.4456 75.5832 15.4078C75.6041 15.4849 75.6399 15.5611 75.6641 15.6381C75.7591 15.9413 75.8349 16.2517 75.9025 16.5621C75.9276 16.6505 75.9864 16.7255 76.0663 16.7709C76.1462 16.8164 76.2408 16.8284 76.3295 16.8047C76.4175 16.7783 76.4918 16.7187 76.5369 16.6387C76.5818 16.5586 76.5939 16.4642 76.5708 16.3753Z" fill="white"/>
<path d="M77.7105 20.2694C77.6701 19.9117 77.6215 19.5543 77.5612 19.1996C77.4984 18.8314 77.4471 18.2805 77.0178 18.1552C76.3673 17.9654 76.1811 18.8495 76.1384 19.2997C76.1157 19.5504 76.1114 19.8025 76.1252 20.054C76.1289 20.3582 76.18 20.6602 76.2763 20.9488C76.3258 21.1306 76.4406 21.2876 76.5987 21.3902C76.6875 21.4353 76.7865 21.4561 76.886 21.4507C76.9854 21.4453 77.0815 21.4138 77.165 21.3594C77.5251 21.1353 77.6864 20.6728 77.7105 20.2701C77.7105 20.178 77.6739 20.0898 77.6088 20.0247C77.5437 19.9596 77.4555 19.923 77.3634 19.923C77.2713 19.923 77.183 19.9596 77.1179 20.0247C77.0528 20.0898 77.0162 20.178 77.0162 20.2701C77.0162 20.2692 77.0025 20.3892 77.0127 20.3257C77.0067 20.3616 76.999 20.3973 76.9894 20.4324C76.9803 20.4668 76.9687 20.5003 76.9585 20.5341C76.9277 20.6313 76.9877 20.49 76.94 20.5767C76.9144 20.623 76.8891 20.6693 76.8593 20.7134C76.9011 20.6517 76.8505 20.7223 76.8411 20.7324C76.8288 20.7452 76.8161 20.7575 76.8032 20.7694C76.8413 20.7419 76.8454 20.7385 76.8154 20.7598L76.7958 20.7717C76.7691 20.7853 76.7698 20.7854 76.7984 20.7717L76.8204 20.762C76.7834 20.7711 76.7951 20.7705 76.8556 20.7598C76.8033 20.7632 76.9257 20.7763 76.9414 20.786L76.9789 20.8169C76.9541 20.7918 76.9571 20.7981 76.9882 20.8362C76.967 20.8013 76.9479 20.7652 76.9309 20.7282C76.9689 20.8118 76.9338 20.7297 76.9284 20.7137C76.9166 20.6785 76.9061 20.6427 76.8967 20.6068C76.8828 20.5543 76.8715 20.5012 76.8616 20.4479C76.8569 20.4227 76.8532 20.3974 76.8487 20.3721C76.8306 20.2709 76.855 20.4435 76.8441 20.34C76.8306 20.2133 76.8206 20.0867 76.8164 19.9594C76.8089 19.7524 76.8134 19.545 76.8299 19.3386C76.8328 19.3035 76.8405 19.2671 76.8407 19.2321C76.8407 19.3765 76.8394 19.2451 76.8454 19.2096C76.8521 19.1702 76.8595 19.1309 76.868 19.0919C76.8798 19.0363 76.8936 18.9811 76.9106 18.9268C76.9192 18.8992 76.9294 18.8723 76.9388 18.845C76.9093 18.93 76.9437 18.8371 76.9542 18.8185C76.9638 18.8046 76.9726 18.7904 76.9807 18.7756C76.998 18.7353 76.9232 18.8418 76.9653 18.7975C76.988 18.7733 77.027 18.7561 76.9396 18.8129C76.9704 18.7929 76.9965 18.7943 76.9011 18.8242C76.9724 18.8018 76.8042 18.8228 76.8746 18.8263C76.761 18.8206 76.7913 18.8109 76.8243 18.8214C76.8724 18.8358 76.7303 18.7717 76.7907 18.8091C76.8353 18.8367 76.7165 18.7464 76.7563 18.7814C76.7635 18.7876 76.7703 18.7943 76.7766 18.8013C76.8186 18.8487 76.7188 18.7125 76.7612 18.7842C76.795 18.8418 76.7303 18.6887 76.7612 18.7867C76.7715 18.8197 76.7819 18.8527 76.7908 18.886C76.8371 19.0579 76.868 19.2343 76.8977 19.4095C76.9163 19.5192 76.9331 19.6291 76.9491 19.7391C76.9573 19.7948 76.9645 19.8505 76.9727 19.9062C76.976 19.9285 76.992 20.0072 76.9727 19.9026C76.9766 19.9231 76.9781 19.9443 76.9809 19.9643C76.9942 20.0657 77.007 20.1672 77.0184 20.2689C77.021 20.3601 77.0584 20.4469 77.123 20.5114C77.1875 20.5759 77.2742 20.6134 77.3655 20.616C77.4569 20.6149 77.5443 20.5779 77.6088 20.5131C77.6733 20.4483 77.7097 20.3608 77.7105 20.2694Z" fill="white"/>
<path d="M75.7079 17.1096C75.7182 17.1207 75.7283 17.1323 75.738 17.1438C75.7477 17.1554 75.7597 17.1696 75.7702 17.1827C75.7775 17.1917 75.7843 17.2009 75.7917 17.2097C75.8242 17.2489 75.7332 17.1307 75.765 17.1753C75.8543 17.298 75.9375 17.4251 76.014 17.5562C76.0637 17.6437 76.11 17.7329 76.1529 17.8239C76.1675 17.8548 76.1819 17.8856 76.1959 17.9165C76.2036 17.9339 76.2357 18.0091 76.2033 17.9319C76.2286 17.9926 76.2525 18.0538 76.2752 18.1155C76.3749 18.39 76.4486 18.6733 76.4954 18.9616C76.5202 19.0502 76.579 19.1253 76.6589 19.1708C76.739 19.2162 76.8337 19.2281 76.9224 19.204C77.0098 19.1773 77.0835 19.1182 77.1287 19.0387C77.1738 18.9594 77.1867 18.8658 77.1648 18.7771C77.0749 18.2249 76.8879 17.6929 76.6128 17.2057C76.4978 16.9945 76.3587 16.7975 76.1982 16.6185C76.1328 16.5542 76.0446 16.5181 75.9528 16.5181C75.861 16.5181 75.7727 16.5542 75.7073 16.6185C75.644 16.6845 75.6087 16.7725 75.6087 16.864C75.6087 16.9555 75.644 17.0434 75.7073 17.1094L75.7079 17.1096Z" fill="white"/>
<path d="M74.8725 19.2146C74.8725 19.2146 74.7336 18.8562 74.5315 18.8708C74.5857 19.3854 74.5915 19.4396 74.6258 19.7644C74.66 20.0891 74.663 20.6925 74.7955 21.7557C74.928 22.8189 75.3924 25.4792 74.9277 28.0012C74.6215 28.3752 74.3982 28.5658 74.4144 27.7595C74.4306 26.9532 74.6107 23.0847 74.3913 22.5433C74.1719 22.0019 73.7587 21.7395 73.5322 21.7204C73.8735 22.1925 74.0673 22.755 74.089 23.3371C74.0997 23.6282 74.0492 27.3819 74.0836 27.7069C74.118 28.0318 74.1666 29.068 74.681 28.5511C74.7649 29.1539 74.789 29.1874 75.0218 29.4711C75.2546 29.7548 75.0587 30.3991 74.8944 30.7657C74.7301 31.1323 75.4048 32.3965 75.5146 32.6671C75.6245 32.9377 76.3136 33.4974 76.7052 32.761C76.9462 32.1572 76.1549 32.6447 76.1098 32.6044C76.0648 32.5642 75.6556 32.5736 75.1736 31.4823C75.6198 30.7083 75.7908 29.8199 75.6928 29.475C75.5948 29.13 75.1462 28.7253 75.1462 28.7253C75.1462 28.7253 75.6871 28.2689 75.8277 28.4445C75.9682 28.6201 76.123 28.9313 75.9548 29.4535C76.1972 29.6354 76.7075 29.85 76.8049 30.1951C76.9022 30.5403 77.2222 30.3019 77.2275 29.9637C77.2167 29.7923 77.1596 29.6269 77.0624 29.4854C76.965 29.344 76.8311 29.2313 76.675 29.1599C76.4227 29.0797 76.4926 28.9709 76.567 28.5235C76.6413 28.0761 76.4676 26.817 75.3363 28.0275C75.4233 27.5054 76.317 24.6223 75.8951 22.5504C76.1742 22.1156 76.4726 21.3316 76.5014 21.0264C76.5303 20.7212 76.3451 19.6321 76.3451 19.6321C76.3451 19.6321 76.1526 21.716 75.8008 22.2324C75.6683 21.7451 75.4305 21.2247 75.4188 21.1162C75.4071 21.0077 75.3483 20.2561 75.3483 20.2561C75.3483 20.2561 75.8539 19.6579 75.9332 19.4475C76.0125 19.237 76.1723 18.6332 76.0241 18.7686C75.8758 18.9041 75.6061 19.2383 75.4983 19.1776C75.3904 19.117 75.244 18.888 74.8725 19.2146Z" fill="white"/>
<path d="M78.1061 15.1543C78.1322 14.828 78.2007 14.5064 78.3098 14.1978C78.3641 14.7124 78.3701 14.7666 78.4043 15.0917C78.4386 15.4167 78.5503 15.8972 78.6467 17.0009C78.7431 18.1047 78.8801 21.1326 79.723 22.1859C80.0345 21.8659 80.2465 21.5674 80.0812 20.9649C79.916 20.3625 79.1785 17.677 79.114 16.8092C79.0546 16.1045 79.1524 15.3955 79.4002 14.7333C79.3168 16.0493 79.4553 16.5773 79.5021 16.828C79.5488 17.0787 80.2975 19.934 80.3319 20.2591C80.3663 20.5842 80.5237 21.4981 80.0209 22.1238C80.0686 22.7671 80.0562 22.8416 79.9262 23.5331C79.7961 24.2246 80.0724 24.3386 80.2712 24.2971C80.4699 24.2556 80.4313 26.39 80.3958 26.8238C80.3603 27.2577 80.1968 28.5927 79.509 29.0022C79.2051 29.0105 79.7059 28.1752 79.7336 28.0527C80.0456 27.2114 80.1993 26.3196 80.1868 25.4223C79.6889 25.7088 79.387 25.3514 79.3987 24.8837C79.4104 24.4161 79.6874 23.1965 79.6874 23.1965C79.6874 23.1965 79.175 23.9235 79.0974 24.3439C79.0198 24.7643 78.957 25.3203 79.1882 25.3938C79.0313 26.0245 78.6699 27.2183 78.6586 27.6858C78.6473 28.1533 78.35 28.6083 78.2818 28.3512C78.2136 28.0942 78.3813 27.1787 78.5651 26.6088C78.7488 26.0388 78.6731 26.0938 78.5295 25.8912C78.3858 25.6886 78.2855 24.3471 79.4053 23.0283C79.2381 22.7921 77.9896 22.3161 77.9305 19.8368C77.6284 20.0551 77.2903 20.3137 77.2097 20.1313C77.1383 19.9015 77.0863 19.666 77.0542 19.4275C77.0542 19.4275 77.5701 19.6961 77.9447 19.3966C77.9572 18.7462 78.0462 17.8581 78.0348 17.75C78.0234 17.6418 77.9281 16.9306 77.9281 16.9306C77.9281 16.9306 77.4166 17.4746 77.3145 17.4683C77.2123 17.4619 76.9721 17.3073 77.1147 17.1169C77.2572 16.9266 77.5325 16.6475 77.6061 16.383C77.6868 15.9435 77.8569 15.5253 78.1061 15.1543Z" fill="white"/>
<path d="M76.4548 22.938C76.4548 22.938 77.7498 22.1911 78.0632 21.8987C78.3765 21.6064 78.1258 22.4626 78.1258 22.4626C78.2678 22.9705 78.3535 23.4923 78.3818 24.0189C78.3972 26.2437 78.0214 26.8077 77.3112 27.1002C77.3112 27.1002 76.3701 27.4344 76.2877 25.7214C76.2197 24.3009 76.5174 23.5645 76.5174 23.5645C76.5174 23.5645 76.1414 23.0633 76.4548 22.938Z" fill="white"/>
<path d="M75.8594 22.7968C75.8594 22.7968 76.3138 23.0473 76.6114 23.0473C76.909 23.0473 76.5174 23.4077 76.5174 23.4077C76.2794 23.2922 76.0492 23.1613 75.8281 23.016L75.7026 22.9063L75.875 22.7178L75.8594 22.7968Z" fill="white"/>
<path d="M40.4156 20.2026L39.5099 20.4058L38.7304 20.6914L38.031 21.0169L37.4139 21.3851L36.9201 21.8336L36.4679 22.3223L36.0984 22.811L35.7698 23.3823L35.5228 23.9934L35.317 24.6063L35.1946 25.2583L35.1126 25.9099L35.0704 26.6441L35.0297 27.3378L35.0704 28.0717L35.1126 28.8053L35.2348 30.3141L35.441 31.7818L35.6456 33.2093L35.7698 34.5951L35.8101 35.2471L35.8514 35.9002L35.8101 36.471L35.7698 37.0419L35.6871 37.5712L35.5635 38.0602L35.359 38.4682L35.1126 38.876L34.9061 38.7534L34.6591 38.5904L34.413 38.2652L34.1241 37.8972L34.0017 37.6117L33.8781 37.3262L33.7954 37.0002L33.7138 36.6741L33.631 36.2662L33.5909 35.8178V35.329V34.7981L33.0961 34.8807L32.8502 34.9609L32.6451 35.0436L32.4806 35.126L32.3163 35.2471L32.1921 35.4111L32.1101 35.5322L31.9457 35.9002L31.8629 36.2662L31.8232 36.6741L31.905 37.1229L31.9871 37.5712L32.152 38.0199L32.3566 38.4682L32.5629 38.9569L32.8502 39.3651L33.138 39.8139L33.4266 40.1811L33.7552 40.5071L34.8642 40.0993L35.8101 39.6504L36.2208 39.4473L36.5502 39.2023L36.88 38.9569L37.1673 38.7132L37.4139 38.4682L37.6602 38.1827L37.8246 37.9389L37.989 37.6535L38.1131 37.3682L38.1953 37.0828L38.3596 36.471L38.4016 35.8595L38.3596 35.1661L38.3189 34.4725L38.1953 33.6981L37.9488 32.0672L37.8246 31.1702L37.7419 30.2331L37.7022 29.9475L37.6195 29.1316L37.5775 27.9085L37.6195 27.215L37.6602 26.4405L37.7419 25.6243L37.9062 24.81L38.1131 23.9533L38.4016 23.1388L38.7711 22.3223L38.9767 21.9562L39.2233 21.5883L39.4704 21.2221L39.7571 20.8542L40.087 20.5285L40.4156 20.2026Z" fill="white"/>
<path d="M47.0359 41.2005V40.6295L47.0766 40.099L47.2403 39.0794L47.4455 38.1014L47.734 37.2452L48.311 35.6139L48.5964 34.8395L48.8441 34.106L49.0085 33.3303L49.0486 32.9639V32.5973V32.2297L49.0085 31.8216L48.9683 31.4152L48.8441 31.0071L48.6799 30.5989L48.5156 30.1504L48.2677 29.702L47.9816 29.254L47.6499 28.7649L47.2806 28.2746L46.8284 27.7451L46.2945 27.1746L45.1843 28.0714L43.9914 28.9678L42.5945 29.9472L42.5532 28.5194L42.5945 27.0519L42.6767 25.3401L42.7169 24.4834L42.8411 23.6674L43.0055 22.893L43.1697 22.1998L43.4162 21.588L43.5406 21.3445L43.7047 21.1393L43.869 20.9765L44.0335 20.8136L44.2386 20.7312H44.445L44.6091 20.8962L44.815 21.0589L45.0603 21.2218L45.3486 21.3848L45.6371 21.5071L45.9659 21.588L46.3354 21.6282L46.664 21.6699L47.0359 21.6282L47.4048 21.5478L47.7743 21.3848L48.1868 21.18L48.5557 20.8962L48.9245 20.5282L49.297 20.0394L49.6258 19.5087L49.3372 19.6313L49.0486 19.7538L48.7601 19.7941L48.4755 19.8765H47.8983L47.3645 19.8342L46.7882 19.6715L46.2544 19.4684L45.7175 19.2234L45.1843 18.938L44.5672 19.1827L44.0335 19.4684L43.4985 19.7941L43.0055 20.1621L42.5945 20.5683L42.1837 21.0166L41.8552 21.5478L41.5264 22.0786L41.278 22.6894L41.0315 23.3414L40.8673 24.0755L40.7444 24.8097L40.6208 25.624L40.58 26.5226V27.4597L40.6208 28.4374L40.9087 32.6382L40.9914 34.8395L41.073 36.9999V38.0196V38.9984L40.9914 39.9363L40.9087 40.7521L40.7851 41.5265L40.6208 42.1783L40.4156 42.7089L40.2921 42.9119L40.1696 43.117L39.6347 42.7893L39.1813 42.504L38.7303 42.301L38.3596 42.1376L38.031 42.0149L37.7022 41.9345L37.4138 41.8927H37.1673L36.88 41.9345L36.6736 42.0149L36.2208 42.1783L35.2769 42.6263L35.7698 42.7893L36.2208 42.9526L36.5915 43.198L36.9201 43.4427L37.4552 43.9314L37.7022 44.1351L37.9487 44.3395L38.1953 44.5027L38.4412 44.5831L38.7711 44.6251L39.1404 44.5428L39.552 44.4205L40.0053 44.1351L40.58 43.7687L41.2373 43.2382L41.4843 42.9943L41.7308 42.749L41.9373 42.504L42.1417 42.2201L42.4705 41.607L42.7169 40.9551L42.8813 40.2618L43.0055 39.5697L43.0882 38.8356V38.1014V37.408L43.0473 36.7144L42.9634 35.4108L42.7991 34.269L42.7169 33.4527L42.6346 31.0472L42.8411 30.8442L43.0473 30.5989L43.3341 30.4361L43.5812 30.2729L43.869 30.1504L44.1563 30.1101L44.445 30.1504L44.7327 30.2328L44.9799 30.4361L45.2682 30.7215L45.473 31.1298L45.7175 31.6586L45.8855 32.3122L46.0463 33.1267L46.171 34.106L46.2544 35.2468L46.2945 36.0227V36.7963L46.2142 38.0599L46.1301 39.121L45.9659 40.0581L45.8855 40.8325L45.8014 41.607V42.0149L45.8425 42.3829L45.8855 42.7893L45.9659 43.2382L46.2142 44.1767L46.3354 44.6251L46.4997 44.9914L46.664 45.3175L46.8716 45.6028L47.0359 45.8481L47.2806 46.0511L47.4858 46.2145L47.734 46.2964L47.9816 46.3372H48.2269L48.5156 46.2562L48.8033 46.1335L49.1326 45.9299L49.4614 45.6444L49.8309 45.3175L49.9953 45.0737L50.0785 44.9914V44.8685V44.7882L50.0354 44.7058L49.9142 44.5831L49.7067 44.5027L49.0894 44.2577L48.7601 44.0943L48.3914 43.9314L48.0626 43.6861L47.734 43.3607L47.4455 42.9943L47.3213 42.749L47.2002 42.504L47.1169 42.2201L47.0766 41.9345L47.0359 41.5666V41.2005Z" fill="white"/>
<path d="M55.8752 31.9045H55.7913L55.0535 31.3335L54.641 30.9672L54.2715 30.5592L53.8595 30.1508L53.4899 29.7024L53.1612 29.2135L52.8727 28.7236L52.628 28.2347L52.4608 27.7455L52.3397 27.2553V26.7669L52.3798 26.5229L52.4205 26.2779L52.504 26.0729L52.628 25.8291L52.7925 25.5841L52.9562 25.3808L53.1612 25.1759L53.4065 24.9729L53.9837 25.2584L54.56 25.6662L55.134 26.1553L55.7109 26.726L56.2441 27.378L56.4924 27.7455L56.6974 28.1121L56.9021 28.5198L57.0664 28.9281L57.2308 29.3346L57.3543 29.7848L57.4784 29.5395L57.6026 29.2945L57.7237 28.8054L57.7669 28.275V27.7455L57.6433 27.2553L57.4784 26.726L57.2308 26.1954L56.9021 25.7063L56.5325 25.2182L56.1639 24.7276L55.7109 24.2795L55.218 23.8724L54.7243 23.4644L54.1881 23.0966L53.6548 22.7708L53.1211 22.4854L52.628 23.179L52.2153 23.8307L51.846 24.4421L51.5576 25.013L51.2696 25.5841L51.065 26.1152L50.857 26.6442L50.7357 27.1342L50.6524 27.623L50.5716 28.0718L50.5284 28.4797V28.8864L50.5716 29.2544L50.6123 29.6199L50.6925 29.9878L50.8169 30.3142L51.065 30.8848L51.3938 31.4156L51.7225 31.9045L52.0914 32.3126L52.504 32.6386L52.8326 32.9643L53.4065 33.4128L53.9434 33.9014L54.3955 34.3916L54.765 34.9209L55.0938 35.4112L55.3389 35.9404L55.5872 36.4711L55.7512 37.0003L55.8752 37.5309L55.9556 38.02V38.5088V38.957L55.9153 39.4056L55.8345 39.814L55.7109 40.1812L55.5872 40.5072L55.4224 40.7926L55.218 41.0379L55.0103 41.241L54.765 41.3636L54.5168 41.4042H54.2715L53.9837 41.322L53.695 41.2008L53.4065 40.9555L53.1211 40.67L52.8326 40.2622L52.5446 39.7731L52.2562 39.1621L51.9671 38.4683L51.6817 37.6937L51.434 36.7566L51.1892 35.7369L51.0242 36.3085L50.9008 36.9195L50.857 37.5713V38.2653L50.9411 38.957L51.065 39.6505L51.2294 40.3443L51.434 40.9963L51.6817 41.6074L51.9671 42.138L52.2965 42.6267L52.628 43.035L52.7925 43.1575L52.9971 43.3204L53.1612 43.4029L53.3664 43.4835L53.571 43.5237H53.7784L53.9837 43.4835L54.1881 43.4029L54.56 43.1984L54.9696 42.9123L55.4633 42.5465L55.9556 42.0978L56.4493 41.567L56.9429 40.9555L57.3951 40.2622L57.8076 39.5281L57.9721 39.1214L58.0961 38.7133L58.2172 38.3054L58.3007 37.8571L58.3414 37.4084V36.9602L58.3007 36.5113L58.2604 36.0231L58.1364 35.5323L57.9721 35.0437L57.7669 34.5128L57.5193 34.024L57.1899 33.4947L56.8216 32.9643L56.3683 32.4337L55.8752 31.9045Z" fill="white"/>
<path d="M39.8707 59.5493V59.4452C40.027 59.4413 40.1819 59.4134 40.3297 59.3622C40.4374 59.3258 40.5308 59.2566 40.5972 59.1644C40.647 59.0584 40.6739 58.9431 40.676 58.826C40.691 58.6585 40.6986 58.3857 40.6986 58.0076V56.7946C40.7035 56.5687 40.6936 56.3428 40.6689 56.1182C40.6598 56.0182 40.6243 55.9224 40.5662 55.8405C40.4954 55.7703 40.4068 55.7208 40.3099 55.6973C40.167 55.6547 40.0195 55.6293 39.8707 55.6216V55.5116C39.9438 55.5136 40.0246 55.515 40.1129 55.5159C40.2011 55.5168 40.3315 55.5173 40.5043 55.5173C40.7163 55.5173 40.8744 55.5168 40.9787 55.5159C41.083 55.515 41.1782 55.5126 41.2645 55.5088C41.2514 55.7067 41.2415 55.8805 41.235 56.0303C41.2284 56.1801 41.2251 56.301 41.2251 56.3935V58.3419C41.2191 58.5605 41.2299 58.7791 41.2575 58.9961C41.2699 59.09 41.3084 59.1786 41.3688 59.2515C41.443 59.3191 41.5332 59.3663 41.631 59.389C41.7728 59.4247 41.9185 59.4435 42.0647 59.4453V59.5495C41.7663 59.5438 41.542 59.5405 41.3917 59.5394C41.2413 59.5384 41.1014 59.5381 40.9721 59.5382C40.8427 59.5382 40.7029 59.5387 40.5526 59.5394C40.4023 59.5402 40.1749 59.5436 39.8707 59.5493Z" fill="white"/>
<path d="M42.7174 59.6929L42.661 59.5719C43.0845 59.3726 43.4723 59.1047 43.8086 58.7792C44.0886 58.5001 44.2994 58.1591 44.4237 57.7838C44.2912 57.8634 44.1494 57.9265 44.0016 57.9717C43.8672 58.0116 43.7278 58.0322 43.5877 58.0323C43.4283 58.0402 43.2691 58.0144 43.1203 57.9569C42.9716 57.8993 42.8365 57.8111 42.724 57.698C42.6115 57.5849 42.5239 57.4494 42.4669 57.3004C42.4102 57.1514 42.3852 56.9921 42.3938 56.8328C42.3873 56.6499 42.4188 56.4679 42.4864 56.2979C42.5541 56.1278 42.6563 55.9739 42.7865 55.8454C42.9204 55.7168 43.0787 55.6166 43.2523 55.5505C43.4257 55.4845 43.6107 55.4541 43.7961 55.461C43.9846 55.4507 44.1733 55.4795 44.3501 55.5457C44.5269 55.6119 44.6882 55.7139 44.8238 55.8454C44.9532 55.9879 45.0531 56.1548 45.1174 56.3364C45.1817 56.518 45.2092 56.7106 45.1982 56.9028C45.1993 57.5207 44.9665 58.1161 44.5464 58.5691C44.0474 59.0997 43.4161 59.4875 42.7174 59.6929ZM44.483 57.5895C44.5124 57.4717 44.5354 57.3522 44.5519 57.2319C44.5675 57.1171 44.5755 57.0014 44.5759 56.8855C44.5922 56.562 44.5171 56.2405 44.3591 55.9577C44.3011 55.8532 44.2161 55.7664 44.1128 55.7062C44.0096 55.646 43.8922 55.6147 43.7728 55.6156C43.6606 55.6125 43.5494 55.6366 43.4487 55.686C43.3478 55.7352 43.2604 55.8082 43.1941 55.8986C43.0421 56.1374 42.9664 56.4167 42.9767 56.6995C42.987 56.9823 43.0828 57.2554 43.2518 57.4825C43.339 57.5857 43.4483 57.6677 43.5716 57.7228C43.6949 57.7779 43.8291 57.8046 43.9641 57.8007C44.0604 57.802 44.1562 57.7844 44.2457 57.7486C44.3342 57.7114 44.4148 57.6574 44.483 57.5895Z" fill="white"/>
<path d="M45.4544 59.5611L45.4149 59.4793C45.9652 59.0344 46.4631 58.528 46.8988 57.9701C47.2123 57.5381 47.369 57.1476 47.369 56.7986C47.3823 56.5732 47.3132 56.3506 47.1748 56.1721C47.108 56.0963 47.025 56.0365 46.9318 55.9973C46.8386 55.958 46.7378 55.9404 46.6369 55.9455C46.4658 55.9476 46.2983 55.9947 46.1511 56.082C45.9717 56.1895 45.812 56.3272 45.6795 56.4888L45.5923 56.4185C45.7254 56.1406 45.9187 55.8958 46.1582 55.7018C46.3631 55.5494 46.6126 55.4689 46.8679 55.4724C47.0106 55.4692 47.1525 55.4966 47.2838 55.5527C47.4151 55.6088 47.533 55.6923 47.6294 55.7977C47.8343 56.0177 47.944 56.3096 47.9349 56.61C47.9349 56.9574 47.7871 57.3305 47.4915 57.7293C47.0864 58.2364 46.6197 58.6909 46.1019 59.0823L47.1269 59.0711C47.2718 59.0749 47.417 59.0665 47.5605 59.0458C47.6339 59.0344 47.7035 59.0054 47.7632 58.9612C47.8342 58.8964 47.898 58.8239 47.9533 58.7452C48.034 58.6325 48.1086 58.5154 48.1771 58.3947L48.2757 58.4425L47.842 59.5492C47.583 59.5453 47.3812 59.5426 47.2366 59.5407C47.0921 59.5389 46.9578 59.5379 46.8341 59.5379C46.5806 59.5379 46.3402 59.5398 46.1131 59.5435C45.886 59.5472 45.6665 59.5531 45.4544 59.5611Z" fill="white"/>
<path d="M48.779 59.6928L48.7227 59.5718C49.1462 59.3725 49.5338 59.1046 49.8701 58.7791C50.1503 58.5 50.361 58.159 50.4854 57.7837C50.3527 57.863 50.2107 57.9257 50.0629 57.9708C49.9286 58.0109 49.7892 58.0313 49.6492 58.0314C49.4898 58.0393 49.3306 58.0135 49.1818 57.956C49.0331 57.8983 48.898 57.8102 48.7855 57.6971C48.673 57.584 48.5854 57.4485 48.5284 57.2995C48.4715 57.1505 48.4465 56.9913 48.4552 56.8319C48.4487 56.649 48.4803 56.4668 48.5479 56.297C48.6156 56.127 48.7177 55.9728 48.8481 55.8445C49.1295 55.597 49.4915 55.4604 49.8664 55.4604C50.2411 55.4604 50.6031 55.597 50.8847 55.8445C51.0141 55.987 51.1139 56.154 51.1783 56.3355C51.2426 56.5171 51.2701 56.7097 51.2591 56.9019C51.2602 57.5198 51.0274 58.1152 50.6073 58.5682C50.1086 59.0989 49.4776 59.4871 48.779 59.6928ZM50.5445 57.5894C50.5741 57.4715 50.5971 57.3521 50.6136 57.2318C50.6292 57.117 50.6372 57.0013 50.6375 56.8854C50.6538 56.5619 50.5787 56.2404 50.4207 55.9576C50.3627 55.8531 50.2777 55.7662 50.1745 55.7061C50.0713 55.6459 49.9539 55.6146 49.8345 55.6155C49.7223 55.6124 49.611 55.6365 49.5103 55.6859C49.4094 55.7351 49.3221 55.808 49.2557 55.8985C49.1039 56.1373 49.0282 56.4165 49.0385 56.6993C49.0488 56.9821 49.1447 57.2552 49.3136 57.4823C49.4008 57.5856 49.5101 57.6676 49.6334 57.7227C49.7567 57.7779 49.8909 57.8045 50.0259 57.8006C50.1223 57.8019 50.218 57.7841 50.3076 57.7485C50.396 57.7111 50.4764 57.6571 50.5445 57.5894Z" fill="white"/>
<path d="M37.9534 57.625H33.7883V57.7793H37.9534V57.625Z" fill="white"/>
<path d="M57.5992 57.625H53.434V57.7793H57.5992V57.625Z" fill="white"/>
<path d="M33.8516 54.2784L33.8494 54.1973C34.0103 54.2045 34.1689 54.1561 34.2984 54.06C34.3729 53.983 34.4102 53.8031 34.4101 53.52V51.9284C34.4101 51.6419 34.3741 51.4586 34.3021 51.3785C34.1819 51.2793 34.0306 51.2259 33.8749 51.2276V51.1465C34.0165 51.1465 34.2129 51.148 34.4641 51.151C34.7153 51.1539 34.8956 51.1554 35.005 51.1553C35.1934 51.1553 35.3866 51.1545 35.5843 51.1531C35.7821 51.1517 36.0109 51.1494 36.2709 51.1465L36.203 51.8779H36.1373C36.1436 51.7894 36.1302 51.7007 36.0978 51.6181C36.0652 51.5354 36.0148 51.4612 35.95 51.4006C35.834 51.313 35.6087 51.2691 35.2744 51.2691H34.8321V52.6313H35.3466C35.5132 52.6441 35.6797 52.606 35.8241 52.5219C35.8769 52.4798 35.9191 52.4261 35.9477 52.3649C35.9762 52.3036 35.9901 52.2367 35.9884 52.1692L36.0606 52.1715C36.0534 52.3146 36.0478 52.4493 36.0443 52.5756C36.0407 52.702 36.0389 52.8242 36.0387 52.9423C36.0387 53.0417 36.0392 53.1168 36.0399 53.1679C36.0399 53.2191 36.0409 53.2665 36.0409 53.3103H35.9753C35.9819 53.2418 35.9725 53.1727 35.9478 53.1084C35.9231 53.044 35.8838 52.9865 35.8329 52.94C35.6913 52.8532 35.5254 52.814 35.3599 52.8283H34.8321V53.4973C34.8321 53.7704 34.8759 53.949 34.9635 54.0334C35.0511 54.1178 35.2329 54.1723 35.5087 54.1968V54.278H35.4825C35.1116 54.2721 34.8364 54.2692 34.6568 54.2692C34.5574 54.2692 34.4513 54.27 34.3382 54.2713L33.8516 54.2784Z" fill="white"/>
<path d="M36.5223 52.6998C36.5124 52.484 36.5485 52.2683 36.6284 52.0674C36.7082 51.8665 36.8298 51.6849 36.9851 51.5347C37.3242 51.2329 37.7683 51.0763 38.2216 51.0988C38.4442 51.0882 38.6667 51.1226 38.8757 51.1999C39.0848 51.2772 39.2759 51.396 39.4381 51.5489C39.5924 51.7064 39.7125 51.8938 39.7911 52.0998C39.8696 52.3058 39.9049 52.5256 39.8948 52.7458C39.9039 52.9604 39.867 53.1744 39.7866 53.3737C39.7064 53.5729 39.5845 53.7526 39.4293 53.9011C39.0909 54.2028 38.6478 54.3597 38.195 54.338C37.9727 54.3486 37.7504 54.3144 37.5415 54.2376C37.3324 54.1607 37.1411 54.0427 36.9785 53.8906C36.8245 53.7343 36.7043 53.5478 36.626 53.3429C36.5474 53.138 36.5121 52.919 36.5223 52.6998ZM37.0567 52.6362C37.039 53.0391 37.1561 53.4365 37.3895 53.7653C37.485 53.9017 37.6123 54.0128 37.7604 54.0888C37.9084 54.165 38.0728 54.2039 38.2393 54.2022C38.3965 54.2069 38.5525 54.1741 38.6944 54.1067C38.8365 54.0393 38.9604 53.9392 39.0562 53.8145C39.2747 53.5157 39.3838 53.1506 39.3648 52.7808C39.3654 52.5944 39.3412 52.4088 39.2926 52.2289C39.2494 52.0634 39.18 51.9059 39.0868 51.7624C38.9848 51.5988 38.8466 51.4611 38.6827 51.3596C38.4679 51.2401 38.218 51.2003 37.9767 51.2472C37.7356 51.2941 37.5186 51.4245 37.3642 51.6157C37.1476 51.9105 37.039 52.2709 37.0567 52.6362Z" fill="white"/>
<path d="M40.4745 53.0771V51.9261C40.4791 51.7936 40.4708 51.6609 40.4493 51.5299C40.4373 51.4694 40.4052 51.4147 40.3585 51.3746C40.302 51.3311 40.2383 51.298 40.1701 51.2771C40.0882 51.2528 40.0035 51.2385 39.9182 51.2345V51.1535C40.013 51.1564 40.1146 51.1586 40.2226 51.16C40.3306 51.1613 40.4941 51.1621 40.7132 51.1623C40.935 51.1623 41.101 51.1615 41.2114 51.16C41.3217 51.1584 41.4244 51.1563 41.5199 51.1535L41.5221 51.2345C41.3442 51.2195 41.1672 51.2718 41.0261 51.3812C40.9406 51.4716 40.8979 51.6517 40.8979 51.9212V53.033C40.8926 53.203 40.9093 53.3728 40.9472 53.5385C40.9767 53.6506 41.0336 53.7536 41.1126 53.8383C41.2077 53.9371 41.3248 54.012 41.4542 54.0571C41.6039 54.1102 41.7618 54.1364 41.9208 54.1342C42.1048 54.1416 42.2878 54.1012 42.4518 54.0171C42.5982 53.9295 42.7135 53.7982 42.7815 53.6418C42.8303 53.523 42.8594 53.3969 42.8679 53.2687C42.8847 53.1061 42.8932 52.8467 42.893 52.4906C42.8977 52.2489 42.8886 52.007 42.8657 51.7663C42.8571 51.6601 42.8255 51.5571 42.7732 51.4642C42.7196 51.3874 42.6445 51.3283 42.5572 51.2945C42.4442 51.2536 42.3248 51.2332 42.2046 51.2343V51.1533C42.2849 51.1563 42.3703 51.1584 42.4609 51.1598C42.5515 51.1612 42.6888 51.162 42.8725 51.1621C43.0577 51.1621 43.1961 51.1613 43.2875 51.1598C43.379 51.1583 43.4634 51.1561 43.5406 51.1533V51.2343H43.5318C43.4577 51.2274 43.3832 51.2431 43.3182 51.2795C43.2533 51.3159 43.201 51.3712 43.1683 51.438C43.1026 51.5736 43.0697 51.9156 43.0697 52.4644C43.0697 52.511 43.0689 52.5811 43.0675 52.6744C43.0617 53.1821 43.0192 53.5271 42.9404 53.7095C42.8523 53.9172 42.6931 54.0867 42.4914 54.1878C42.2484 54.3038 41.9811 54.3596 41.7119 54.3507C41.4943 54.3559 41.2777 54.3218 41.0723 54.2501C40.9086 54.1926 40.7655 54.0883 40.6606 53.9502C40.5931 53.8562 40.5452 53.7498 40.5194 53.6371C40.4844 53.4526 40.4694 53.2648 40.4745 53.0771Z" fill="white"/>
<path d="M43.7524 54.2786L43.7503 54.1975C43.8416 54.2029 43.9329 54.185 44.0155 54.1455C44.098 54.106 44.1691 54.0461 44.2222 53.9716C44.3061 53.8326 44.3481 53.5455 44.3481 53.1101V52.2497C44.3481 52.2103 44.3481 52.158 44.3503 52.0926C44.3524 52.0272 44.3524 51.9812 44.3524 51.955C44.3569 51.8441 44.3421 51.7333 44.3086 51.6274C44.2773 51.5474 44.2279 51.4755 44.164 51.4178C44.1042 51.3635 44.0348 51.3209 43.9593 51.2922C43.874 51.2596 43.7844 51.2402 43.6932 51.2343V51.1533C43.7415 51.1533 43.8115 51.1547 43.9035 51.1577C43.9954 51.1606 44.0627 51.162 44.105 51.1621C44.1488 51.1621 44.2123 51.1606 44.2955 51.1577C44.3788 51.1547 44.4393 51.1532 44.4772 51.1533L46.7201 53.5512V52.5184C46.7261 52.2566 46.7154 51.9948 46.6881 51.7344C46.6775 51.6257 46.6386 51.5219 46.5753 51.433C46.5249 51.371 46.4582 51.3241 46.3826 51.2977C46.2833 51.2623 46.1795 51.241 46.0741 51.2343V51.1533C46.1531 51.1563 46.2376 51.1584 46.3282 51.1598C46.4187 51.1612 46.551 51.1621 46.7247 51.1621C46.8984 51.1621 47.0243 51.1621 47.1069 51.1598C47.1894 51.1575 47.2648 51.1563 47.3335 51.1533V51.2343H47.2985C47.2241 51.2322 47.1511 51.2544 47.0906 51.2979C47.0303 51.3412 46.9859 51.4034 46.9643 51.4745C46.8847 51.7652 46.8524 52.0668 46.8691 52.3677V53.3243C46.8691 53.547 46.871 53.7445 46.8747 53.9167C46.8784 54.0889 46.8831 54.2483 46.889 54.395H46.8625C46.7721 54.2902 46.6739 54.1774 46.5681 54.0563C46.4623 53.9352 46.4035 53.8681 46.3917 53.855L44.4953 51.8479V52.7323C44.4953 53.1675 44.5038 53.4606 44.5204 53.6117C44.5266 53.7245 44.5561 53.8348 44.607 53.9357C44.6519 54.004 44.7159 54.0576 44.7909 54.09C44.9058 54.1398 45.0265 54.175 45.1501 54.1947V54.278H45.137C44.8284 54.2722 44.5985 54.2692 44.4472 54.2692C44.3626 54.2692 44.2713 54.27 44.1733 54.2714C44.0755 54.2728 43.9351 54.2753 43.7524 54.2786Z" fill="white"/>
<path d="M47.553 54.2789V54.1977C47.7209 54.2012 47.8854 54.1494 48.0207 54.0499C48.1166 53.9149 48.1592 53.7492 48.1401 53.5846V51.8126C48.1564 51.6619 48.1168 51.5104 48.0284 51.3873C47.9062 51.2916 47.7564 51.2381 47.6013 51.2345V51.1535C47.8525 51.1506 48.1196 51.1466 48.4027 51.1415C48.6856 51.1364 48.8464 51.1339 48.8847 51.1338C49.5385 51.1338 50.051 51.2762 50.4221 51.5608C50.6024 51.6963 50.7473 51.8734 50.8442 52.0772C50.9411 52.2809 50.9872 52.5051 50.9784 52.7305C50.9875 52.9497 50.9442 53.168 50.8518 53.3672C50.7594 53.5662 50.6207 53.7402 50.4472 53.8748C50.093 54.1525 49.605 54.2914 48.9831 54.2914C48.8635 54.2914 48.6427 54.2895 48.3208 54.286C47.9986 54.2824 47.7428 54.2799 47.553 54.2789ZM48.5713 53.4575C48.5713 53.7481 48.6181 53.9413 48.7116 54.0368C48.805 54.1323 48.9794 54.1801 49.2349 54.1803C49.3978 54.185 49.5596 54.1536 49.709 54.088C49.8582 54.0224 49.991 53.9246 50.0978 53.8013C50.3385 53.4869 50.4562 53.0955 50.429 52.7004C50.4019 52.3053 50.2316 51.9336 49.95 51.6551C49.628 51.3762 49.1817 51.2367 48.6108 51.2369H48.5713V53.4575Z" fill="white"/>
<path d="M51.0302 54.2784V54.1973C51.1997 54.1928 51.3646 54.14 51.5053 54.0452C51.5826 53.9731 51.6212 53.8181 51.6214 53.5797V51.8605C51.6214 51.609 51.5831 51.4429 51.5064 51.362C51.3853 51.2656 51.2327 51.2178 51.0783 51.2276V51.1465C51.2242 51.15 51.3798 51.1525 51.5448 51.1536C51.7099 51.1547 51.9494 51.1553 52.2632 51.1553C52.6296 51.1553 52.8979 51.1547 53.0679 51.1536C53.2379 51.1525 53.3908 51.1508 53.5268 51.1488C53.5136 51.248 53.5024 51.3545 53.4928 51.4685C53.4833 51.5825 53.4741 51.7132 53.4655 51.8605H53.3975C53.4006 51.7752 53.3856 51.6903 53.3535 51.6112C53.3214 51.532 53.273 51.4608 53.2114 51.4017C53.036 51.2997 52.8331 51.2549 52.6311 51.2736H52.0441V52.5657H52.4952C52.671 52.5807 52.8476 52.5482 53.0065 52.4715C53.0588 52.4304 53.102 52.3787 53.133 52.3198C53.1642 52.261 53.1826 52.1962 53.1872 52.1299H53.2595C53.2595 52.2117 53.2563 52.3402 53.2497 52.5156C53.243 52.691 53.2398 52.8276 53.24 52.9252V53.1836H53.1742C53.1739 53.1199 53.1588 53.057 53.1299 53C53.1009 52.9433 53.0591 52.8939 53.0078 52.8561C52.8493 52.7813 52.674 52.7493 52.4995 52.7635H52.0441V53.5607C52.0441 53.8046 52.0938 53.9654 52.193 54.0427C52.2922 54.12 52.4857 54.1587 52.7734 54.1587C52.9979 54.1721 53.2196 54.1029 53.3964 53.9637C53.5626 53.8023 53.6689 53.5893 53.6976 53.3594L53.7699 53.368C53.7619 53.5308 53.7432 53.6929 53.7141 53.8532C53.6872 54.001 53.6486 54.1464 53.599 54.288C53.3874 54.2821 53.156 54.2777 52.9047 54.2747C52.6534 54.2718 52.3795 54.2703 52.0834 54.2704C51.8076 54.2704 51.5959 54.2712 51.4483 54.2726C51.3006 54.274 51.1613 54.276 51.0302 54.2784Z" fill="white"/>
<path d="M53.9666 54.2789V54.1977C54.1345 54.2014 54.2988 54.1494 54.4341 54.0499C54.5302 53.9151 54.5728 53.7492 54.5537 53.5846V51.8126C54.5702 51.6619 54.5302 51.5104 54.4418 51.3873C54.3198 51.2916 54.17 51.2379 54.0148 51.2345V51.1535C54.2658 51.1506 54.5333 51.1466 54.817 51.1415C55.1007 51.1364 55.2614 51.1339 55.2987 51.1338C55.9529 51.1338 56.4654 51.2762 56.8363 51.5608C57.0166 51.6963 57.1615 51.8734 57.2584 52.0772C57.3553 52.2809 57.4013 52.5051 57.3925 52.7305C57.4016 52.9497 57.3582 53.168 57.2658 53.367C57.1734 53.5662 57.0348 53.7402 56.8614 53.8748C56.5073 54.1525 56.0194 54.2914 55.3973 54.2914C55.2776 54.2914 55.0568 54.2895 54.7349 54.286C54.4131 54.2824 54.157 54.2799 53.9666 54.2789ZM54.9849 53.4575C54.9849 53.7481 55.0316 53.9413 55.1251 54.0368C55.2186 54.1323 55.3931 54.1801 55.6486 54.1803C55.8115 54.185 55.9735 54.1536 56.1227 54.088C56.2719 54.0224 56.4048 53.9246 56.5115 53.8013C56.7522 53.4869 56.8699 53.0953 56.8426 52.7004C56.8155 52.3053 56.6451 51.9337 56.3637 51.6551C56.0417 51.3762 55.5952 51.2367 55.0245 51.2369H54.9849V53.4575Z" fill="white"/>
<path d="M35.2275 45.2912C35.1627 45.2312 35.1269 45.1963 35.1075 45.1759C35.0894 45.1625 35.068 45.1465 35.0419 45.1267C34.8692 44.9956 34.7035 44.8671 34.5437 44.7256L18.298 64.6176L18.3103 64.63C18.2122 64.7187 18.1349 64.8281 18.0843 64.9503C18.0335 65.0725 18.0107 65.2044 18.0172 65.3364C18.0238 65.4685 18.0596 65.5977 18.1221 65.7141C18.1847 65.8308 18.2724 65.932 18.3788 66.0105C18.4853 66.0889 18.6079 66.1429 18.7377 66.1682C18.8676 66.1935 19.0014 66.1896 19.1296 66.1568C19.2578 66.1241 19.377 66.0631 19.4787 65.9786C19.5805 65.894 19.6622 65.788 19.7179 65.668L36.0818 45.711C35.7619 45.6582 35.4648 45.5123 35.2275 45.2912Z" fill="white"/>
<path d="M34.4755 20.5236C34.7028 20.3036 34.9904 20.1563 35.3016 20.1L20.0007 1.36426L18.622 2.55486L34.0462 21.3662C34.0937 21.046 34.2444 20.7501 34.4755 20.5236Z" fill="white"/>
<path d="M55.8591 20.6489C56.0842 20.866 56.2335 21.1496 56.285 21.458L71.7333 2.61752L70.3546 1.42676L55.0049 20.2223C55.3257 20.2765 55.623 20.4251 55.8591 20.6489Z" fill="white"/>
<path d="M71.8988 64.6304L71.9113 64.618L55.7299 44.8042C55.6986 44.9077 55.6555 45.0072 55.6017 45.101C55.4869 45.3064 55.3238 45.4807 55.1265 45.6088C54.929 45.737 54.7035 45.8149 54.4691 45.836C54.4119 45.8654 54.3529 45.8907 54.2923 45.912L70.492 65.6684C70.5477 65.7884 70.6294 65.8946 70.7312 65.9791C70.8329 66.0637 70.9521 66.1246 71.0803 66.1573C71.2085 66.1902 71.3425 66.194 71.4722 66.1687C71.6021 66.1434 71.7248 66.0896 71.8312 66.0111C71.9377 65.9325 72.0255 65.8313 72.088 65.7147C72.1504 65.598 72.1864 65.4691 72.1929 65.3368C72.1993 65.2048 72.1764 65.0727 72.1256 64.9505C72.075 64.8283 71.9977 64.7191 71.8994 64.6304H71.8988Z" fill="white"/>
</g>
</g>
</g>
<defs>
<clipPath id="clip0_162_847">
<rect width="93.4537" height="69.7517" fill="white" transform="translate(0 0.500977)"/>
</clipPath>
<clipPath id="clip1_162_847">
<rect width="507.901" height="70.0446" fill="white" transform="translate(0 0.500977)"/>
</clipPath>
</defs>
</svg>
